<svg class="img-fluid" id="outputsvg" xmlns="http://www.w3.org/2000/svg" width="256" height="256"
	viewBox="0 0 2560 2560">
	<g id="l3XvRzZ8VR7OVsqicAJTdJG" fill="rgb(0,0,0)" style="transform: none;">
		<g>
			<path id="pL915kDhL"
				d="M2080 2533 c-64 -23 -142 -105 -164 -171 -43 -129 -7 -231 163 -460 94 -127 109 -133 166 -70 63 70 163 220 202 305 31 68 35 83 31 142 -2 37 -12 84 -23 106 -25 51 -89 115 -140 140 -54 26 -174 30 -235 8z m266 -228 l17 -45 -32 -63 c-34 -66 -132 -217 -141 -217 -9 0 -111 155 -103 157 5 0 20 4 35 7 21 5 30 16 43 55 19 59 37 76 93 91 36 9 44 16 49 40 7 38 17 31 39 -25z">
			</path>
			<path id="p19DNjhiOi"
				d="M293 2365 c-98 -27 -172 -96 -203 -188 -16 -51 -9 -162 15 -212 12 -27 268 -290 817 -840 879 -881 830 -825 773 -893 -14 -17 -25 -38 -25 -49 0 -29 150 -173 180 -173 36 0 590 554 590 590 0 30 -145 180 -174 180 -10 0 -31 -11 -48 -25 -28 -24 -45 -30 -78 -25 -8 1 -375 361 -815 800 -440 439 -814 805 -830 813 -23 11 -145 41 -149 36 -1 0 -25 -7 -53 -14z m122 -134 c27 -13 188 -168 485 -465 l445 -446 -215 0 -215 0 -347 348 c-368 370 -382 387 -359 453 17 50 48 86 93 108 52 26 62 26 113 2z m1350 -1332 c143 -143 277 -269 297 -280 41 -21 129 -26 172 -9 63 24 26 -25 -170 -221 -189 -189 -237 -229 -225 -188 11 39 12 132 1 165 -10 31 -91 118 -388 417 l-377 377 215 0 215 0 260 -261z">
			</path>
			<path id="pKn0AMXGD"
				d="M2133 1541 c-74 -34 -96 -119 -52 -197 36 -63 89 -124 108 -124 23 0 51 31 95 104 59 97 44 176 -39 216 -51 24 -59 24 -112 1z">
			</path>
		</g>
	</g>
	<g id="l60nrQtBKUl1piGgYV7SCph" fill="rgb(221,221,221)" style="transform: none;">
		<g>
			<path id="p14F2TFKUQ"
				d="M1387 788 c460 -461 463 -465 413 -563 l-20 -40 35 -35 35 -35 242 242 242 242 -33 35 -33 34 -42 -19 c-53 -24 -88 -24 -134 0 -20 11 -154 137 -297 280 l-260 261 -275 0 -275 0 402 -402z">
			</path>
		</g>
	</g>
	<g id="l6pSI1DlpQUBCjDCsBN8Jpd" fill="rgb(251,173,74)" style="transform: none;">
		<g>
			<path id="p11wSgHAPg"
				d="M272 2259 c-56 -28 -94 -84 -100 -148 -9 -96 -8 -98 366 -473 l347 -348 267 0 c148 0 268 3 268 8 0 4 -213 220 -472 479 -326 325 -485 477 -510 488 -52 21 -115 19 -166 -6z">
			</path>
		</g>
	</g>
	<g id="l7atkND83ucYGkQ7xM3hNgw" fill="rgb(38,187,236)" style="transform: none;">
		<g>
			<path id="pyofLCuAA"
				d="M2105 2441 c-48 -22 -79 -54 -100 -103 -25 -61 -19 -109 23 -188 36 -68 152 -240 162 -240 10 0 125 171 162 241 43 82 48 131 19 194 -46 100 -165 143 -266 96z m155 -39 c18 -14 21 -25 16 -45 -5 -20 -16 -29 -49 -38 -55 -14 -73 -31 -92 -89 -20 -60 -48 -76 -79 -44 -37 36 -5 141 56 188 29 22 82 43 114 45 7 1 22 -7 34 -17z">
			</path>
			<path id="p54w1U6v0"
				d="M2154 1436 c-5 -23 21 -86 37 -86 3 0 14 16 25 35 22 42 12 68 -29 73 -21 3 -28 -2 -33 -22z"></path>
		</g>
	</g>
</svg>