<svg class="img-fluid" id="outputsvg" xmlns="http://www.w3.org/2000/svg" width="256" height="256"
	viewBox="0 0 2560 2560">
	<g id="l2fW0kDn7QKdU2LQNvQAWcO" fill="rgb(0,0,0)" style="transform: none;">
		<g>
			<path id="pXcTmNSRz"
				d="M302 2550 c-119 -18 -229 -105 -273 -218 -20 -51 -23 -75 -23 -222 0 -204 15 -252 103 -341 56 -55 141 -99 194 -99 12 0 32 -3 44 -6 21 -6 21 -7 -12 -49 -58 -77 -70 -129 -69 -310 1 -199 16 -248 103 -336 90 -90 130 -101 389 -107 116 -2 212 -6 212 -9 0 -2 -11 -19 -24 -36 -36 -46 -83 -152 -102 -226 -23 -93 -16 -247 15 -318 26 -59 84 -117 139 -140 42 -17 159 -20 211 -4 l34 10 -7 -54 c-5 -48 -4 -55 16 -69 19 -13 25 -14 43 -2 19 13 29 33 39 87 6 26 6 26 54 14 130 -34 278 60 326 207 20 64 21 186 1 263 -19 72 -63 169 -105 229 l-30 45 432 3 c481 3 477 3 518 71 40 65 15 171 -45 199 l-25 11 0 167 0 167 25 11 c60 28 85 134 45 199 -27 45 -71 64 -162 70 l-78 6 0 46 c0 54 -28 106 -65 123 l-25 11 0 167 0 167 25 11 c60 28 85 134 45 199 -10 18 -34 40 -52 50 -31 17 -88 18 -948 19 -503 1 -939 -2 -968 -6z m328 -140 l0 -50 -156 0 c-174 0 -207 -9 -247 -64 -20 -28 -22 -45 -25 -172 -4 -168 9 -209 78 -244 38 -20 57 -20 964 -20 827 0 926 -2 940 -16 20 -20 20 -48 0 -68 -14 -14 -113 -16 -943 -16 -1010 0 -972 -2 -1048 56 -18 13 -45 46 -60 72 -28 46 -28 49 -28 217 0 162 1 173 25 219 14 27 41 62 61 78 61 49 98 57 277 58 l162 0 0 -50z m1554 34 c20 -20 20 -48 0 -68 -14 -14 -84 -16 -625 -16 l-609 0 0 50 0 50 609 0 c541 0 611 -2 625 -16z m-1394 -78 c14 0 33 4 43 8 16 8 17 -1 17 -103 l0 -111 -60 0 -60 0 0 111 c0 102 1 111 18 103 9 -4 28 -8 42 -8z m-160 -156 l0 -50 -165 0 -165 0 0 32 c0 62 16 68 182 68 l148 0 0 -50z m1470 0 l0 -50 -575 0 -575 0 0 50 0 50 575 0 575 0 0 -50z m0 -200 l0 -50 -882 0 c-981 0 -918 -5 -918 67 l0 33 900 0 900 0 0 -50z m344 -366 c20 -20 20 -48 0 -68 -14 -14 -113 -16 -941 -16 -1023 0 -968 3 -1016 -64 -20 -28 -22 -45 -25 -172 -4 -168 9 -209 78 -244 38 -20 57 -20 964 -20 827 0 926 -2 940 -16 20 -20 20 -48 0 -68 -14 -14 -113 -16 -943 -16 -1010 0 -972 -2 -1048 56 -18 13 -45 46 -60 72 -28 46 -28 49 -28 217 0 162 1 173 25 219 29 56 80 101 136 121 32 12 205 14 971 15 834 0 933 -2 947 -16z m-84 -234 l0 -50 -348 0 c-372 0 -372 0 -372 -50 0 -50 0 -50 372 -50 l348 0 0 -50 0 -50 -882 0 c-981 0 -918 -5 -918 67 l0 33 348 0 c372 0 372 0 372 50 0 50 0 50 -372 50 l-348 0 0 32 c0 17 7 40 17 50 15 17 56 18 900 18 l883 0 0 -50z m-1143 -587 c61 -17 62 -17 143 6 81 24 81 24 108 4 64 -46 142 -195 164 -313 26 -141 -35 -272 -143 -310 -49 -18 -92 -7 -169 40 -54 33 -74 40 -117 40 -58 0 -83 -17 -83 -56 0 -20 -5 -24 -28 -24 -53 0 -115 41 -141 93 -65 131 -11 380 110 505 46 48 42 48 156 15z">
			</path>
			<path id="pwn5kpRcg"
				d="M1426 1344 c-9 -8 -16 -24 -16 -34 0 -10 7 -26 16 -34 8 -9 24 -16 34 -16 43 0 65 54 34 84 -8 9 -24 16 -34 16 -10 0 -26 -7 -34 -16z">
			</path>
		</g>
	</g>
	<g id="lt3orNscj0ND06L1eSSbgV" fill="rgb(255,255,255)" style="transform: none;">
		<g>
			<path id="pju64nNYt"
				d="M317 2242 c-10 -10 -17 -33 -17 -50 l0 -32 165 0 165 0 0 50 0 50 -148 0 c-132 0 -151 -2 -165 -18z"></path>
			<path id="pzgRuKOwh" d="M950 2210 l0 -50 575 0 575 0 0 50 0 50 -575 0 -575 0 0 -50z"></path>
			<path id="p1GmmzKbia" d="M300 2027 c0 -72 -63 -67 918 -67 l882 0 0 50 0 50 -900 0 -900 0 0 -33z"></path>
			<path id="p8jH61ZwQ"
				d="M577 1442 c-10 -10 -17 -33 -17 -50 l0 -32 348 0 c372 0 372 0 372 -50 0 -50 0 -50 -372 -50 l-348 0 0 -33 c0 -72 -63 -67 918 -67 l882 0 0 50 0 50 -348 0 c-372 0 -372 0 -372 50 0 50 0 50 372 50 l348 0 0 50 0 50 -883 0 c-844 0 -885 -1 -900 -18z m917 -98 c31 -30 9 -84 -34 -84 -24 0 -50 26 -50 50 0 43 54 65 84 34z">
			</path>
		</g>
	</g>
	<g id="l3CzXn1OOm5olpSzFpBhHeJ" fill="rgb(255,193,68)" style="transform: none;">
		<g>
			<path id="p1APP1gYIS"
				d="M526 1645 c-56 -20 -107 -65 -136 -121 -24 -46 -25 -57 -25 -219 0 -168 0 -171 28 -217 15 -26 42 -59 60 -72 76 -58 38 -56 1048 -56 830 0 929 2 943 16 20 20 20 48 0 68 -14 14 -113 16 -940 16 -907 0 -926 0 -964 20 -69 35 -82 76 -78 244 3 127 5 144 25 172 48 67 -7 64 1016 64 828 0 927 2 941 16 20 20 20 48 0 68 -14 14 -113 16 -947 16 -766 -1 -939 -3 -971 -15z">
			</path>
		</g>
	</g>
	<g id="l3OOdpgkB59nQ6o4l6RF7HP" fill="rgb(132,129,226)" style="transform: none;">
		<g>
			<path id="p1HnShBZm6"
				d="M266 2445 c-56 -20 -107 -65 -136 -121 -24 -46 -25 -57 -25 -219 0 -168 0 -171 28 -217 15 -26 42 -59 60 -72 76 -58 38 -56 1048 -56 830 0 929 2 943 16 20 20 20 48 0 68 -14 14 -113 16 -940 16 -907 0 -926 0 -964 20 -69 35 -82 76 -78 244 3 127 5 144 25 172 40 55 73 64 247 64 l156 0 0 50 0 50 -162 0 c-112 -1 -175 -5 -202 -15z">
			</path>
			<path id="pnpUXIwIw"
				d="M950 2410 l0 -50 609 0 c541 0 611 2 625 16 20 20 20 48 0 68 -14 14 -84 16 -625 16 l-609 0 0 -50z"></path>
		</g>
	</g>
	<g id="l49FFmxHPb6O4jbgPCQmhPW" fill="rgb(255,90,88)" style="transform: none;">
		<g>
			<path id="p6xdiT0Pb"
				d="M730 2271 l0 -111 60 0 60 0 0 111 c0 102 -1 111 -17 103 -10 -4 -29 -8 -43 -8 -14 0 -33 4 -42 8 -17 8 -18 -1 -18 -103z">
			</path>
			<path id="p7sHuELD1"
				d="M1061 808 c-121 -125 -175 -374 -110 -505 26 -52 88 -93 141 -93 23 0 28 4 28 24 0 39 25 56 83 56 43 0 63 -7 117 -40 77 -47 120 -58 169 -40 108 38 169 169 143 310 -22 118 -100 267 -164 313 -27 20 -27 20 -108 -4 -81 -23 -82 -23 -143 -6 -114 33 -110 33 -156 -15z">
			</path>
		</g>
	</g>
</svg>