<svg class="img-fluid" id="outputsvg" xmlns="http://www.w3.org/2000/svg" width="256" height="256"
	viewBox="0 0 2560 2560">
	<g id="l7Vw6AL1TqKWd" fill="none" stroke="rgb(0,0,0)" stroke-width="10" style="transform: none;">
		<g fill="none" style="transform: none;">
			<path
				d="M1241 138C1241 97 1211 21 1271 8C1281 5 1292 14 1300 20C1320 38 1327 65 1332 91C1334 100 1334 118 1344 122C1362 131 1394 114 1412 111C1450 107 1487 112 1522 124C1614 155 1685 235 1714 325C1725 358 1727 392 1728 427C1731 475 1730 527 1718 574C1700 651 1665 730 1622 795C1612 811 1602 827 1592 842C1590 845 1582 855 1588 858C1594 861 1602 860 1608 860C1621 860 1635 861 1648 861L1791 861C1888 861 1985 864 2082 864C2155 864 2230 860 2301 867C2344 871 2385 868 2428 874C2451 877 2480 881 2498 895C2515 907 2528 928 2537 947C2561 998 2551 1068 2514 1111C2505 1121 2494 1130 2482 1135C2475 1138 2462 1141 2460 1150C2454 1171 2460 1201 2460 1224L2460 1385L2460 1447C2460 1455 2457 1467 2461 1475C2464 1485 2485 1490 2494 1495C2510 1505 2522 1521 2531 1538C2555 1584 2557 1645 2528 1690C2491 1750 2420 1754 2355 1760C2338 1761 2308 1757 2292 1765C2288 1767 2290 1774 2290 1778C2290 1791 2290 1805 2290 1818C2288 1852 2274 1892 2248 1917C2240 1925 2228 1932 2217 1937C2211 1940 2202 1942 2200 1950C2195 1970 2200 1997 2200 2018L2200 2168L2200 2240C2200 2250 2197 2264 2200 2274C2202 2284 2218 2287 2225 2290C2240 2297 2251 2308 2261 2321C2311 2391 2294 2498 2215 2540C2204 2547 2188 2547 2175 2548C2142 2552 2111 2551 2078 2552C2050 2554 2021 2552 1992 2554C1985 2554 1978 2560 1971 2560C1942 2562 1912 2560 1884 2560L1711 2560L878 2560L612 2560C560 2560 504 2564 452 2555C402 2545 348 2558 297 2551C178 2534 74 2444 30 2334C4 2272 5 2202 5 2137C5 2048 -1 1945 37 1864C54 1828 82 1795 111 1768C158 1724 225 1678 292 1672C310 1671 327 1670 344 1667C350 1665 360 1662 360 1655C361 1642 340 1624 332 1614C311 1585 294 1554 284 1520C270 1474 268 1424 267 1377C265 1324 265 1272 268 1220C271 1162 275 1100 305 1048C345 982 410 917 482 891C570 860 671 867 761 862C812 860 864 864 914 858C925 857 955 862 964 854C970 850 962 842 960 838C950 824 940 811 931 797C892 738 865 670 847 602C837 564 832 524 831 484C830 415 831 335 860 272C875 238 898 210 925 184C947 164 972 144 1001 134C1055 114 1124 115 1180 124C1200 127 1221 138 1241 138M1241 138L1248 147M1442 202C1501 197 1562 251 1592 295C1680 427 1627 597 1555 722C1535 758 1514 792 1484 821C1474 831 1458 845 1444 848C1425 851 1405 844 1387 838C1351 828 1311 811 1272 812C1235 814 1195 831 1160 841C1140 847 1114 852 1095 841C1081 834 1071 821 1061 810C1037 784 1015 757 1000 725C950 634 920 528 924 424C927 360 942 297 992 252C1017 231 1050 215 1081 212C1091 211 1105 210 1114 217C1125 225 1120 251 1127 264C1142 294 1192 294 1221 291C1302 282 1360 212 1442 202M901 961C924 958 950 961 972 961L1108 961L1524 961L1925 961C2067 961 2210 960 2351 965C2377 967 2414 964 2438 975C2461 985 2462 1018 2451 1037C2434 1062 2377 1057 2351 1057C2257 1057 2164 1060 2070 1060C1680 1060 1291 1061 901 1061C837 1061 772 1062 708 1064C661 1064 611 1061 565 1072C518 1084 481 1120 470 1167C452 1247 460 1335 465 1415C468 1457 477 1502 512 1530C544 1554 592 1551 630 1554C715 1560 800 1555 885 1560C1007 1565 1128 1561 1250 1561L1912 1561C2058 1561 2205 1560 2351 1565C2377 1567 2414 1564 2438 1575C2462 1587 2462 1622 2447 1641C2438 1652 2420 1654 2405 1654C2380 1655 2355 1657 2330 1657C2218 1660 2105 1661 1994 1661C1644 1661 1294 1660 944 1660C844 1660 744 1660 644 1655C591 1652 540 1657 491 1631C438 1601 391 1548 374 1490C358 1430 364 1360 365 1298C367 1244 360 1185 372 1132C385 1077 438 1021 487 992C525 970 578 971 621 968C680 964 738 962 797 962C831 962 867 967 901 961M874 1161C915 1157 961 1161 1002 1161L1257 1161L2035 1161L2274 1161L2335 1161C2341 1161 2352 1158 2357 1162C2362 1167 2360 1180 2360 1185L2360 1237C2360 1242 2361 1252 2358 1258C2355 1265 2330 1261 2322 1261L2207 1261C2062 1261 1920 1262 1775 1262C1742 1262 1707 1262 1674 1270C1661 1272 1644 1277 1641 1292C1638 1307 1637 1331 1647 1342C1658 1354 1678 1354 1692 1355C1730 1360 1765 1358 1802 1361C1847 1364 1891 1361 1935 1361L2202 1361L2304 1361C2320 1361 2338 1358 2354 1361C2362 1362 2360 1375 2360 1381L2360 1440C2360 1444 2361 1457 2357 1460C2352 1464 2338 1461 2331 1461L2262 1461L1995 1461L960 1461C861 1461 762 1458 664 1457C625 1457 574 1462 564 1415C561 1404 554 1372 561 1364C565 1358 587 1361 594 1361L694 1361L974 1361C1024 1361 1075 1364 1125 1360C1162 1357 1200 1360 1237 1354C1252 1352 1271 1350 1278 1332C1288 1307 1278 1278 1251 1271C1211 1261 1167 1262 1125 1262C991 1262 857 1261 722 1261L608 1261C597 1261 574 1265 562 1260C557 1257 560 1245 560 1240C560 1221 554 1195 571 1184C584 1174 605 1172 621 1171C654 1167 687 1164 720 1164C770 1164 824 1168 874 1161M1457 1261C1480 1258 1505 1281 1508 1304C1511 1330 1492 1355 1467 1360C1438 1364 1408 1338 1411 1310C1412 1285 1434 1265 1457 1261M641 1761C684 1757 730 1761 772 1761L1034 1761C1307 1761 1581 1762 1854 1762C1954 1762 2057 1757 2155 1770C2164 1771 2175 1771 2182 1777C2204 1794 2205 1834 2180 1848C2168 1854 2154 1854 2142 1854C2118 1855 2094 1855 2070 1857C1980 1861 1888 1855 1798 1860C1671 1865 1544 1861 1417 1861L720 1861C611 1861 501 1858 392 1865C341 1868 294 1867 251 1900C220 1924 211 1958 205 1995C197 2057 200 2121 204 2182C205 2212 204 2245 214 2274C224 2302 251 2330 278 2342C314 2360 358 2358 397 2360C447 2361 495 2361 545 2361L600 2361C607 2361 618 2360 625 2361C632 2364 630 2377 630 2382L630 2440C630 2444 631 2457 627 2460C620 2467 590 2461 580 2461L444 2461C352 2461 257 2462 185 2398C154 2370 127 2331 115 2291C105 2258 105 2221 105 2187L105 2071C105 2021 98 1965 117 1918C131 1882 160 1847 188 1821C238 1777 297 1772 361 1768C420 1764 478 1762 537 1762C571 1762 607 1767 641 1761M614 1961C655 1957 701 1961 744 1961L1001 1961L1788 1961L2001 1961L2065 1961C2074 1961 2087 1960 2095 1961C2102 1964 2100 1977 2100 1982L2100 2040C2100 2044 2101 2057 2097 2060C2091 2064 2075 2061 2068 2061L1991 2061L1688 2061L632 2061L380 2061L320 2061C315 2061 302 2064 301 2058C297 2051 300 2038 300 2031C300 2020 297 2005 302 1994C310 1975 338 1974 355 1971C408 1964 464 1962 518 1962C550 1962 582 1965 614 1961M302 2162C307 2160 317 2161 322 2161L378 2161L555 2161L605 2161C611 2161 621 2160 627 2162C632 2165 630 2178 630 2184L630 2240C630 2244 631 2257 627 2260C622 2262 612 2261 607 2261L554 2261C501 2261 447 2264 394 2260C372 2258 351 2258 330 2251C302 2242 300 2211 300 2187C300 2181 297 2167 302 2162M732 2162C735 2160 741 2161 745 2161L781 2161L830 2161C834 2161 844 2160 847 2162C852 2167 850 2188 850 2195L850 2295C850 2314 850 2332 848 2351C848 2358 850 2368 842 2374C838 2378 831 2375 827 2374C815 2370 802 2368 791 2367C780 2367 765 2370 754 2374C748 2375 741 2380 737 2374C728 2367 730 2340 730 2330C730 2290 730 2250 730 2210L730 2175C730 2171 728 2165 732 2162M952 2162C957 2160 965 2161 971 2161L1024 2161L1230 2161L1830 2161L2012 2161L2068 2161C2077 2161 2087 2160 2095 2161C2102 2164 2100 2177 2100 2182L2100 2238C2100 2244 2101 2254 2098 2258C2095 2262 2085 2261 2081 2261L2032 2261L1832 2261L1108 2261L991 2261C982 2261 957 2265 951 2258C945 2251 950 2224 950 2214L950 2177C950 2172 948 2165 952 2162M952 2362C957 2360 965 2361 971 2361L1021 2361L1215 2361C1467 2361 1717 2362 1968 2362C2032 2362 2104 2358 2168 2371C2200 2378 2207 2418 2187 2441C2171 2461 2128 2455 2105 2457C2032 2460 1958 2461 1885 2461L1255 2461L1052 2461C1021 2461 985 2465 955 2461C947 2460 950 2447 950 2441L950 2382C950 2378 948 2365 952 2362">
			</path>
		</g>
	</g>
</svg>