<svg class="img-fluid" id="outputsvg" xmlns="http://www.w3.org/2000/svg" width="256" height="256"
	viewBox="0 0 2560 2560">
	<g id="l1YO9d0yGb5yBC8pj7YzoMx" fill="none" stroke="rgb(0,0,0)" stroke-width="10" style="transform: none;">
		<g>
			<path id="pg7Ar1tc6"
				d="M1035 2554 c-6 -1 -26 -5 -46 -8 -59 -10 -152 -78 -219 -159 -39 -47 -71 -78 -88 -82 -47 -11 -100 -53 -128 -101 -23 -39 -28 -60 -29 -121 l-2 -73 -39 -29 c-108 -78 -155 -172 -162 -326 l-4 -100 -64 -67 c-112 -116 -153 -252 -120 -398 9 -41 28 -99 41 -128 20 -43 25 -70 25 -135 1 -179 48 -323 136 -417 47 -51 149 -110 189 -110 13 0 26 -9 33 -24 16 -35 69 -92 107 -116 19 -11 59 -25 90 -30 39 -6 71 -20 106 -46 123 -90 266 -100 390 -27 28 16 30 16 58 0 124 -73 267 -63 390 27 35 26 67 40 106 46 83 14 146 58 191 138 12 20 26 32 40 32 39 0 141 60 188 110 88 94 135 238 136 417 0 65 5 92 25 135 90 194 63 379 -79 526 l-64 67 -4 100 c-7 154 -54 248 -162 326 l-39 29 -2 73 c-1 61 -6 82 -29 121 -28 48 -81 90 -127 101 -16 4 -54 38 -96 88 -92 108 -161 150 -253 155 -53 3 -75 0 -106 -16 -42 -22 -86 -60 -122 -106 l-22 -29 -22 29 c-33 42 -79 83 -113 101 -30 17 -92 32 -110 27z m81 -109 c23 -14 58 -47 78 -74 l36 -49 0 -1091 0 -1092 -52 -24 c-97 -45 -185 -29 -290 55 -42 33 -58 40 -95 40 -70 0 -129 42 -167 118 -17 34 -31 42 -102 61 -91 24 -168 102 -206 208 -16 43 -22 94 -27 198 -5 119 -9 145 -28 175 -61 100 -70 269 -20 367 26 51 70 102 135 155 l32 26 -6 84 c-11 141 39 260 133 317 81 49 81 50 75 129 -7 109 23 159 109 182 25 7 48 23 66 47 92 121 186 193 252 193 19 0 53 -11 77 -25z m489 -4 c48 -28 110 -88 168 -164 18 -24 40 -40 68 -47 22 -6 54 -24 72 -40 32 -28 32 -29 33 -126 1 -82 4 -100 18 -109 85 -50 110 -71 136 -112 37 -57 60 -131 60 -189 l0 -42 -52 20 c-63 24 -154 21 -207 -7 -49 -25 -112 -94 -144 -158 -24 -46 -27 -59 -17 -77 20 -37 59 -23 93 35 60 104 112 140 193 133 96 -8 236 -114 290 -219 49 -97 43 -253 -13 -356 -24 -43 -27 -63 -34 -188 -7 -153 -21 -209 -73 -288 -49 -76 -160 -138 -219 -123 -80 20 -179 127 -192 208 -7 44 -29 78 -50 78 -7 0 -20 -9 -29 -19 -14 -16 -16 -29 -11 -62 17 -99 79 -188 177 -251 26 -17 48 -34 48 -38 0 -9 -62 -66 -87 -79 -12 -6 -41 -11 -65 -11 -41 1 -45 3 -87 61 -39 54 -47 60 -75 57 -48 -5 -47 -38 4 -110 22 -32 38 -63 34 -69 -3 -6 -30 -22 -58 -35 -71 -33 -137 -32 -207 4 l-54 27 0 1085 0 1086 38 52 c45 61 108 102 157 102 20 0 56 -12 85 -29z">
			</path>
			<path id="p1GZcIwUSa"
				d="M892 2199 c-63 -32 -97 -88 -97 -160 1 -68 29 -116 87 -149 l38 -21 0 -73 c0 -72 0 -74 -30 -86 -63 -26 -109 -114 -96 -183 9 -47 44 -97 89 -126 l37 -24 0 -89 0 -88 -115 0 c-94 0 -115 3 -115 15 0 22 -61 86 -97 101 -152 64 -301 -104 -221 -248 66 -117 250 -116 305 2 17 38 20 39 66 40 l47 0 0 -179 0 -179 -44 -26 c-107 -63 -115 -209 -15 -288 87 -70 222 -34 265 69 35 82 -3 191 -80 227 l-36 17 0 179 0 180 53 0 c29 0 58 5 65 12 8 8 12 53 12 135 l0 123 28 11 c130 50 141 242 17 315 l-45 26 0 68 c0 60 3 69 20 75 31 10 79 54 97 88 22 44 20 117 -6 164 -47 82 -147 114 -229 72z m113 -79 c15 -6 32 -24 41 -45 31 -75 -36 -142 -111 -111 -62 26 -74 89 -26 137 31 31 53 35 96 19z m20 -503 c57 -48 22 -147 -51 -147 -46 0 -63 9 -79 41 -22 42 -18 67 14 100 36 36 79 38 116 6z m-441 -402 c55 -51 19 -145 -57 -145 -52 0 -87 32 -87 81 0 80 85 118 144 64z m313 -577 c33 -31 32 -91 -3 -123 -79 -74 -190 34 -123 119 27 34 91 37 126 4z">
			</path>
			<path id="p3eIqPwnM"
				d="M1416 2144 c-9 -8 -16 -21 -16 -27 0 -23 57 -132 95 -181 35 -46 37 -53 32 -102 -7 -66 -32 -123 -86 -194 -22 -30 -41 -60 -41 -66 0 -20 38 -46 57 -39 46 16 137 163 151 245 l8 45 46 0 c60 0 87 22 71 58 -8 18 -22 26 -53 31 -56 9 -118 68 -166 159 -48 92 -65 104 -98 71z">
			</path>
			<path id="palLaPx9h"
				d="M1852 1190 c-100 -34 -179 -123 -241 -276 -18 -43 -40 -90 -48 -103 l-16 -24 -21 49 c-36 85 -85 154 -110 154 -26 0 -46 -18 -46 -40 0 -9 14 -38 32 -66 46 -72 86 -190 98 -291 6 -48 14 -103 18 -122 9 -42 34 -61 59 -45 16 10 18 26 16 110 -2 55 -6 112 -11 128 -7 26 -4 34 27 66 23 23 52 74 80 139 49 117 88 172 148 215 35 24 55 30 117 34 42 2 96 -1 122 -7 25 -7 54 -9 64 -6 27 9 35 43 15 65 -37 41 -209 52 -303 20z">
			</path>
		</g>
	</g>
	<g id="l6yXLvOvhSXkMcIZqrnJMx4" fill="none" stroke="rgb(38,187,236)" stroke-width="10" style="transform: none;">
		<g>
			<path id="paWkfxMwA" d="M909 2101 c-48 -48 -36 -111 26 -137 75 -31 142 36 111 111 -25 60 -90 72 -137 26z"></path>
			<path id="p1FD9YQ868"
				d="M909 1611 c-32 -33 -36 -58 -14 -100 16 -32 33 -41 79 -41 73 0 108 99 51 147 -37 32 -80 30 -116 -6z"></path>
			<path id="pxgD6ys2n" d="M465 1215 c-36 -35 -35 -96 1 -124 60 -47 144 -10 144 64 0 75 -92 113 -145 60z"></path>
			<path id="pW1mXanuw" d="M771 634 c-67 -85 44 -193 123 -119 35 32 36 92 3 123 -35 33 -99 30 -126 -4z"></path>
		</g>
	</g>
	<g id="l58YrvQ9nJdvrMZzVYCmyG9" fill="none" stroke="rgb(255,221,149)" stroke-width="10" style="transform: none;">
		<g>
			<path id="pjRInufi7"
				d="M955 2441 c-48 -28 -110 -88 -168 -164 -18 -24 -41 -40 -66 -47 -86 -23 -116 -73 -109 -182 6 -79 6 -80 -75 -129 -94 -57 -144 -176 -133 -317 l6 -84 -32 -26 c-65 -53 -109 -104 -135 -155 -50 -98 -41 -267 20 -367 19 -30 23 -56 28 -175 5 -104 11 -155 27 -198 38 -106 115 -184 206 -208 71 -19 85 -27 102 -61 38 -76 97 -118 167 -118 37 0 53 -7 95 -40 105 -84 193 -100 290 -55 l52 24 0 1092 0 1091 -36 49 c-42 58 -107 99 -155 99 -19 0 -56 -13 -84 -29z m111 -253 c69 -47 97 -154 61 -225 -18 -34 -66 -78 -97 -88 -17 -6 -20 -15 -20 -75 l0 -68 45 -26 c124 -73 113 -265 -17 -315 l-28 -11 0 -123 c0 -82 -4 -127 -12 -135 -7 -7 -36 -12 -65 -12 l-53 0 0 -180 0 -179 36 -17 c22 -11 48 -36 65 -63 105 -164 -99 -354 -250 -233 -100 79 -92 225 15 288 l44 26 0 179 0 179 -47 0 c-46 -1 -49 -2 -66 -40 -55 -118 -239 -119 -305 -2 -80 144 69 312 221 248 36 -15 97 -79 97 -101 0 -12 21 -15 115 -15 l115 0 0 88 0 89 -37 24 c-45 29 -80 79 -89 126 -13 69 33 157 96 183 30 12 30 14 30 86 l0 73 -38 21 c-58 33 -86 81 -87 149 0 46 5 66 27 98 54 81 165 105 244 51z">
			</path>
			<path id="pDiAAU7ZQ"
				d="M1443 2445 c-23 -14 -59 -49 -80 -77 l-38 -52 0 -1086 0 -1085 54 -27 c70 -36 136 -37 207 -4 28 13 55 29 58 35 4 6 -12 37 -34 69 -51 72 -52 105 -4 110 28 3 36 -3 75 -57 42 -58 46 -60 87 -61 24 0 53 5 65 11 25 13 87 70 87 79 0 4 -22 21 -48 38 -98 63 -160 152 -177 251 -5 33 -3 46 11 62 9 10 22 19 29 19 21 0 43 -34 50 -78 13 -81 112 -188 192 -208 59 -15 170 47 219 123 52 79 66 135 73 288 7 125 10 145 34 188 56 103 62 259 13 356 -54 105 -194 211 -290 219 -81 7 -133 -29 -193 -133 -34 -58 -73 -72 -93 -35 -24 44 78 193 161 235 53 28 144 31 207 7 l52 -20 0 42 c0 58 -23 132 -60 189 -26 41 -51 62 -136 112 -14 9 -17 27 -18 109 -1 97 -1 98 -33 126 -18 16 -50 34 -72 40 -28 7 -50 23 -68 47 -93 122 -186 193 -253 193 -20 0 -53 -11 -77 -25z m23 -293 c6 -4 28 -40 48 -79 48 -91 110 -150 166 -159 31 -5 45 -13 53 -31 16 -36 -11 -58 -71 -58 l-46 0 -8 -45 c-14 -82 -105 -229 -151 -245 -19 -7 -57 19 -57 39 0 6 19 36 41 66 54 71 79 128 86 194 5 49 3 56 -32 102 -38 49 -95 158 -95 181 0 15 28 43 43 43 7 0 17 -4 23 -8z m623 -953 c57 -12 86 -38 76 -68 -8 -28 -35 -34 -89 -20 -26 6 -80 9 -122 7 -62 -4 -82 -10 -117 -34 -60 -43 -99 -98 -148 -215 -28 -65 -57 -116 -80 -139 -31 -32 -34 -40 -27 -66 5 -16 9 -73 11 -128 2 -84 0 -100 -16 -110 -25 -16 -50 3 -59 45 -4 19 -12 74 -18 122 -12 101 -52 219 -98 291 -18 28 -32 57 -32 66 0 22 20 40 46 40 25 0 74 -69 110 -154 l21 -49 16 24 c8 13 30 60 48 103 39 95 100 187 151 229 73 59 207 82 327 56z">
			</path>
		</g>
	</g>
</svg>