<svg class="img-fluid" id="outputsvg" xmlns="http://www.w3.org/2000/svg" width="256" height="256"
	viewBox="0 0 2560 2560">
	<g id="l10a6d7inEvqO" fill="none" stroke="rgb(0,0,0)" stroke-width="10" style="transform: none;">
		<g fill="none">
			<path
				d="M1280 2400C1248 2437 1220 2474 1181 2504C1161 2520 1138 2534 1114 2542C1094 2548 1067 2558 1047 2560C1035 2560 1020 2552 1008 2551C925 2537 854 2480 797 2420C768 2390 744 2357 714 2328C692 2308 668 2305 644 2292C600 2267 562 2230 541 2182C525 2148 524 2108 524 2071C524 2055 528 2027 521 2012C517 2004 504 1998 497 1992C478 1978 460 1965 442 1950C400 1911 365 1861 348 1805C331 1754 324 1700 321 1647C320 1625 321 1602 318 1581C318 1574 320 1564 317 1557C312 1547 300 1540 292 1531C270 1505 245 1482 222 1455C168 1388 135 1310 124 1222C115 1147 137 1067 162 995C172 967 187 941 194 911C202 867 198 822 201 778C205 717 214 655 232 597C267 488 331 398 430 340C452 325 477 314 502 305C515 301 532 304 544 294C558 284 567 261 577 247C597 220 621 194 648 174C695 137 752 140 805 118C837 104 862 81 892 64C940 37 992 17 1048 11C1100 7 1151 15 1200 34C1217 41 1232 48 1248 57C1257 62 1267 70 1277 70C1290 70 1300 64 1311 57C1328 48 1347 38 1365 31C1420 11 1478 4 1535 14C1582 22 1628 41 1670 67C1695 81 1717 101 1744 114C1802 140 1867 140 1920 180C1942 198 1962 218 1978 242C1991 260 2000 281 2017 294C2027 302 2040 301 2051 304C2068 308 2085 315 2101 324C2185 368 2252 431 2295 517C2335 595 2352 684 2358 771C2361 818 2357 865 2367 912C2375 948 2394 982 2407 1017C2427 1072 2440 1132 2437 1192C2432 1290 2398 1378 2337 1454C2315 1481 2290 1505 2267 1531C2260 1540 2247 1548 2242 1558C2240 1567 2241 1578 2241 1587C2240 1610 2240 1634 2238 1657C2234 1722 2222 1782 2197 1842C2178 1888 2141 1930 2104 1961C2090 1972 2074 1984 2058 1995C2052 2000 2042 2005 2038 2012C2035 2018 2037 2025 2037 2031C2035 2048 2035 2064 2035 2081C2034 2124 2030 2164 2008 2201C1987 2238 1955 2270 1918 2291C1891 2305 1865 2311 1841 2332C1785 2382 1744 2444 1685 2491C1634 2530 1574 2550 1510 2550C1491 2550 1472 2551 1454 2545C1427 2538 1402 2522 1381 2507C1341 2475 1312 2437 1280 2400M1074 91C1114 88 1158 107 1194 124C1202 128 1222 132 1228 141C1232 148 1230 165 1230 174L1230 260L1230 580L1230 2025L1230 2230L1230 2292C1230 2302 1231 2314 1228 2322C1224 2338 1207 2355 1197 2368C1161 2417 1108 2465 1045 2471C1020 2474 991 2461 968 2450C908 2420 857 2365 815 2314C798 2294 782 2268 761 2252C715 2217 652 2221 625 2161C612 2130 608 2090 611 2055C614 2025 621 1988 600 1964C574 1937 537 1922 508 1900C468 1868 440 1821 424 1772C407 1724 400 1670 402 1618C404 1597 405 1577 407 1555C408 1547 412 1530 408 1521C405 1512 394 1507 387 1501C370 1487 352 1472 337 1458C291 1417 251 1367 230 1308C201 1225 205 1124 232 1041C245 1000 275 964 282 921C304 784 275 640 358 518C390 470 434 427 488 402C525 387 575 385 607 357C622 342 630 321 640 304C652 284 670 264 688 250C711 231 741 217 771 212C794 210 817 214 838 204C872 190 901 160 932 140C977 111 1022 97 1074 91M1474 91C1518 85 1568 105 1605 125C1617 132 1637 138 1642 151C1647 161 1634 180 1630 188C1612 218 1587 247 1575 280C1571 294 1568 312 1582 322C1601 334 1628 332 1644 318C1674 291 1690 250 1721 224C1735 212 1752 211 1770 211C1810 211 1841 225 1871 251C1884 261 1895 272 1907 284C1910 288 1917 294 1917 300C1918 308 1905 315 1900 320C1880 335 1857 348 1837 364C1772 415 1720 484 1701 565C1692 602 1684 641 1721 665C1754 688 1775 631 1782 608C1787 590 1790 571 1797 552C1820 500 1862 452 1908 420C1931 402 1965 381 1995 382C2030 385 2062 398 2092 415C2118 430 2144 448 2164 470C2232 541 2258 635 2265 731C2270 797 2267 865 2281 930C2291 970 2314 1001 2327 1040C2357 1132 2361 1242 2320 1332C2307 1360 2290 1384 2271 1407C2222 1462 2162 1512 2094 1541C2057 1557 2014 1565 1974 1557C1920 1545 1882 1504 1852 1460C1840 1438 1828 1415 1811 1397C1791 1377 1758 1355 1740 1391C1724 1424 1758 1474 1775 1501C1832 1587 1914 1660 2024 1650C2061 1645 2092 1640 2127 1627C2132 1624 2155 1611 2158 1618C2161 1624 2160 1631 2160 1637C2160 1651 2160 1667 2158 1681C2154 1758 2112 1850 2052 1898C2034 1914 2012 1927 1992 1940C1981 1947 1967 1952 1958 1962C1947 1977 1947 2007 1947 2024C1947 2050 1945 2075 1945 2101C1945 2121 1947 2144 1938 2162C1912 2218 1842 2220 1800 2251C1777 2268 1761 2295 1742 2317C1688 2380 1615 2462 1528 2471C1478 2475 1430 2441 1395 2407C1377 2388 1361 2368 1345 2347C1340 2338 1330 2328 1325 2317C1322 2307 1324 2294 1324 2282L1324 2215L1324 1987L1324 551L1324 260L1324 180C1324 171 1321 155 1325 148C1331 140 1351 134 1361 128C1398 110 1432 97 1474 91M822 402C937 388 1025 505 1005 611C997 657 971 697 934 724C924 732 911 738 900 744C894 745 884 748 881 754C877 761 880 774 880 781L880 847L880 1021C880 1048 875 1078 880 1105C881 1115 904 1111 911 1111C932 1111 954 1111 975 1115C984 1117 994 1120 1000 1127C1011 1144 1008 1174 1008 1194C1010 1237 1010 1280 1010 1322C1010 1338 1005 1364 1011 1378C1012 1385 1022 1387 1028 1390C1042 1395 1057 1401 1070 1410C1105 1434 1131 1475 1140 1518C1150 1584 1127 1650 1077 1692C1062 1704 1047 1712 1031 1721C1024 1725 1015 1728 1011 1735C1007 1744 1010 1758 1010 1767C1010 1792 1008 1818 1011 1844C1015 1877 1040 1878 1062 1895C1085 1911 1105 1931 1120 1954C1138 1981 1144 2012 1141 2044C1135 2134 1077 2207 984 2218C844 2234 751 2072 815 1955C830 1930 852 1910 877 1895C887 1888 914 1880 918 1868C922 1858 920 1842 920 1832C920 1805 922 1778 920 1751C915 1712 875 1708 850 1685C808 1647 782 1580 795 1524C805 1481 831 1444 865 1415C877 1405 890 1398 902 1390C908 1387 915 1384 918 1378C922 1371 920 1357 920 1348L920 1275L920 1222C920 1217 921 1208 918 1204C914 1198 895 1201 888 1201L797 1201C777 1201 758 1202 738 1202C725 1202 708 1202 697 1208C687 1214 684 1234 677 1242C662 1264 644 1281 624 1298C545 1360 424 1330 375 1244C324 1154 357 1041 452 998C520 968 602 981 652 1035C670 1054 675 1084 694 1101C711 1117 742 1111 764 1111C770 1111 784 1114 788 1108C792 1104 790 1092 790 1087L790 1025L790 835L790 780C790 772 791 762 788 755C784 744 755 734 745 727C721 712 701 692 685 668C614 557 702 418 822 402M1547 792C1537 804 1532 821 1527 835C1514 862 1501 888 1487 914C1472 940 1452 975 1425 988C1401 1000 1368 977 1371 950C1372 927 1391 902 1402 884C1421 854 1435 822 1450 790C1484 707 1495 620 1508 531C1512 504 1514 471 1527 447C1532 435 1542 424 1557 422C1578 420 1591 441 1592 460C1595 508 1594 558 1590 607C1588 622 1587 638 1584 654C1582 667 1577 681 1581 694C1587 712 1602 724 1614 738C1631 758 1644 780 1655 801C1714 907 1745 1050 1867 1104C1891 1114 1918 1117 1944 1118C1987 1121 2031 1121 2074 1112C2102 1107 2145 1092 2162 1127C2172 1147 2160 1168 2144 1180C2114 1201 2071 1205 2035 1208C1915 1217 1795 1194 1715 1095C1668 1038 1635 974 1607 907C1598 885 1588 864 1578 842C1571 825 1561 804 1547 792M831 491C882 485 925 541 921 588C917 630 884 657 844 662C778 670 732 604 758 544C771 514 800 495 831 491M1547 781L1547 792M518 1071C605 1060 641 1182 570 1228C561 1232 550 1238 540 1240C520 1242 500 1241 482 1231C441 1205 424 1141 455 1102C471 1084 494 1075 518 1071M958 1471C1015 1464 1064 1518 1051 1574C1047 1597 1031 1617 1011 1628C1001 1635 990 1640 977 1641C932 1647 885 1602 881 1560C880 1534 897 1500 917 1484C928 1475 944 1474 958 1471M1444 1537C1472 1530 1501 1574 1515 1592C1551 1640 1581 1694 1600 1751C1608 1774 1607 1800 1615 1821C1618 1830 1642 1825 1650 1825C1675 1825 1735 1827 1737 1862C1738 1888 1720 1905 1697 1912C1677 1917 1658 1921 1640 1930C1590 1957 1552 2007 1525 2054C1510 2081 1497 2110 1478 2135C1471 2147 1461 2160 1445 2161C1425 2162 1401 2137 1401 2118C1400 2105 1407 2092 1411 2081C1431 2037 1455 1995 1482 1955C1498 1932 1520 1911 1527 1882C1532 1862 1528 1835 1524 1815C1510 1728 1452 1668 1410 1595C1392 1567 1414 1542 1444 1537M970 1958C980 1957 992 1960 1002 1964C1080 1997 1062 2124 977 2130C920 2134 864 2071 884 2014C897 1980 935 1960 970 1958M1280 2397L1280 2400">
			</path>
		</g>
	</g>
</svg>