<svg class="img-fluid" id="outputsvg" xmlns="http://www.w3.org/2000/svg" width="256" height="256"
	viewBox="0 0 2560 2560">
	<g id="l5TmJCkyV5e9g" fill="none" stroke="rgb(0,0,0)" stroke-width="10" style="transform: none;">
		<g fill="none">
			<path
				d="M648 1C687 -7 732 1 771 1C860 1 950 2 1038 2C1325 2 1614 5 1901 5L2185 5C2205 5 2234 0 2254 7C2265 11 2277 21 2287 27C2294 32 2304 37 2308 42C2315 52 2317 71 2320 82C2334 134 2330 187 2330 240L2330 718L2330 1844L2330 2131C2330 2150 2331 2168 2330 2187C2328 2200 2322 2212 2318 2225C2315 2237 2314 2252 2307 2261C2302 2268 2294 2271 2287 2277C2277 2282 2267 2292 2255 2295C2235 2302 2207 2297 2185 2298C2158 2300 2131 2301 2104 2301C2087 2301 2070 2302 2052 2302C2047 2302 2038 2301 2034 2304C2028 2308 2031 2321 2031 2327C2031 2348 2028 2370 2028 2391C2028 2408 2025 2427 2025 2444C2025 2458 2027 2475 2022 2488C2020 2498 2011 2508 2005 2517C2001 2524 1995 2535 1988 2540C1980 2545 1965 2547 1955 2550C1947 2552 1937 2557 1928 2560C1915 2562 1898 2560 1885 2560L1800 2560L1527 2560L668 2560L377 2560C361 2560 344 2562 328 2560C318 2557 308 2552 298 2550C288 2547 274 2544 267 2535C255 2522 240 2502 235 2487C231 2470 234 2448 234 2431L234 2320C234 2160 232 2001 232 1841C232 1467 230 1091 230 717L230 431C230 397 232 367 242 334C244 324 245 310 252 301C257 295 265 291 271 287C281 280 294 270 307 267C328 261 357 264 378 264C404 264 430 261 455 261C472 261 488 260 505 260C511 260 521 261 525 258C531 254 528 242 528 237C531 215 530 194 531 172C532 148 532 122 535 98C535 91 534 82 537 75C540 64 548 55 555 45C560 38 564 28 570 24C577 20 587 18 594 15C611 11 630 5 648 1M632 102L654 101L715 101L954 101L1874 101L2141 101L2205 101L2228 104L2230 125L2230 185L2230 417L2230 1317L2230 1982L2230 2145L2230 2185L2227 2200L2205 2201L2144 2201L1905 2201L985 2201L718 2201L654 2201L631 2198L630 2177L630 2117L630 1885L630 985L630 320L630 157L630 117L632 102M1712 210C1748 205 1787 214 1822 220C1837 222 1855 222 1868 228C1877 232 1884 241 1891 248C1901 257 1912 265 1924 272C1940 282 1967 290 1980 302C1994 320 2001 347 2014 365C2025 381 2048 397 2054 415C2062 434 2062 460 2065 480C2074 534 2072 587 2062 640C2061 655 2060 672 2055 687C2050 702 2030 717 2020 731C2008 747 2000 762 1990 780C1987 787 1984 797 1978 802C1967 812 1934 814 1930 830C1924 852 1930 885 1930 910L1930 1081C1930 1104 1930 1121 1920 1142C1915 1150 1912 1160 1904 1161C1857 1168 1817 1141 1777 1121C1764 1114 1744 1100 1730 1100C1718 1100 1702 1111 1692 1115C1661 1131 1621 1161 1585 1161C1577 1161 1558 1164 1550 1158C1524 1138 1530 1092 1530 1064L1530 902C1530 880 1535 850 1530 828C1525 814 1491 812 1481 802C1465 785 1457 755 1442 735C1432 721 1412 707 1407 690C1401 674 1400 654 1397 637C1388 581 1387 530 1395 474C1398 455 1398 430 1407 412C1415 392 1438 377 1450 358C1460 341 1467 317 1480 302C1487 297 1498 292 1505 290C1520 282 1534 274 1547 264C1561 254 1575 235 1591 228C1601 222 1617 222 1628 221C1657 217 1684 214 1712 210M761 262C770 258 784 261 794 261L870 261L1062 261C1092 261 1127 257 1157 261C1167 262 1195 275 1198 285C1202 294 1200 307 1200 315C1200 325 1202 338 1194 344C1162 367 1124 361 1087 361L865 361L794 361C784 361 770 364 761 360C755 358 751 351 747 347C741 341 734 337 731 330C721 304 738 274 761 262M1717 311C1742 308 1771 315 1797 320C1805 321 1817 321 1825 325C1844 337 1858 355 1877 367C1885 372 1902 367 1908 374C1914 381 1908 395 1914 404C1925 422 1947 438 1957 458C1962 470 1962 487 1965 500C1972 544 1972 600 1958 642C1950 664 1927 681 1914 698C1908 707 1914 721 1908 728C1902 735 1885 730 1878 735C1860 747 1845 767 1825 777C1811 785 1787 784 1771 787C1757 790 1741 798 1727 800C1714 800 1704 784 1691 781C1674 778 1654 785 1638 780C1615 772 1600 745 1580 734C1571 728 1558 735 1552 730C1545 724 1551 707 1545 698C1532 681 1512 665 1504 647C1498 634 1498 617 1495 602C1488 557 1487 502 1504 458C1511 438 1532 422 1545 405C1552 395 1545 381 1551 374C1557 367 1574 372 1582 367C1601 355 1615 334 1635 325C1658 314 1692 315 1717 311M332 362C337 358 351 361 357 361L425 361L500 361C507 361 522 358 527 362C532 367 530 380 530 385L530 454L530 732L530 1874L530 2151C530 2194 525 2242 558 2277C581 2300 620 2301 650 2301L817 2301L1528 2301L1814 2301L1894 2301C1902 2301 1918 2298 1927 2302C1934 2305 1930 2330 1930 2337L1930 2427C1930 2434 1932 2452 1928 2458C1922 2465 1892 2461 1884 2461L1751 2461L1207 2461L558 2461L391 2461L348 2461C344 2461 335 2462 332 2460C327 2455 330 2437 330 2431L330 2348L330 2008L330 767L330 462L330 388C330 382 327 367 332 362M774 472C791 465 821 471 840 471L971 471C987 471 1012 467 1028 472C1035 475 1041 482 1047 488C1054 495 1065 502 1068 512C1075 531 1055 561 1040 570C1034 572 1024 571 1018 571L970 571L817 571C800 571 770 577 752 570C747 568 745 561 742 557C735 544 724 518 731 504C737 494 762 477 774 472M1632 882C1640 877 1667 887 1675 888C1711 894 1748 894 1784 890C1792 888 1820 877 1827 882C1832 887 1830 907 1830 914C1830 942 1832 972 1828 1001C1828 1008 1831 1024 1824 1028C1818 1032 1805 1024 1800 1021C1778 1011 1755 995 1732 990C1725 988 1715 995 1708 998C1692 1005 1675 1014 1660 1021C1654 1024 1645 1030 1638 1028C1630 1028 1631 1004 1631 997C1630 968 1630 940 1630 911C1630 905 1627 887 1632 882M761 902C770 898 784 901 794 901L870 901L1062 901C1092 901 1127 897 1157 901C1167 902 1195 915 1198 925C1202 934 1200 947 1200 955C1200 965 1202 978 1194 984C1162 1007 1124 1001 1087 1001L865 1001L794 1001C784 1001 770 1004 761 1000C755 998 751 991 747 987C741 981 734 977 731 970C721 944 738 914 761 902M761 1312C782 1301 801 1317 815 1330C820 1334 827 1338 828 1344C838 1368 821 1398 800 1410C777 1422 740 1402 731 1380C721 1354 738 1324 761 1312M984 1312C991 1310 1002 1311 1010 1311L1067 1311L1275 1311L1838 1311L2014 1311C2038 1311 2071 1305 2095 1311C2102 1314 2107 1321 2112 1327C2117 1331 2125 1337 2128 1342C2141 1368 2120 1392 2102 1408C2097 1412 2088 1411 2081 1411L2030 1411L1830 1411L1250 1411L1070 1411C1044 1411 1010 1417 985 1411C960 1404 960 1377 960 1357C960 1350 958 1341 961 1335C965 1328 977 1317 984 1312M774 1522C782 1520 795 1521 804 1521L870 1521L1092 1521L1860 1521L2015 1521C2037 1521 2065 1515 2085 1522C2098 1525 2110 1540 2120 1548C2124 1551 2130 1554 2132 1560C2134 1564 2131 1570 2130 1574C2125 1584 2122 1607 2114 1614C2110 1620 2098 1617 2092 1617L2034 1617C1957 1617 1877 1614 1800 1617C1701 1621 1601 1618 1501 1618C1352 1618 1204 1620 1055 1620C984 1620 912 1621 841 1621L780 1621C771 1621 760 1624 752 1620C747 1618 745 1611 742 1607C735 1594 724 1568 731 1554C737 1544 762 1527 774 1522M747 1747C755 1741 781 1745 791 1745L910 1745L1364 1745L1435 1745C1442 1745 1457 1742 1464 1747C1470 1751 1471 1765 1474 1772C1477 1782 1488 1798 1480 1808C1470 1818 1450 1837 1437 1840C1424 1844 1405 1841 1392 1841L1295 1841L941 1841L828 1841C811 1841 791 1844 774 1841C761 1838 748 1822 738 1814C734 1811 728 1808 727 1802C725 1792 734 1780 737 1771C738 1765 740 1751 747 1747M761 1952C774 1947 798 1951 812 1951L940 1951L1287 1951L1394 1951C1410 1951 1430 1948 1445 1951C1452 1954 1457 1961 1462 1967C1467 1971 1475 1977 1478 1982C1491 2007 1470 2035 1451 2048C1441 2055 1417 2051 1405 2051L1285 2051L917 2051L808 2051C795 2051 774 2055 761 2050C755 2048 751 2041 747 2037C741 2031 734 2027 731 2020C721 1994 738 1964 761 1952">
			</path>
		</g>
	</g>
</svg>