<svg class="img-fluid" id="outputsvg" xmlns="http://www.w3.org/2000/svg" width="256" height="256"
	viewBox="0 0 2560 2560">
	<g id="l1fvbzH1sdPwyxAlPAz6Pii" fill="rgb(0,0,0)" style="transform: none;">
		<g>
			<path id="p0EWBBowR"
				d="M303 2549 l-33 -10 -17 -26 -18 -27 -3 -1054 -2 -1054 10 -39 11 -39 26 -18 27 -17 112 -4 112 -3 4 -93 4 -92 17 -26 17 -26 39 -11 40 -10 803 2 804 3 26 17 27 18 10 37 11 38 0 1035 0 1035 -11 38 -10 37 -27 18 -26 17 -112 4 -112 3 -4 93 -4 92 -17 26 -17 26 -37 10 -38 11 -790 -1 -790 -1 -32 -9z">
			</path>
		</g>
	</g>
	<g id="l1Iw93Q8hwW8fLDkKe0VGJ5" fill="rgb(255,90,88)" style="transform: none;">
		<g>
			<path id="p15cNQkDdp"
				d="M1630 954 l0 -76 33 7 c17 4 48 7 67 7 19 0 50 -3 68 -7 l32 -7 0 76 c0 42 -2 76 -5 76 -2 0 -25 -10 -50 -22 l-45 -22 -45 22 c-25 12 -48 22 -50 22 -3 0 -5 -34 -5 -76z">
			</path>
		</g>
	</g>
	<g id="lrZ6rs1zkB42q5dcOqRWkI" fill="rgb(255,193,68)" style="transform: none;">
		<g>
			<path id="p7Gj62TTg"
				d="M1710 790 l-15 -10 -29 0 -28 0 -30 -25 -30 -25 -14 0 -14 0 0 -14 0 -14 -24 -29 -23 -28 -7 -40 c-4 -22 -6 -47 -6 -55 0 -8 2 -33 6 -55 l7 -40 23 -28 24 -29 0 -14 0 -14 14 0 14 0 29 -24 28 -23 40 -7 c50 -8 60 -8 110 0 l40 7 28 23 29 24 14 0 14 0 0 14 0 14 24 29 23 28 7 40 c4 22 6 47 6 55 0 8 -2 33 -6 55 l-7 40 -23 28 -24 29 0 14 0 14 -14 0 -14 0 -29 24 -28 23 -35 5 c-19 3 -42 8 -50 11 l-15 7 -15 -10z">
			</path>
		</g>
	</g>
	<g id="l5PrZrfKiipQbv3WvhnlFMl" fill="rgb(197,211,222)" style="transform: none;">
		<g>
			<path id="p8uVwEkon"
				d="M330 1410 l0 -1050 100 0 100 0 0 930 0 931 14 28 15 27 26 12 26 12 659 0 660 0 0 80 0 80 -800 0 -800 0 0 -1050z">
			</path>
		</g>
	</g>
	<g id="l4WJrv3NhcO1sYQsRLIJ1uo" fill="rgb(255,255,255)" style="transform: none;">
		<g>
			<path id="pEhCkA08a"
				d="M630 1150 l0 -1050 800 0 800 0 0 1050 0 1050 -800 0 -800 0 0 -1050z m834 884 l16 -15 0 -19 0 -19 -16 -15 -15 -16 -344 0 -344 0 -15 16 -16 15 0 19 0 19 16 15 15 16 344 0 344 0 15 -16z m-3 -213 l24 -19 -10 -28 -10 -29 -360 0 -360 0 -10 29 -10 28 24 19 23 19 333 0 333 0 23 -19z m664 -235 l10 -28 -24 -19 -23 -19 -657 0 -657 0 -22 16 -22 15 0 15 c0 9 5 24 10 35 l11 19 682 -2 682 -3 10 -29z m-1311 -192 l16 -15 0 -19 0 -19 -16 -15 -15 -16 -19 0 -19 0 -15 16 -16 15 0 19 0 19 16 15 15 16 19 0 19 0 15 -16z m1300 0 l16 -15 0 -19 0 -19 -16 -15 -15 -16 -558 0 -557 0 -12 12 -12 12 0 26 0 26 12 12 12 12 557 0 558 0 15 -16z m-449 -266 l65 -32 65 32 65 32 25 0 24 0 11 -19 10 -20 0 -149 0 -149 25 -11 24 -11 17 -33 c9 -18 26 -43 37 -56 l21 -22 9 -53 c5 -28 9 -68 9 -87 0 -19 -4 -59 -9 -87 l-9 -53 -21 -22 c-11 -13 -28 -38 -37 -55 l-16 -33 -33 -16 c-17 -9 -42 -26 -55 -37 l-22 -21 -53 -9 c-66 -11 -108 -11 -174 0 l-53 9 -22 21 c-13 11 -38 28 -55 37 l-33 16 -16 33 c-9 17 -26 42 -37 55 l-21 22 -9 53 c-11 66 -11 108 0 174 l9 53 21 22 c11 13 28 38 37 56 l17 33 24 11 25 11 0 149 0 149 10 20 11 19 24 0 25 0 65 -32z m-484 -138 l19 -11 0 -29 0 -29 -19 -11 -20 -10 -200 0 -200 0 -15 16 -16 15 0 19 0 19 16 15 15 16 200 0 200 0 20 -10z m-127 -436 c9 -8 16 -22 16 -30 l0 -14 -20 -20 -20 -20 -128 0 -128 0 -22 16 -22 15 0 15 c0 9 5 24 10 35 l11 19 144 0 144 0 15 -16z m127 -204 l19 -11 0 -29 0 -29 -19 -11 -20 -10 -200 0 -200 0 -15 16 -16 15 0 19 0 19 16 15 15 16 200 0 200 0 20 -10z">
			</path>
		</g>
	</g>
</svg>