<svg class="img-fluid" id="outputsvg" xmlns="http://www.w3.org/2000/svg" width="256" height="256"
	viewBox="0 0 2560 2560">
	<g id="l5Nt0eWdWE7RiFi2bCW7jWt" fill="none" stroke="rgb(0,0,0)" stroke-width="10" style="transform: none;">
		<g>
			<path id="pQARdKEcQ"
				d="M250 2530 c-18 -18 -20 -33 -20 -160 l0 -140 -57 0 c-68 0 -113 -23 -143 -72 -18 -30 -20 -51 -20 -244 0 -203 1 -212 23 -245 48 -72 8 -69 821 -69 l728 0 39 22 c70 39 79 74 79 294 0 177 -1 193 -22 234 -42 81 -33 80 -520 80 -235 0 -437 4 -450 9 -13 5 -103 77 -200 160 -190 162 -214 175 -258 131z m239 -205 c83 -71 169 -138 189 -147 33 -16 81 -18 470 -18 l433 0 24 -25 c25 -24 25 -26 25 -210 0 -193 -7 -234 -45 -249 -9 -3 -340 -6 -734 -6 -712 0 -719 0 -745 21 l-26 20 0 202 c0 192 1 202 22 224 18 19 32 23 85 23 55 0 68 4 88 25 24 23 25 29 25 160 0 130 1 136 18 123 10 -7 87 -71 171 -143z">
			</path>
			<path id="p12Xy41h5Z"
				d="M298 2029 c-21 -12 -23 -40 -6 -57 7 -7 44 -12 98 -12 54 0 91 5 98 12 18 18 14 46 -7 58 -25 13 -161 13 -183 -1z">
			</path>
			<path id="pd37RFyjW"
				d="M616 2024 c-19 -19 -20 -36 -4 -52 17 -17 809 -17 826 0 16 16 15 33 -4 52 -13 14 -65 16 -409 16 -344 0 -396 -2 -409 -16z">
			</path>
			<path id="p4DEgWyXD"
				d="M284 1856 c-3 -8 -4 -23 -2 -33 3 -17 23 -18 323 -18 300 0 320 1 323 18 9 45 -2 47 -330 47 -259 0 -310 -2 -314 -14z">
			</path>
			<path id="p7KF9a6ox"
				d="M1039 1854 c-9 -11 -10 -20 -2 -32 9 -15 34 -17 203 -17 169 0 194 2 203 17 8 12 7 21 -2 32 -20 24 -382 24 -402 0z">
			</path>
			<path id="pdFhYWzWu"
				d="M2238 1752 c-9 -4 -96 -74 -193 -157 -97 -82 -184 -153 -193 -157 -10 -4 -106 -7 -214 -7 -189 -1 -197 -2 -203 -21 -4 -12 -1 -28 6 -36 11 -13 44 -15 219 -12 244 4 205 -13 438 187 84 72 155 131 157 131 3 0 5 -60 5 -134 0 -171 3 -176 114 -185 60 -5 81 -11 92 -26 11 -15 14 -64 14 -221 l0 -203 -26 -20 c-26 -21 -34 -21 -740 -21 -501 0 -720 3 -737 11 -41 19 -47 48 -47 243 0 170 1 185 21 210 l20 26 163 0 c180 0 209 8 187 48 -11 21 -17 22 -185 22 -163 0 -175 -1 -206 -22 -66 -45 -71 -68 -68 -300 3 -227 5 -232 72 -282 27 -21 36 -21 774 -21 l747 0 33 23 c60 44 63 59 60 302 -3 217 -3 219 -28 245 -38 41 -73 55 -135 55 l-55 0 0 139 c0 118 -3 142 -17 159 -21 24 -51 33 -75 24z">
			</path>
			<path id="pKuVp5Nl5"
				d="M1136 1224 c-9 -8 -16 -19 -16 -24 0 -5 7 -16 16 -24 14 -14 44 -16 216 -14 179 3 202 5 212 21 8 12 8 22 0 35 -10 15 -33 17 -212 20 -172 2 -202 0 -216 -14z">
			</path>
			<path id="pCYnD3gPi"
				d="M1682 1228 c-18 -18 -14 -46 8 -58 12 -7 118 -9 301 -8 256 3 283 5 293 21 8 12 8 22 0 35 -10 15 -38 17 -300 20 -217 2 -293 -1 -302 -10z">
			</path>
			<path id="pMcofsRGe"
				d="M1129 1054 c-9 -11 -10 -20 -2 -32 9 -16 59 -17 584 -17 l574 0 0 30 0 30 -571 3 c-512 2 -573 1 -585 -14z">
			</path>
			<path id="p1D9U3PJEJ"
				d="M255 935 c-24 -23 -25 -29 -25 -158 l0 -134 -60 -6 c-68 -6 -117 -32 -142 -75 -16 -26 -18 -58 -18 -237 0 -234 6 -258 69 -297 l36 -23 735 0 c717 0 736 0 769 20 73 43 76 53 79 280 4 231 -1 254 -64 301 l-37 29 -452 5 -452 5 -60 53 c-63 54 -83 61 -102 38 -16 -20 -6 -39 47 -83 101 -85 53 -77 555 -83 l449 -5 24 -28 c24 -28 24 -32 24 -217 0 -185 0 -189 -24 -217 l-24 -28 -699 -3 c-384 -2 -713 0 -731 3 -18 3 -42 15 -53 26 -18 18 -19 34 -19 218 0 245 -2 241 114 250 106 9 106 10 106 184 l0 139 39 -35 c65 -59 89 -71 106 -57 25 21 17 44 -32 85 -98 84 -119 90 -158 50z">
			</path>
			<path id="p18JFt21Rq"
				d="M280 425 c-6 -8 -10 -22 -8 -32 3 -17 33 -18 577 -18 525 0 575 1 584 17 8 12 7 21 -2 32 -12 14 -75 16 -576 16 -480 0 -564 -2 -575 -15z">
			</path>
			<path id="pTHtmMdlk"
				d="M288 269 c-21 -12 -23 -40 -6 -57 17 -17 749 -17 766 0 18 18 14 46 -7 58 -26 14 -729 13 -753 -1z"></path>
			<path id="paxESwMI8"
				d="M1180 262 c-19 -16 -21 -22 -11 -40 11 -21 19 -22 130 -22 126 0 149 8 136 48 -8 26 -32 32 -141 32 -74 0 -96 -4 -114 -18z">
			</path>
		</g>
	</g>
	<g id="l640qzKPRBRSidsC8q0KAJn" fill="none" stroke="rgb(217,177,238)" stroke-width="10" style="transform: none;">
		<g>
			<path id="pwYO9mZse"
				d="M300 2310 c0 -94 -2 -103 -25 -125 -20 -21 -33 -25 -88 -25 -53 0 -67 -4 -85 -23 -21 -22 -22 -32 -22 -224 l0 -202 26 -20 c26 -21 34 -21 725 -21 680 0 699 1 709 19 15 28 13 396 -2 437 l-12 33 -415 3 c-327 2 -422 6 -446 17 -16 7 -43 15 -59 16 -33 3 -60 22 -187 132 -53 46 -102 83 -108 83 -7 0 -11 -33 -11 -100z m181 -280 c21 -12 25 -40 7 -58 -7 -7 -44 -12 -98 -12 -54 0 -91 5 -98 12 -17 17 -15 45 6 57 22 14 158 14 183 1z m953 -6 c19 -19 20 -36 4 -52 -17 -17 -809 -17 -826 0 -16 16 -15 33 4 52 13 14 65 16 409 16 344 0 396 -2 409 -16z m-514 -169 c6 -8 10 -22 8 -32 -3 -17 -23 -18 -323 -18 -300 0 -320 1 -323 18 -9 47 -12 47 316 47 258 0 312 -2 322 -15z m521 -1 c9 -11 10 -20 2 -32 -9 -15 -34 -17 -203 -17 -169 0 -194 2 -203 17 -8 12 -7 21 2 32 20 24 382 24 402 0z">
			</path>
			<path id="pc1g5wXQl"
				d="M300 717 c0 -134 -4 -139 -106 -148 -116 -9 -114 -6 -114 -246 0 -108 4 -202 10 -213 21 -38 51 -40 757 -40 l683 0 10 26 c6 14 10 113 10 220 0 154 -3 201 -15 224 l-15 29 -411 1 c-362 0 -415 2 -442 17 -18 9 -46 16 -63 15 -25 -2 -51 15 -160 108 -71 60 -132 110 -136 110 -5 0 -8 -46 -8 -103z m1131 -293 c9 -11 10 -20 2 -32 -9 -16 -59 -17 -584 -17 -544 0 -574 1 -577 18 -9 48 -17 47 583 47 501 0 564 -2 576 -16z m-390 -154 c21 -12 25 -40 7 -58 -17 -17 -749 -17 -766 0 -17 17 -15 45 6 57 24 14 727 15 753 1z m366 4 c27 -7 39 -40 23 -59 -10 -12 -40 -15 -131 -15 -111 0 -119 1 -130 22 -10 18 -8 24 11 40 18 14 40 18 114 18 50 0 101 -3 113 -6z">
			</path>
		</g>
	</g>
	<g id="l459lZKmFiBPSwdxEskT774" fill="none" stroke="rgb(254,202,122)" stroke-width="10" style="transform: none;">
		<g>
			<path id="pOO1Rjbf4"
				d="M2159 1603 c-11 -24 -267 -224 -298 -233 -20 -5 -120 -10 -223 -10 -177 0 -189 1 -200 20 -18 28 -90 28 -118 0 -18 -18 -33 -20 -184 -20 l-165 0 -20 -26 c-20 -25 -21 -40 -21 -210 0 -195 6 -224 47 -243 17 -8 231 -11 719 -11 l694 0 10 26 c14 36 13 390 -2 430 -10 28 -16 32 -57 37 -29 3 -51 12 -62 26 -12 14 -19 17 -21 9 -4 -10 -12 -10 -34 -3 -29 10 -29 11 -34 109 -3 62 -9 101 -16 103 -7 2 -14 0 -15 -4z m-595 -386 c8 -12 8 -22 0 -35 -10 -15 -33 -17 -212 -20 -172 -2 -202 0 -216 14 -9 8 -16 19 -16 24 0 5 7 16 16 24 14 14 44 16 216 14 179 -3 202 -5 212 -21z m720 1 c8 -13 8 -23 0 -35 -10 -16 -37 -18 -293 -21 -289 -2 -321 1 -321 36 0 41 12 42 314 40 262 -3 290 -5 300 -20z m1 -183 l0 -30 -574 0 c-525 0 -575 1 -584 17 -8 12 -7 21 2 32 12 15 73 16 585 14 l571 -3 0 -30z">
			</path>
		</g>
	</g>
	<g id="l4TXZQTGS18PPJo5dR0pjTb" fill="none" stroke="rgb(203,151,231)" stroke-width="10" style="transform: none;">
		<g>
			<path id="pjOTncLqD"
				d="M300 2446 c0 -20 5 -36 11 -36 6 0 55 -37 108 -83 53 -46 110 -93 126 -105 33 -23 85 -39 85 -25 0 7 -262 235 -312 271 -16 12 -18 10 -18 -22z">
			</path>
			<path id="pMAF4fwem"
				d="M1536 2138 c13 -36 17 -425 4 -448 -9 -17 -8 -20 9 -20 71 0 81 31 81 255 0 184 0 186 -25 210 -13 14 -36 25 -51 25 -23 0 -25 -3 -18 -22z">
			</path>
			<path id="ptowODjbl"
				d="M300 859 c0 -22 6 -38 18 -45 9 -6 71 -57 136 -113 77 -66 127 -101 143 -101 12 0 23 3 23 7 0 5 -23 29 -51 55 -33 30 -49 53 -46 62 8 21 -59 79 -82 71 -18 -6 -51 15 -108 69 l-33 30 0 -35z">
			</path>
			<path id="pGti56k5K"
				d="M1534 542 c13 -25 16 -67 16 -226 0 -107 -4 -206 -10 -220 -9 -25 -8 -26 18 -20 15 3 37 17 50 31 21 23 22 31 22 213 0 182 -1 190 -22 214 -13 15 -38 29 -57 32 l-33 7 16 -31z">
			</path>
		</g>
	</g>
	<g id="lM76fPh2iRtxS" fill="none" stroke="rgb(254,193,101)" stroke-width="10" style="transform: none;">
		<g fill="none">
			<path
				d="M2410 880C2435 885 2465 895 2475 925C2490 955 2480 1000 2480 1030L2480 1230C2480 1260 2485 1300 2470 1330C2460 1345 2410 1380 2400 1350C2390 1310 2405 1240 2410 1195C2415 1150 2410 1110 2410 1065C2410 1005 2395 935 2410 880M2215 1405C2240 1390 2255 1415 2260 1435C2265 1490 2260 1550 2260 1605C2260 1620 2265 1655 2245 1665C2225 1680 2200 1635 2195 1615C2180 1570 2185 1500 2195 1455C2195 1440 2200 1415 2215 1405">
			</path>
		</g>
	</g>
</svg>