<?xml version="1.0" encoding="UTF-8" standalone="no"?>
<svg
   class="img-fluid"
   id="outputsvg"
   width="256"
   height="256"
   viewBox="0 0 2560 2560"
   version="1.1"
   sodipodi:docname="chat-bubbles.svg"
   inkscape:version="1.1.1 (c3084ef, 2021-09-22)"
   xmlns:inkscape="http://www.inkscape.org/namespaces/inkscape"
   xmlns:sodipodi="http://sodipodi.sourceforge.net/DTD/sodipodi-0.dtd"
   xmlns="http://www.w3.org/2000/svg"
   xmlns:svg="http://www.w3.org/2000/svg">
  <defs
     id="defs3511" />
  <sodipodi:namedview
     id="namedview3509"
     pagecolor="#505050"
     bordercolor="#eeeeee"
     borderopacity="1"
     inkscape:pageshadow="0"
     inkscape:pageopacity="0"
     inkscape:pagecheckerboard="0"
     showgrid="false"
     showguides="false"
     inkscape:zoom="1.8410774"
     inkscape:cx="109.44678"
     inkscape:cy="122.48263"
     inkscape:window-width="1280"
     inkscape:window-height="747"
     inkscape:window-x="0"
     inkscape:window-y="25"
     inkscape:window-maximized="1"
     inkscape:current-layer="outputsvg" />
  <g
     id="lzSyUTbVrgMswS2brUFbsk"
     fill="#000000"
     style="display:inline">
    <g
       id="g3484">
      <path
         id="pQm7heJFj"
         d="m 250,2530 c -18,-18 -20,-33 -20,-160 v -140 h -57 c -68,0 -113,-23 -143,-72 -18,-30 -20,-51 -20,-244 0,-203 1,-212 23,-245 48,-72 8,-69 821,-69 h 728 l 39,22 c 70,39 79,74 79,294 0,177 -1,193 -22,234 -42,81 -33,80 -520,80 -235,0 -437,4 -450,9 -13,5 -103,77 -200,160 -190,162 -214,175 -258,131 z"
         style="display:inline" />
      <path
         id="pJcxIieJb"
         d="m 2238,1752 c -9,-4 -96,-74 -193,-157 -97,-82 -184,-153 -193,-157 -10,-4 -105,-7 -213,-7 -165,-1 0,0 -161.5,-1.9702 C 1416.7463,1423.8281 1282,1430 1137,1430 c -164,0 -176,-1 -207,-22 -66,-45 -71,-68 -68,-300 3,-227 5,-232 72,-282 27,-21 36,-21 774,-21 h 747 l 33,23 c 60,44 63,59 60,302 -3,217 -3,219 -28,245 -38,41 -73,55 -135,55 h -55 v 139 c 0,118 -3,142 -17,159 -21,24 -51,33 -75,24 z"
         style="display:inline"
         sodipodi:nodetypes="cccccscccsccccscscc" />
      <path
         id="pYCsTO6V4"
         d="M 255,935 C 231,912 230,906 230,777 V 643 l -60,-6 C 102,631 53,605 28,562 12,536 10,504 10,325 10,91 16,67 79,28 L 115,5 h 735 c 717,0 736,0 769,20 73,43 76,53 79,280 4,231 14.242,250.04838 -48.758,297.04838 -16.537,10.83607 0,0 -52.242,32.95162 l -452,5 -452,5 -61,54 -74.36635,58.48594 -90.85228,78.70457 L 414,885 c -99,84 -120,90 -159,50 z"
         style="display:inline"
         sodipodi:nodetypes="cscccsccsccccccccccc" />
    </g>
  </g>
  <g
     id="l2CL4w4NXUrwLCKpT3q5TM2"
     fill="#d9b1ee"
     style="display:inline">
    <g
       id="g3489"
       style="display:inline;fill:#d9b1ee;fill-opacity:1">
      <path
         id="pcEGXpGgq"
         d="m 300,2345 c 0,-131 -1,-137 -25,-160 -20,-21 -33,-25 -88,-25 -53,0 -67,-4 -85,-23 -21,-22 -22,-32 -22,-224 v -202 c 0,0 3.808218,-20.9897 16.808218,-31.4897 C 109.80822,1669.0103 139,1670 851,1670 c 394,0 725,3 734,6 38,15 45,56 45,249 0,184 0,186 -25,210 l -24,25 h -433 c -389,0 -437,2 -470,18 -20,9 -106,76 -189,147 -84,72 -161,136 -171,143 -17,13 -18,7 -18,-123 z m 181,-315 c 21,-12 25,-40 7,-58 -7,-7 -44,-12 -98,-12 -54,0 -91,5 -98,12 -17,17 -15,45 6,57 22,14 158,14 183,1 z m 953,-6 c 19,-19 20,-36 4,-52 -17,-17 -809,-17 -826,0 -16,16 -15,33 4,52 13,14 65,16 409,16 344,0 396,-2 409,-16 z M 920,1855 c 6,-8 10,-22 8,-32 -3,-17 -23,-18 -323,-18 -300,0 -320,1 -323,18 -9,47 -12,47 316,47 258,0 312,-2 322,-15 z m 521,-1 c 9,-11 10,-20 2,-32 -9,-15 -34,-17 -203,-17 -169,0 -194,2 -203,17 -8,12 -7,21 2,32 20,24 382,24 402,0 z"
         style="display:inline;fill:#d9b1ee;fill-opacity:1;stroke-width:0.982677;stroke-miterlimit:4;stroke-dasharray:none"
         sodipodi:nodetypes="scscsczscsccscccscssscccsscscccscscccsccc" />
      <path
         id="pr1UTrziZ"
         d="M 300,754 C 300,578 300,578 194,569 78,560 80,564 80,319 80,135 81,119 99,101 110,90 134,78 152,75 170,72 499,70 883,72 l 667.5811,5.493567 54.9202,25.007723 C 1621.0479,149.83739 1630,135 1630,320 c 0,185 0,189 -24,217 l -24,28 -449,5 -450,5 -39,26 c -65,44 -120.40027,93.58212 -133.60734,107.10379 -25.45748,19.14125 -63.22509,56.93416 -76.02459,69.33517 C 419.13892,790.6407 390,810 333,864 l -33,30 z M 1431,424 c 9,-11 10,-20 2,-32 -9,-16 -59,-17 -584,-17 -544,0 -574,1 -577,18 -9,48 -17,47 583,47 501,0 564,-2 576,-16 z M 1041,270 c 21,-12 25,-40 7,-58 -17,-17 -749,-17 -766,0 -17,17 -15,45 6,57 24,14 727,15 753,1 z m 366,4 c 27,-7 39,-40 23,-59 -10,-12 -40,-15 -131,-15 -111,0 -119,1 -130,22 -10,18 -8,24 11,40 18,14 40,18 114,18 50,0 101,-3 113,-6 z"
         style="display:inline;fill:#d9b1ee;fill-opacity:1"
         sodipodi:nodetypes="scssscccssccccccccsccscsccssccccsccsc" />
    </g>
    <circle
       id="path4898"
       style="fill:#d9b1ee;stroke:#000000;stroke-width:10"
       cx="443.44437"
       cy="795.46198"
       r="0.24186961" />
    <circle
       id="path4900"
       style="fill:#d9b1ee;stroke:#000000;stroke-width:10"
       cx="443.44437"
       cy="795.46198"
       r="0.24186961" />
    <circle
       id="path4902"
       style="fill:#d9b1ee;stroke:#000000;stroke-width:10"
       cx="443.44437"
       cy="795.46198"
       r="0.24186961" />
    <circle
       id="path4904"
       style="fill:#d9b1ee;stroke:#000000;stroke-width:10"
       cx="443.44437"
       cy="795.46198"
       r="0.24186961" />
    <circle
       id="path5026"
       style="fill:#d9b1ee;stroke:#000000;stroke-width:10"
       cx="453.71155"
       cy="793.01746"
       r="0.060467884" />
  </g>
  <g
     id="l7lAxV6nmGvCGa35vEY02yi"
     fill="#feca7a"
     style="display:inline">
    <g
       id="g3493">
      <path
         id="p4kYzXy6t"
         d="m 2090,1544 c -223,-194 -186,-178 -432,-182 l -209.1878,1.8629 c -53.6803,-4.5179 -76.5317,-2.5888 -128.8122,1 -25.3961,1.7433 -33,-4.8629 -184,-4.8629 0,0 -118.0154,12.4671 -148.78167,2.1624 C 956.4521,1351.8577 951,1334 951,1334 c -20,-25 -21,-40 -21,-210 0,-195 6,-224 47,-243 17,-8 236,-11 737,-11 706,0 714,0 740,21 l 26,20 v 203 c 0,157 -3,206 -14,221 -11,15 -32,21 -92,26 -111,9 -114,14 -114,185 0,74 -3,134 -7,133 -5,0 -78,-61 -163,-135 z m -526,-326 c 8,-13 8,-23 0,-35 -10,-16 -33,-18 -212,-21 -172,-2 -202,0 -216,14 -9,8 -16,19 -16,24 0,5 7,16 16,24 14,14 44,16 216,14 179,-3 202,-5 212,-20 z m 720,0 c 8,-13 8,-23 0,-35 -10,-16 -37,-18 -293,-21 -289,-2 -321,1 -321,36 0,41 12,42 314,40 262,-3 290,-5 300,-20 z m 1,-183 v -30 h -574 c -525,0 -575,1 -584,17 -8,12 -7,21 2,32 12,15 73,16 585,14 l 571,-3 z"
         sodipodi:nodetypes="cccsszcscsccsscsccccccsccccccsccccsccccc" />
    </g>
  </g>
  <g
     id="lniFpqykFtf3bVEuIWilOa"
     fill="#cb97e7"
     style="display:inline">
    <g
       id="g3500">
      <path
         id="pjOTncLqD"
         d="m 300,2446 c 0,-20 5,-36 11,-36 6,0 55,-37 108,-83 53,-46 110,-93 126,-105 33,-23 85,-39 85,-25 0,7 -262,235 -312,271 -16,12 -18,10 -18,-22 z" />
      <path
         id="pMAF4fwem"
         d="m 1536,2138 c 13,-36 17,-425 4,-448 -9,-17 -8,-20 9,-20 71,0 81,31 81,255 0,184 -1.6791,191.0372 -17.0244,215.8768 -10.0887,22.6483 -27.7942,18.2713 -58.9756,19.1232 -24.6739,0.6741 -46.8691,10.7597 -18,-22 z"
         sodipodi:nodetypes="ccsscsc" />
      <path
         id="ptowODjbl"
         d="m 300,859 c 0,-22 6,-38 18,-45 9,-6 71,-57 136,-113 77,-66 128.25019,-94.79975 143,-101 12.41759,-5.21988 83.80654,-28.84401 83.80654,-24.84401 C 680.80654,580.15599 597,636 569,662 l -58.60734,46.10379 -80.93385,72.9253 L 333,864 300,894 Z"
         sodipodi:nodetypes="sccsscccccs" />
      <path
         id="pGti56k5K"
         d="m 1534,542 c 13,-25 16,-67 16,-226 0,-107 -3.8665,-205.73303 -9.8665,-219.733026 -0.4984,-10.393857 1.1578,-13.760861 5.2334,-17.408403 3.2121,-2.874642 9.7549,-1.447817 23.1762,-0.975189 15,3 23.9582,10.617908 36.9582,24.617908 21,23 24.4987,35.49871 24.4987,217.49871 0,182 9.8082,183.29148 -15.6642,226.29896 C 1604.3174,560.18087 1604.727,560.88191 1582,565 c -21.6648,1.25693 -33.4283,-0.44062 -64,0.49386 z"
         sodipodi:nodetypes="cscsccscccc" />
    </g>
  </g>
  <g
     id="lYvflIklde9IelF1d34Nzi"
     fill="#fec165"
     style="display:inline">
    <g
       id="g3505">
      <path
         id="p15sttoQrg"
         d="m 2215,1650 c -28,-30 -29,-32 -26,-133 2,-107 11,-127 53,-127 17,0 18,12 18,145 0,80 -4,145 -8,145 -5,0 -21,-14 -37,-30 z" />
      <path
         id="pzXK6aW6m"
         d="m 2396,1338 c 12,-34 9.9866,-359.06991 6.9025,-418.81122 -3.0841,-59.74131 0.2323,-41.46759 17.6298,-44.62237 26.7656,8.92128 17.2389,2.72668 39.7265,14.08507 0,0 19.2885,11.42375 19.7412,22.34852 1.4018,33.82817 0,205 0,205 0,191 -1,205 -20,224 -11,11 -32,20 -46,20 -23,0 -25,-3 -18,-22 z"
         sodipodi:nodetypes="czccssssc" />
    </g>
  </g>
</svg>
