<svg class="img-fluid" id="outputsvg" xmlns="http://www.w3.org/2000/svg" width="256" height="256"
	viewBox="0 0 2560 2560">
	<g id="lzSyUTbVrgMswS2brUFbsk" fill="rgb(0,0,0)" style="transform: none;">
		<g>
			<path id="pQm7heJFj"
				d="M250 2530 c-18 -18 -20 -33 -20 -160 l0 -140 -57 0 c-68 0 -113 -23 -143 -72 -18 -30 -20 -51 -20 -244 0 -203 1 -212 23 -245 48 -72 8 -69 821 -69 l728 0 39 22 c70 39 79 74 79 294 0 177 -1 193 -22 234 -42 81 -33 80 -520 80 -235 0 -437 4 -450 9 -13 5 -103 77 -200 160 -190 162 -214 175 -258 131z">
			</path>
			<path id="pJcxIieJb"
				d="M2238 1752 c-9 -4 -96 -74 -193 -157 -97 -82 -184 -153 -193 -157 -10 -4 -105 -7 -213 -7 -165 -1 -198 -3 -203 -16 -4 -11 -21 -15 -60 -15 -39 0 -55 4 -60 15 -4 13 -34 15 -179 15 -164 0 -176 -1 -207 -22 -66 -45 -71 -68 -68 -300 3 -227 5 -232 72 -282 27 -21 36 -21 774 -21 l747 0 33 23 c60 44 63 59 60 302 -3 217 -3 219 -28 245 -38 41 -73 55 -135 55 l-55 0 0 139 c0 118 -3 142 -17 159 -21 24 -51 33 -75 24z">
			</path>
			<path id="pYCsTO6V4"
				d="M255 935 c-24 -23 -25 -29 -25 -158 l0 -134 -60 -6 c-68 -6 -117 -32 -142 -75 -16 -26 -18 -58 -18 -237 0 -234 6 -258 69 -297 l36 -23 735 0 c717 0 736 0 769 20 73 43 76 53 79 280 4 231 -1 254 -64 301 l-37 29 -452 5 -452 5 -61 54 c-47 40 -68 52 -84 48 -29 -8 -94 48 -90 77 2 15 -12 33 -44 61 -99 84 -120 90 -159 50z">
			</path>
		</g>
	</g>
	<g id="l2CL4w4NXUrwLCKpT3q5TM2" fill="rgb(217,177,238)" style="transform: none;">
		<g>
			<path id="pcEGXpGgq"
				d="M300 2345 c0 -131 -1 -137 -25 -160 -20 -21 -33 -25 -88 -25 -53 0 -67 -4 -85 -23 -21 -22 -22 -32 -22 -224 l0 -202 26 -20 c26 -21 33 -21 745 -21 394 0 725 3 734 6 38 15 45 56 45 249 0 184 0 186 -25 210 l-24 25 -433 0 c-389 0 -437 2 -470 18 -20 9 -106 76 -189 147 -84 72 -161 136 -171 143 -17 13 -18 7 -18 -123z m181 -315 c21 -12 25 -40 7 -58 -7 -7 -44 -12 -98 -12 -54 0 -91 5 -98 12 -17 17 -15 45 6 57 22 14 158 14 183 1z m953 -6 c19 -19 20 -36 4 -52 -17 -17 -809 -17 -826 0 -16 16 -15 33 4 52 13 14 65 16 409 16 344 0 396 -2 409 -16z m-514 -169 c6 -8 10 -22 8 -32 -3 -17 -23 -18 -323 -18 -300 0 -320 1 -323 18 -9 47 -12 47 316 47 258 0 312 -2 322 -15z m521 -1 c9 -11 10 -20 2 -32 -9 -15 -34 -17 -203 -17 -169 0 -194 2 -203 17 -8 12 -7 21 2 32 20 24 382 24 402 0z">
			</path>
			<path id="pr1UTrziZ"
				d="M300 754 c0 -176 0 -176 -106 -185 -116 -9 -114 -5 -114 -250 0 -184 1 -200 19 -218 11 -11 35 -23 53 -26 18 -3 347 -5 731 -3 l699 3 24 28 c24 28 24 32 24 217 0 185 0 189 -24 217 l-24 28 -449 5 -450 5 -39 26 c-65 44 -127 107 -121 123 8 21 -59 79 -82 71 -18 -6 -51 15 -108 69 l-33 30 0 -140z m1131 -330 c9 -11 10 -20 2 -32 -9 -16 -59 -17 -584 -17 -544 0 -574 1 -577 18 -9 48 -17 47 583 47 501 0 564 -2 576 -16z m-390 -154 c21 -12 25 -40 7 -58 -17 -17 -749 -17 -766 0 -17 17 -15 45 6 57 24 14 727 15 753 1z m366 4 c27 -7 39 -40 23 -59 -10 -12 -40 -15 -131 -15 -111 0 -119 1 -130 22 -10 18 -8 24 11 40 18 14 40 18 114 18 50 0 101 -3 113 -6z">
			</path>
		</g>
	</g>
	<g id="l7lAxV6nmGvCGa35vEY02yi" fill="rgb(254,202,122)" style="transform: none;">
		<g>
			<path id="p4kYzXy6t"
				d="M2090 1544 c-223 -194 -186 -178 -432 -182 -200 -3 -207 -3 -220 17 -18 29 -90 29 -118 1 -18 -18 -33 -20 -184 -20 l-165 0 -20 -26 c-20 -25 -21 -40 -21 -210 0 -195 6 -224 47 -243 17 -8 236 -11 737 -11 706 0 714 0 740 21 l26 20 0 203 c0 157 -3 206 -14 221 -11 15 -32 21 -92 26 -111 9 -114 14 -114 185 0 74 -3 134 -7 133 -5 0 -78 -61 -163 -135z m-526 -326 c8 -13 8 -23 0 -35 -10 -16 -33 -18 -212 -21 -172 -2 -202 0 -216 14 -9 8 -16 19 -16 24 0 5 7 16 16 24 14 14 44 16 216 14 179 -3 202 -5 212 -20z m720 0 c8 -13 8 -23 0 -35 -10 -16 -37 -18 -293 -21 -289 -2 -321 1 -321 36 0 41 12 42 314 40 262 -3 290 -5 300 -20z m1 -183 l0 -30 -574 0 c-525 0 -575 1 -584 17 -8 12 -7 21 2 32 12 15 73 16 585 14 l571 -3 0 -30z">
			</path>
		</g>
	</g>
	<g id="lniFpqykFtf3bVEuIWilOa" fill="rgb(203,151,231)" style="transform: none;">
		<g>
			<path id="pjOTncLqD"
				d="M300 2446 c0 -20 5 -36 11 -36 6 0 55 -37 108 -83 53 -46 110 -93 126 -105 33 -23 85 -39 85 -25 0 7 -262 235 -312 271 -16 12 -18 10 -18 -22z">
			</path>
			<path id="pMAF4fwem"
				d="M1536 2138 c13 -36 17 -425 4 -448 -9 -17 -8 -20 9 -20 71 0 81 31 81 255 0 184 0 186 -25 210 -13 14 -36 25 -51 25 -23 0 -25 -3 -18 -22z">
			</path>
			<path id="ptowODjbl"
				d="M300 859 c0 -22 6 -38 18 -45 9 -6 71 -57 136 -113 77 -66 127 -101 143 -101 12 0 23 3 23 7 0 5 -23 29 -51 55 -33 30 -49 53 -46 62 8 21 -59 79 -82 71 -18 -6 -51 15 -108 69 l-33 30 0 -35z">
			</path>
			<path id="pGti56k5K"
				d="M1534 542 c13 -25 16 -67 16 -226 0 -107 -4 -206 -10 -220 -9 -25 -8 -26 18 -20 15 3 37 17 50 31 21 23 22 31 22 213 0 182 -1 190 -22 214 -13 15 -38 29 -57 32 l-33 7 16 -31z">
			</path>
		</g>
	</g>
	<g id="lYvflIklde9IelF1d34Nzi" fill="rgb(254,193,101)" style="transform: none;">
		<g>
			<path id="p15sttoQrg"
				d="M2215 1650 c-28 -30 -29 -32 -26 -133 2 -107 11 -127 53 -127 17 0 18 12 18 145 0 80 -4 145 -8 145 -5 0 -21 -14 -37 -30z">
			</path>
			<path id="pzXK6aW6m"
				d="M2396 1338 c12 -34 16 -407 5 -440 -9 -24 -7 -28 8 -28 10 0 30 9 45 21 l26 20 0 205 c0 191 -1 205 -20 224 -11 11 -32 20 -46 20 -23 0 -25 -3 -18 -22z">
			</path>
		</g>
	</g>
</svg>