<svg class="img-fluid" id="outputsvg" xmlns="http://www.w3.org/2000/svg" width="256" height="256"
	viewBox="0 0 2560 2560">
	<g id="l1sauy39sqdXatnUaeWyLzK" fill="rgb(0,0,0)" style="transform: none;">
		<g>
			<path id="p14SJ2socy"
				d="M123 2550 c-84 -20 -114 -67 -120 -190 -6 -111 4 -138 56 -146 40 -6 40 -6 43 -823 3 -800 3 -817 23 -851 39 -65 69 -74 257 -80 167 -5 167 -5 207 -86 67 -133 193 -255 325 -313 82 -36 164 -52 260 -52 101 0 160 10 251 45 33 13 84 27 113 30 187 23 361 145 442 310 32 64 32 64 198 68 188 3 218 13 257 78 20 34 20 51 23 851 3 817 3 817 43 823 52 8 62 34 56 148 -5 100 -24 141 -77 173 -35 20 -48 20 -1180 22 -630 0 -1160 -2 -1177 -7z m2289 -137 c10 -9 18 -29 18 -45 0 -28 0 -28 -395 -28 -250 0 -395 4 -395 10 0 5 -13 16 -30 25 -24 12 -80 15 -330 15 -250 0 -306 -3 -330 -15 -17 -9 -30 -20 -30 -25 0 -6 -145 -10 -395 -10 -395 0 -395 0 -395 27 0 14 7 35 17 45 15 17 64 18 1131 18 1024 0 1117 -1 1134 -17z m-912 -192 c0 -5 7 -17 16 -25 13 -14 65 -16 415 -16 392 0 399 0 399 -20 0 -20 -7 -20 -1050 -20 -1043 0 -1050 0 -1050 20 0 20 7 20 399 20 350 0 402 2 415 16 9 8 16 20 16 25 0 5 91 9 220 9 129 0 220 -4 220 -9z m-965 -288 c10 -27 23 -58 31 -69 11 -19 10 -24 -13 -45 -14 -13 -36 -46 -50 -74 -24 -47 -25 -54 -20 -185 3 -81 13 -175 26 -235 12 -55 24 -132 28 -172 5 -67 4 -74 -20 -103 -34 -39 -41 -82 -33 -181 7 -79 7 -79 -123 -79 -131 0 -131 0 -131 595 0 595 0 595 144 595 143 0 143 0 161 -47z m255 5 c0 -24 3 -54 6 -68 5 -25 5 -24 -18 4 -13 17 -33 47 -46 68 -23 38 -23 38 17 38 41 0 41 0 41 -42z m567 -3 c10 -45 10 -45 -77 -45 -87 0 -87 0 -77 45 10 45 10 45 77 45 67 0 67 0 77 -45z m471 7 c-13 -21 -33 -51 -46 -68 -23 -28 -23 -29 -18 -4 3 14 6 44 6 68 0 42 0 42 41 42 40 0 40 0 17 -38z m502 -557 c0 -596 0 -596 -132 -593 -151 3 -135 -11 -122 105 8 70 -2 116 -33 153 -24 29 -25 36 -20 103 4 40 16 117 28 172 17 74 22 136 23 240 1 128 -1 144 -22 185 -13 25 -35 57 -49 71 -13 15 -20 29 -15 33 5 3 20 33 32 66 22 60 22 60 166 60 144 0 144 0 144 -595z m-1334 421 c-13 -53 -26 -100 -30 -103 -3 -3 -6 35 -6 85 0 89 1 92 28 106 15 8 28 13 29 12 2 -1 -8 -46 -21 -100z m604 -19 c-1 -103 -9 -100 -35 13 -9 41 -19 83 -22 93 -5 17 -3 18 26 2 31 -16 31 -16 31 -108z m-184 -99 c10 -43 10 -43 -136 -43 -146 0 -146 0 -136 43 9 42 9 42 136 42 127 0 127 0 136 -42z m-661 -59 c33 -27 77 -60 97 -71 37 -21 37 -21 -6 -57 -49 -41 -90 -88 -128 -144 -31 -46 -30 -50 -58 115 -20 117 -17 157 13 196 14 18 18 16 82 -39z m1132 39 c30 -39 33 -79 13 -196 -28 -165 -27 -161 -58 -115 -37 56 -79 103 -127 144 -43 35 -43 35 2 64 25 15 68 48 96 72 56 47 60 49 74 31z m-463 -207 c187 -65 322 -233 355 -439 7 -46 6 -49 -10 -39 -10 6 -19 29 -23 58 -8 57 -40 106 -86 130 -28 15 -57 19 -148 19 -127 0 -164 -11 -205 -59 -27 -33 -27 -33 -54 0 -41 48 -78 59 -205 59 -91 0 -120 -4 -148 -19 -46 -24 -78 -73 -86 -130 -4 -29 -13 -52 -24 -59 -16 -10 -17 -7 -4 56 27 140 69 217 168 309 138 129 307 170 470 114z m-310 -447 c35 -34 20 -44 -64 -44 -44 0 -80 3 -80 8 0 4 7 18 16 30 12 18 25 22 64 22 31 0 54 -6 64 -16z m460 -6 c9 -12 16 -26 16 -30 0 -5 -36 -8 -80 -8 -63 0 -80 3 -80 14 0 29 30 46 80 46 39 0 52 -4 64 -22z m-860 -77 c-28 -22 -42 -27 -52 -19 -18 15 2 36 41 41 18 2 36 5 41 5 5 1 -8 -11 -30 -27z m1184 4 c11 -10 11 -14 0 -23 -10 -8 -23 -3 -52 18 -38 29 -38 29 0 23 22 -3 45 -11 52 -18z m-590 -97 c23 -22 32 -23 204 -25 98 0 181 -3 184 -5 2 -3 -24 -10 -59 -16 -44 -8 -79 -23 -120 -52 -58 -40 -58 -40 -108 -5 -83 57 -127 65 -352 65 -110 0 -198 3 -194 6 3 3 87 7 186 7 173 2 181 3 203 25 12 12 25 22 27 22 3 0 15 -10 29 -22z m-610 -120 c7 -7 12 -19 12 -27 0 -8 7 -23 17 -33 15 -16 36 -18 248 -18 229 0 232 0 283 -26 46 -23 101 -78 90 -89 -2 -3 -20 0 -39 5 -50 15 -292 13 -307 -2 -7 -7 -12 -36 -12 -64 0 -77 11 -84 128 -84 81 0 105 -4 147 -24 28 -13 58 -32 67 -42 19 -21 57 -102 58 -121 0 -13 -100 -47 -171 -58 -67 -10 -164 11 -259 57 -185 89 -309 279 -310 476 0 53 3 62 18 62 10 0 23 -5 30 -12z m1206 -4 c8 -20 8 -69 0 -128 -7 -46 -7 -46 -124 -46 -74 0 -135 -5 -165 -15 -27 -8 -51 -12 -54 -10 -9 10 57 79 94 99 22 11 66 22 99 24 63 4 96 22 96 52 0 34 43 54 54 24z m-1416 -106 c3 -16 -7 -18 -112 -18 -91 0 -118 3 -130 16 -9 8 -16 17 -16 20 0 3 57 3 127 2 112 -3 128 -5 131 -20z m1842 18 c0 -3 -7 -12 -16 -20 -12 -13 -39 -16 -129 -16 -108 0 -113 1 -108 20 5 19 14 20 129 20 68 0 124 -2 124 -4z m-568 -295 c-64 -58 -202 -129 -202 -104 0 5 13 30 29 55 36 57 113 98 180 98 46 -1 46 -1 -7 -49z">
			</path>
			<path id="p10TC5iXzY"
				d="M1177 1396 c-65 -24 -87 -52 -87 -111 0 -28 5 -56 12 -63 21 -21 115 -15 148 10 30 22 30 22 60 0 21 -16 43 -22 83 -22 68 0 79 12 75 81 -3 50 -6 55 -45 83 -38 26 -53 30 -125 33 -55 2 -96 -2 -121 -11z">
			</path>
			<path id="pLTuHDhDJ"
				d="M777 522 c-24 -26 -23 -104 1 -125 26 -24 113 -23 135 1 24 26 23 104 -1 125 -26 24 -113 23 -135 -1z"></path>
		</g>
	</g>
	<g id="l45HvrpS8WhgBvpPt6N7G7O" fill="rgb(109,145,172)" style="transform: none;">
		<g>
			<path id="pAxqzqoeo"
				d="M117 2442 c-12 -13 -17 -37 -17 -75 0 -57 0 -57 425 -57 269 0 425 4 425 10 0 5 13 16 30 25 43 22 557 22 600 0 17 -9 30 -20 30 -25 0 -6 156 -10 425 -10 425 0 425 0 425 58 0 102 124 92 -1182 92 -1096 0 -1146 -1 -1161 -18z">
			</path>
			<path id="p1G65XDTE6"
				d="M1025 2240 c-3 -11 -17 -23 -31 -26 -35 -9 -31 -34 7 -34 37 0 59 20 59 54 0 31 -26 35 -35 6z"></path>
			<path id="po27a5WwU" d="M1500 2234 c0 -34 22 -54 59 -54 38 0 42 25 7 34 -14 3 -28 15 -31 26 -9 29 -35 25 -35 -6z">
			</path>
		</g>
	</g>
	<g id="l5sHQ98oQ3rjFOyKts1iMSP" fill="rgb(198,138,101)" style="transform: none;">
		<g>
			<path id="pNxvPL4IU"
				d="M662 1717 c-17 -18 -36 -53 -43 -78 -13 -48 -10 -76 39 -358 18 -104 18 -104 36 -58 38 99 139 226 228 284 21 14 38 29 38 33 0 4 -12 12 -27 19 -50 23 -128 80 -184 135 -57 54 -57 54 -87 23z">
			</path>
			<path id="pMfBaNL6J"
				d="M1815 1697 c-43 -43 -167 -133 -208 -151 -8 -3 -4 -11 12 -23 109 -80 178 -159 229 -264 37 -75 37 -75 54 20 47 274 52 317 39 364 -8 26 -26 58 -45 75 -31 30 -31 30 -81 -21z">
			</path>
			<path id="pNeuicW7k"
				d="M660 444 c55 -126 148 -223 274 -284 137 -66 272 -76 419 -30 67 21 67 21 67 63 0 44 -29 118 -58 151 -9 10 -39 29 -67 42 -42 20 -66 24 -147 24 -105 0 -128 10 -128 56 0 23 -3 24 -64 24 -60 0 -64 -1 -59 -20 7 -26 -23 -60 -52 -60 -29 0 -59 34 -52 60 5 19 1 20 -74 20 -78 0 -78 0 -59 -46z">
			</path>
			<path id="p6z7zNuwF"
				d="M1641 384 c-38 -19 -62 -40 -81 -71 -28 -43 -48 -118 -36 -130 10 -10 103 15 161 43 62 31 152 107 178 153 18 31 18 31 -75 31 -82 0 -101 -4 -147 -26z">
			</path>
		</g>
	</g>
	<g id="l2GsVMfYbiC2qKNDN9XUEoY" fill="rgb(132,129,226)" style="transform: none;">
		<g>
			<path id="pd4VPr58w"
				d="M1048 1988 c-2 -16 -19 -30 -60 -50 -58 -28 -58 -28 -58 -147 0 -119 0 -119 30 -131 17 -7 32 -11 34 -9 2 2 20 74 40 159 20 85 39 165 43 178 4 16 1 22 -10 22 -9 0 -17 -10 -19 -22z">
			</path>
			<path id="papIxRXqG"
				d="M1483 1988 c4 -13 23 -93 43 -178 20 -85 38 -157 40 -159 2 -2 17 2 34 9 30 12 30 12 30 131 0 119 0 119 -57 147 -42 20 -59 34 -61 50 -2 12 -10 22 -19 22 -11 0 -14 -6 -10 -22z">
			</path>
		</g>
	</g>
	<g id="lqEFnZwhUTyx78u3HymU7b" fill="rgb(138,167,189)" style="transform: none;">
		<g>
			<path id="pvVqRybYL"
				d="M1025 2238 c-10 -23 -10 -23 -417 -26 -408 -2 -408 -2 -408 -52 0 -50 0 -50 1080 -50 1080 0 1080 0 1080 50 0 50 0 50 -407 52 -408 3 -408 3 -418 26 -10 22 -10 22 -255 22 -245 0 -245 0 -255 -22z">
			</path>
			<path id="pGcIf7bno"
				d="M200 626 c0 -61 14 -66 176 -66 145 0 145 0 142 48 -3 47 -3 47 -160 50 -158 3 -158 3 -158 -32z"></path>
			<path id="p1AiKjLCn"
				d="M2046 638 c-3 -13 -6 -35 -6 -50 0 -28 0 -28 144 -28 162 0 176 5 176 66 0 34 0 34 -154 34 -151 0 -154 0 -160 -22z">
			</path>
		</g>
	</g>
	<g id="l3BB4GVEHqOYmgJS4R6H6xI" fill="rgb(209,161,132)" style="transform: none;">
		<g>
			<path id="p1BWllpbwE"
				d="M623 643 c2 -65 10 -133 17 -150 12 -33 13 -33 77 -33 58 0 67 3 85 25 11 14 30 25 43 25 13 0 32 -11 43 -25 17 -21 28 -25 74 -25 46 0 55 3 63 23 10 21 15 22 136 22 122 0 128 -1 189 -32 63 -33 63 -33 56 10 -11 68 -53 127 -115 159 -53 28 -53 28 -286 28 -212 0 -233 2 -248 18 -10 10 -17 25 -17 33 0 27 -23 39 -73 39 -49 0 -49 0 -44 -117z">
			</path>
			<path id="pNvwR3UaN"
				d="M1832 748 c-7 -7 -12 -19 -12 -28 0 -29 -34 -50 -80 -50 -130 0 -230 -95 -230 -219 0 -32 0 -32 43 -1 65 46 123 60 257 60 117 0 117 0 124 46 8 59 8 167 0 188 -7 19 -84 22 -102 4z">
			</path>
		</g>
	</g>
	<g id="l3oNibA2DAbyBncxpW6gooj" fill="rgb(255,193,68)" style="transform: none;">
		<g>
			<path id="p14Dvi241e"
				d="M1171 1958 c-6 -29 -14 -63 -17 -75 -6 -23 -6 -23 126 -23 132 0 132 0 126 23 -3 12 -11 46 -17 75 -12 52 -12 52 -109 52 -97 0 -97 0 -109 -52z">
			</path>
		</g>
	</g>
	<g id="l5HURc92iVDrBaAO3Y6Ctkn" fill="rgb(157,154,232)" style="transform: none;">
		<g>
			<path id="pdMOIujIP"
				d="M665 1988 c14 -46 68 -130 116 -181 50 -52 50 -52 46 43 -2 52 -2 101 1 108 2 8 18 22 36 33 31 19 31 19 -87 19 -118 0 -118 0 -112 -22z">
			</path>
			<path id="p145oXaqmV"
				d="M1696 1991 c18 -11 34 -25 36 -33 3 -7 3 -56 1 -108 -4 -95 -4 -95 46 -43 48 51 102 135 116 181 6 22 6 22 -112 22 -118 0 -118 0 -87 -19z">
			</path>
		</g>
	</g>
	<g id="l5jH7vGrA4NNvSKMvheCzFb" fill="rgb(176,231,247)" style="transform: none;">
		<g>
			<path id="pHVKoFVpr"
				d="M200 1385 c0 -625 0 -625 159 -625 159 0 159 0 166 39 4 22 1 56 -6 79 -15 52 -5 103 28 142 25 30 26 34 20 133 -3 56 -15 147 -27 202 -12 55 -24 147 -27 205 -5 99 -4 109 20 156 14 28 42 65 62 83 36 32 36 32 12 74 -13 23 -32 63 -42 90 -18 47 -18 47 -191 47 -174 0 -174 0 -174 -625z">
			</path>
			<path id="pbP3TnNrs"
				d="M1995 1963 c-10 -27 -29 -67 -42 -90 -24 -42 -24 -42 9 -72 18 -16 45 -51 58 -78 22 -43 25 -59 24 -158 -1 -73 -9 -144 -23 -210 -13 -55 -25 -146 -28 -202 -6 -99 -5 -103 20 -133 37 -43 44 -92 23 -154 -14 -39 -15 -57 -7 -78 11 -28 11 -28 171 -28 160 0 160 0 160 625 0 625 0 625 -174 625 -173 0 -173 0 -191 -47z">
			</path>
		</g>
	</g>
	<g id="l6AtIR77OwEQSiNirppbvuJ" fill="rgb(255,220,213)" style="transform: none;">
		<g>
			<path id="pZezilNqU"
				d="M1106 1684 c-10 -41 -16 -78 -13 -81 3 -2 46 1 96 8 74 10 108 10 182 0 50 -7 93 -10 96 -8 3 3 -3 40 -13 81 -18 76 -18 76 -174 76 -156 0 -156 0 -174 -76z">
			</path>
			<path id="p19bUofStA"
				d="M1152 1505 c-87 -25 -163 -67 -228 -128 -99 -92 -154 -195 -170 -318 -8 -57 -17 -67 -75 -77 -35 -6 -47 -14 -58 -36 -12 -25 -11 -31 6 -55 11 -14 28 -28 37 -29 10 -2 53 20 96 50 75 51 78 55 84 99 8 57 40 106 86 130 43 23 183 26 233 5 38 -15 84 -66 93 -102 8 -32 40 -32 48 0 9 36 55 87 93 102 50 21 190 18 233 -5 46 -24 78 -73 86 -130 6 -44 9 -48 84 -99 43 -30 86 -52 96 -50 9 1 26 15 37 29 17 24 18 30 6 55 -11 22 -23 30 -58 36 -54 9 -71 23 -71 59 0 45 -47 180 -80 229 -68 103 -168 183 -276 221 -78 28 -228 35 -302 14z m242 -162 c43 -30 56 -64 36 -89 -17 -20 -57 -17 -87 6 -15 12 -41 20 -63 20 -22 0 -48 -8 -63 -20 -67 -53 -134 11 -73 69 62 58 178 64 250 14z">
			</path>
			<path id="p1GpJIUfbf"
				d="M1234 882 c-31 -37 -31 -37 -161 -40 -101 -3 -137 0 -167 12 -37 15 -39 15 -71 -10 -33 -25 -34 -27 -19 -49 15 -23 18 -24 232 -27 211 -3 219 -4 274 -30 31 -14 75 -45 98 -69 41 -43 41 -43 66 -12 37 48 115 93 183 105 44 8 65 18 76 34 13 21 12 24 -20 48 -32 25 -34 25 -71 10 -30 -12 -66 -15 -167 -12 -129 3 -129 3 -162 41 -18 20 -38 37 -46 37 -8 0 -28 -17 -45 -38z">
			</path>
		</g>
	</g>
	<g id="l1teON6rqs7scJ1TuP3H9G5" fill="rgb(207,245,253)" style="transform: none;">
		<g>
			<path id="pG9wdthFt"
				d="M956 1038 c-9 -12 -16 -39 -16 -60 0 -38 0 -38 110 -38 110 0 110 0 110 44 0 65 -16 76 -110 76 -70 0 -81 -2 -94 -22z">
			</path>
			<path id="p1Fvi6lmEm"
				d="M1416 1044 c-10 -9 -16 -33 -16 -60 0 -44 0 -44 110 -44 110 0 110 0 110 38 0 21 -7 48 -16 60 -13 20 -24 22 -94 22 -58 0 -83 -4 -94 -16z">
			</path>
		</g>
	</g>
</svg>