<svg class="img-fluid" id="outputsvg" xmlns="http://www.w3.org/2000/svg" width="512" height="512"
	viewBox="0 0 5120 5120">
	<g id="l3xrJJMi7Dj9Yu2Yyylf7Bsj" fill="rgb(0,0,0)" stroke="rgb(0,0,0)" stroke-width="1" fill-rule="evenodd"
		style="transform: none;">
		<g style="transform: none;">
			<path id="pp18zCwrS"
				d="M1610 3450 L1599 3485C1592 3507 1578 3525 1559 3535 C1537 3546 1488 3550 1329 3550 C1128 3550 1128 3550 1094 3583 C1072 3605 1060 3627 1060 3644 C1060 3659 1067 3684 1076 3700 C1085 3715 1104 3733 1117 3739 C1133 3746 1392 3750 1960 3750 C2527 3750 2786 3746 2802 3739 C2815 3733 2834 3715 2843 3700 C2852 3684 2860 3662 2860 3651 C2860 3640 2854 3619 2848 3604 C2841 3590 2823 3572 2808 3564 C2787 3553 2735 3550 2585 3550 C2433 3550 2382 3546 2360 3535 C2345 3527 2327 3508 2321 3492 C2315 3477 2309 3461 2309 3457 L2310 3450L2310 3450 L2310 3444C2310 3441 2312 3427 2316 3414 C2319 3400 2332 3381 2345 3371 C2366 3355 2397 3352 2621 3347 C2761 3343 2888 3337 2905 3331 C2921 3326 2955 3316 2980 3309 C3004 3301 3049 3282 3080 3266 C3110 3250 3150 3225 3170 3211 C3189 3197 3225 3165 3250 3139 C3276 3114 3314 3067 3336 3034 C3358 3001 3384 2957 3394 2936 C3404 2914 3416 2883 3421 2866 C3426 2849 3437 2801 3445 2760 C3453 2718 3459 2664 3459 2640 C3458 2615 3454 2583 3451 2570 C3445 2549 3436 2543 3399 2539 C3375 2535 3347 2529 3338 2525 C3326 2520 3313 2530 3288 2566 C3270 2593 3242 2627 3226 2642 C3210 2658 3176 2680 3150 2692 C3123 2704 3077 2715 3038 2717 C2973 2722 2970 2723 2945 2760 C2931 2782 2920 2801 2920 2803 C2920 2805 2904 2833 2885 2865 C2865 2897 2840 2934 2827 2947 C2815 2960 2789 2978 2771 2985 C2752 2993 2712 2999 2681 2999 C2638 2999 2613 2992 2575 2971 C2547 2956 2508 2933 2487 2921 C2466 2909 2435 2891 2417 2881 C2399 2870 2328 2829 2260 2790 C2191 2750 2119 2708 2100 2697 C2080 2686 2047 2667 2026 2656 C2005 2644 1970 2620 1948 2601 C1927 2583 1902 2552 1894 2532 C1886 2513 1880 2474 1880 2446 C1880 2402 1888 2380 1931 2305 C1959 2255 1988 2204 1995 2190 C2007 2169 2006 2161 1986 2125 C1973 2103 1957 2063 1950 2037 C1943 2011 1939 1968 1942 1941 C1944 1914 1961 1863 1978 1828 C1995 1793 2021 1744 2036 1720 C2050 1695 2071 1660 2081 1642 C2091 1624 2108 1595 2118 1577 C2129 1559 2170 1488 2210 1420 C2249 1351 2290 1280 2301 1262 C2311 1244 2328 1215 2338 1197 C2349 1179 2390 1108 2430 1040 C2469 971 2511 899 2522 880 C2532 860 2558 827 2578 806 C2598 784 2639 756 2669 742 C2707 725 2743 718 2787 717 C2842 716 2853 713 2860 695 C2865 684 2883 652 2899 625 C2916 597 2937 559 2946 541 C2960 513 2961 502 2951 475 C2945 458 2940 427 2940 407 C2940 388 2945 359 2952 343 C2959 327 2996 259 3034 192 C3072 124 3116 54 3132 34 C3156 5 3168 -1 3200 -1 C3221 -1 3255 8 3274 19 C3294 30 3325 48 3345 59 C3364 70 3395 88 3415 99 C3434 110 3464 128 3482 138 C3500 149 3571 190 3640 230 C3708 269 3779 310 3797 321 C3815 331 3846 349 3867 361 C3888 372 3909 385 3915 389 C3920 393 3949 410 3980 427 C4010 443 4075 480 4125 509 C4174 537 4225 572 4237 585 C4251 602 4260 623 4260 646 C4260 673 4238 720 4177 827 C4132 907 4080 986 4063 1004 C4046 1021 4012 1042 3988 1049 C3964 1056 3939 1063 3933 1065 C3927 1067 3896 1113 3865 1168 C3808 1268 3808 1268 3832 1311 C3845 1335 3861 1373 3868 1396 C3874 1418 3879 1450 3879 1466 C3879 1482 3873 1517 3864 1544 C3856 1571 3843 1603 3836 1614 C3829 1625 3820 1642 3817 1652 C3812 1663 3824 1685 3853 1719 C3877 1747 3906 1789 3917 1812 C3928 1835 3942 1868 3948 1885 C3953 1901 3963 1944 3970 1980 C3979 2029 3979 2057 3971 2098 C3964 2130 3963 2157 3968 2168 C3973 2177 3985 2207 3995 2235 C4004 2262 4016 2300 4021 2320 C4026 2339 4036 2391 4044 2435 C4053 2480 4059 2574 4059 2650 C4059 2725 4053 2819 4044 2865 C4036 2909 4026 2960 4021 2980 C4016 2999 4004 3037 3995 3065 C3986 3092 3972 3128 3965 3145 C3958 3161 3944 3193 3934 3215 C3923 3237 3893 3290 3866 3334 C3840 3378 3799 3436 3776 3464 C3753 3492 3713 3536 3687 3562 C3661 3588 3640 3612 3640 3614 C3640 3617 3658 3643 3680 3672 C3702 3701 3733 3752 3749 3785 C3765 3818 3787 3874 3798 3910 C3809 3945 3823 4018 3829 4072 C3836 4125 3840 4202 3838 4242 C3836 4315 3836 4315 4040 4320 C4232 4324 4247 4326 4292 4349 C4318 4362 4355 4388 4373 4406 C4391 4424 4417 4461 4430 4487 C4454 4533 4455 4541 4457 4796 C4460 5057 4460 5057 4434 5088 C4408 5120 4408 5120 2560 5120 C711 5120 711 5120 685 5089 C660 5058 660 5058 660 4803 C660 4548 660 4548 686 4494 C701 4464 728 4425 746 4406 C764 4388 801 4362 827 4349 C873 4325 883 4324 1140 4320 C1405 4315 1405 4315 1407 4137 C1410 3960 1410 3960 1290 3960 C1224 3960 1147 3955 1117 3949 C1088 3943 1049 3931 1030 3923 C1012 3914 977 3889 953 3867 C929 3845 903 3813 896 3796 C888 3778 877 3752 871 3737 C865 3721 860 3680 860 3644 C860 3597 866 3566 884 3527 C897 3497 928 3455 952 3432 C977 3410 1014 3383 1035 3373 C1070 3357 1101 3355 1316 3355 C1537 3355 1559 3356 1578 3373 C1589 3383 1601 3405 1604 3421 L1610 3450M860 4759 C860 4584 867 4553 917 4530 C933 4523 1417 4520 2560 4520 C4322 4520 4221 4516 4248 4574 C4255 4591 4260 4658 4260 4760 C4260 4920 4260 4920 2560 4920 C860 4920 860 4920 860 4759 M1610 4135 C1610 3950 1610 3950 1960 3950 C2310 3950 2310 3950 2310 4135 C2310 4320 2310 4320 1960 4320 C1610 4320 1610 4320 1610 4135 M2520 4140 C2520 3960 2520 3960 2813 3960 C3101 3960 3107 3960 3140 3982 C3206 4027 3214 4048 3220 4186 C3222 4255 3223 4313 3222 4315 C3221 4318 3062 4320 2870 4320 C2520 4320 2520 4320 2520 4140 M3427 4182 C3425 4052 3423 4041 3393 3979 C3376 3943 3348 3897 3330 3877 C3301 3844 3296 3820 3319 3820 C3324 3820 3360 3801 3400 3778 C3473 3737 3473 3737 3501 3771 C3545 3823 3598 3937 3614 4015 C3623 4053 3629 4137 3629 4202 C3630 4320 3630 4320 3530 4320 C3430 4320 3430 4320 3427 4182 M3060 3661 C3060 3634 3053 3591 3045 3564 C3037 3537 3033 3512 3037 3509 C3041 3506 3076 3490 3114 3474 C3308 3394 3489 3216 3579 3017 C3634 2897 3654 2799 3655 2646 C3657 2508 3657 2508 3711 2478 C3740 2462 3779 2435 3796 2418 C3833 2382 3831 2380 3850 2503 C3877 2676 3842 2914 3764 3092 C3646 3361 3404 3586 3130 3685 C3060 3710 3060 3710 3060 3661 M2662 2788 C2652 2782 2523 2707 2375 2622 C2226 2536 2099 2462 2093 2455 C2085 2447 2095 2423 2131 2361 C2181 2278 2181 2278 2239 2311 C2595 2516 2780 2625 2780 2632 C2780 2643 2691 2800 2685 2800 C2682 2800 2672 2794 2662 2788 M2967 2501 C2520 2244 2209 2063 2188 2048 C2173 2038 2156 2014 2150 1995 C2136 1953 2129 1967 2352 1580 C2660 1046 2702 975 2728 947 C2775 896 2798 904 3075 1063 C3212 1142 3390 1243 3470 1289 C3549 1335 3627 1385 3642 1401 C3676 1436 3678 1484 3649 1533 C3629 1567 3629 1567 3572 1553 C3496 1535 3440 1536 3360 1556 C3169 1603 3020 1756 2980 1947 C2951 2090 2997 2258 3097 2370 C3140 2418 3140 2418 3118 2454 C3096 2492 3054 2520 3020 2520 C3009 2520 2985 2511 2967 2501 M3376 2326 C3252 2277 3170 2162 3170 2038 C3170 1980 3208 1891 3253 1841 C3355 1730 3510 1712 3636 1796 C3825 1923 3809 2203 3607 2305 C3548 2335 3427 2346 3376 2326 M3327 979 C3166 885 3034 807 3033 806 C3032 805 3053 765 3081 717 C3131 630 3131 630 3157 647 C3172 657 3297 730 3435 810 C3574 889 3697 962 3710 970 C3733 986 3733 986 3686 1063 C3661 1105 3635 1142 3630 1145 C3624 1147 3488 1073 3327 979 M3712 739 C3598 672 3425 572 3327 516 C3230 460 3150 412 3150 408 C3149 391 3244 239 3253 243 C3270 249 4014 681 4017 685 C4018 688 3997 728 3970 775 C3920 860 3920 860 3712 739 ">
			</path>
			<path id="p14KYcQ2oW"
				d="M1860 3450 L1860 3429C1860 3417 1873 3395 1889 3379 C1912 3356 1927 3350 1960 3350 C1992 3350 2007 3356 2030 3379 C2046 3395 2060 3415 2060 3424 C2060 3432 2060 3442 2060 3445 L2060 3450L2060 3450 L2060 3457C2060 3461 2054 3477 2048 3492 C2042 3508 2024 3527 2009 3535 C1993 3543 1971 3550 1960 3550 C1948 3550 1926 3543 1910 3535 C1895 3527 1877 3508 1871 3492 C1865 3477 1859 3461 1859 3457 L1860 3450">
			</path>
		</g>
	</g>
	<g id="l4eVphal757kUBZPQeg9s5pj" fill="rgb(108,144,171)" stroke="rgb(108,144,171)" stroke-width="1"
		fill-rule="evenodd" style="transform: none;">
		<g style="transform: none;">
			<path id="pdqcml6ZS"
				d="M860 4759 C860 4584 867 4553 917 4530 C933 4523 1417 4520 2560 4520 C4322 4520 4221 4516 4248 4574 C4255 4591 4260 4658 4260 4760 C4260 4920 4260 4920 2560 4920 C860 4920 860 4920 860 4759 ">
			</path>
			<path id="p1EWPHIjy1"
				d="M2662 2788 C2652 2782 2523 2707 2375 2622 C2226 2536 2099 2462 2093 2455 C2085 2447 2095 2423 2131 2361 C2181 2278 2181 2278 2239 2311 C2595 2516 2780 2625 2780 2632 C2780 2643 2691 2800 2685 2800 C2682 2800 2672 2794 2662 2788 ">
			</path>
			<path id="p1Do6BnOWG"
				d="M3376 2326 C3252 2277 3170 2162 3170 2038 C3170 1980 3208 1891 3253 1841 C3355 1730 3510 1712 3636 1796 C3825 1923 3809 2203 3607 2305 C3548 2335 3427 2346 3376 2326 ">
			</path>
			<path id="puACgIo1a"
				d="M3712 739 C3598 672 3425 572 3327 516 C3230 460 3150 412 3150 408 C3149 391 3244 239 3253 243 C3270 249 4014 681 4017 685 C4018 688 3997 728 3970 775 C3920 860 3920 860 3712 739 ">
			</path>
		</g>
	</g>
	<g id="l5Kq2LyZ5b7nxxetLJDtAf3j" fill="rgb(191,206,217)" stroke="rgb(191,206,217)" stroke-width="1"
		fill-rule="evenodd" style="transform: none;">
		<g style="transform: none;">
			<path id="pOsjzq7Pv"
				d="M1610 4135 C1610 3950 1610 3950 1960 3950 C2310 3950 2310 3950 2310 4135 C2310 4320 2310 4320 1960 4320 C1610 4320 1610 4320 1610 4135 ">
			</path>
			<path id="pyOcASP0a"
				d="M3060 3661 C3060 3634 3053 3591 3045 3564 C3037 3537 3033 3512 3037 3509 C3041 3506 3076 3490 3114 3474 C3308 3394 3489 3216 3579 3017 C3634 2897 3654 2799 3655 2646 C3657 2508 3657 2508 3711 2478 C3740 2462 3779 2435 3796 2418 C3833 2382 3831 2380 3850 2503 C3877 2676 3842 2914 3764 3092 C3646 3361 3404 3586 3130 3685 C3060 3710 3060 3710 3060 3661 ">
			</path>
			<path id="p1B8pEkxDH"
				d="M2967 2501 C2520 2244 2209 2063 2188 2048 C2173 2038 2156 2014 2150 1995 C2136 1953 2129 1967 2352 1580 C2660 1046 2702 975 2728 947 C2775 896 2798 904 3075 1063 C3212 1142 3390 1243 3470 1289 C3549 1335 3627 1385 3642 1401 C3676 1436 3678 1484 3649 1533 C3629 1567 3629 1567 3572 1553 C3496 1535 3440 1536 3360 1556 C3169 1603 3020 1756 2980 1947 C2951 2090 2997 2258 3097 2370 C3140 2418 3140 2418 3118 2454 C3096 2492 3054 2520 3020 2520 C3009 2520 2985 2511 2967 2501 ">
			</path>
		</g>
	</g>
	<g id="l69n8Qu33YBT9hwtEOF0kTBj" fill="rgb(149,231,246)" stroke="rgb(149,231,246)" stroke-width="1"
		fill-rule="evenodd" style="transform: none;">
		<g style="transform: none;">
			<path id="pJZl83t5v"
				d="M1610 3450 L1685 3450C1726 3450 1762 3450 1765 3450 C1767 3450 1790 3450 1815 3450 L1860 3450L1860 3450 L1859 3457C1859 3461 1865 3477 1871 3492 C1877 3508 1895 3527 1910 3535 C1926 3543 1948 3550 1960 3550 C1971 3550 1993 3543 2009 3535 C2024 3527 2042 3508 2048 3492 C2054 3477 2060 3461 2060 3457 L2060 3450L2060 3450 L2135 3450C2176 3450 2212 3450 2215 3450 C2217 3450 2240 3450 2265 3450 L2310 3450L2310 3450 L2309 3457C2309 3461 2315 3477 2321 3492 C2327 3508 2345 3527 2360 3535 C2382 3546 2433 3550 2585 3550 C2735 3550 2787 3553 2808 3564 C2823 3572 2841 3590 2848 3604 C2854 3619 2860 3640 2860 3651 C2860 3662 2852 3684 2843 3700 C2834 3715 2815 3733 2802 3739 C2786 3746 2527 3750 1960 3750 C1392 3750 1133 3746 1117 3739 C1104 3733 1085 3715 1076 3700 C1067 3684 1060 3659 1060 3644 C1060 3627 1072 3605 1094 3583 C1128 3550 1128 3550 1329 3550 C1488 3550 1537 3546 1559 3535 C1578 3525 1592 3507 1599 3485 L1610 3450">
			</path>
		</g>
	</g>
	<g id="l5zKIa6R45aoFYTpnKDD9IMj" fill="rgb(165,188,204)" stroke="rgb(165,188,204)" stroke-width="1"
		fill-rule="evenodd" style="transform: none;">
		<g style="transform: none;">
			<path id="pBZTDGIET"
				d="M3427 4182 C3425 4052 3423 4041 3393 3979 C3376 3943 3348 3897 3330 3877 C3301 3844 3296 3820 3319 3820 C3324 3820 3360 3801 3400 3778 C3473 3737 3473 3737 3501 3771 C3545 3823 3598 3937 3614 4015 C3623 4053 3629 4137 3629 4202 C3630 4320 3630 4320 3530 4320 C3430 4320 3430 4320 3427 4182 ">
			</path>
			<path id="pUxPVqO7i"
				d="M3327 979 C3166 885 3034 807 3033 806 C3032 805 3053 765 3081 717 C3131 630 3131 630 3157 647 C3172 657 3297 730 3435 810 C3574 889 3697 962 3710 970 C3733 986 3733 986 3686 1063 C3661 1105 3635 1142 3630 1145 C3624 1147 3488 1073 3327 979 ">
			</path>
		</g>
	</g>
</svg>