<svg class="img-fluid" id="outputsvg" xmlns="http://www.w3.org/2000/svg" width="512" height="512"
	viewBox="0 0 5120 5120">
	<g id="l6KYRBsmB5oMf" fill="none" stroke="rgb(0,0,0)" stroke-width="10" style="transform: none;">
		<g fill="none">
			<path
				d="M3188 1C3225 -5 3264 15 3295 34C3342 60 3388 87 3435 114C3634 227 3828 347 4030 457C4090 490 4151 522 4207 562C4228 578 4257 600 4260 628C4262 670 4241 708 4222 745C4195 801 4164 854 4132 907C4108 947 4084 990 4047 1018C4025 1035 4000 1047 3974 1055C3961 1060 3942 1061 3931 1070C3915 1080 3904 1105 3894 1121C3875 1151 3857 1182 3841 1214C3832 1231 3822 1247 3820 1265C3815 1292 3835 1318 3847 1342C3864 1377 3878 1418 3880 1457C3881 1504 3864 1554 3845 1597C3837 1618 3815 1640 3818 1665C3824 1700 3862 1730 3881 1758C3915 1807 3940 1860 3957 1915C3971 1960 3980 2011 3977 2057C3974 2091 3960 2128 3967 2162C3970 2178 3980 2195 3987 2211C3998 2242 4008 2275 4018 2308C4045 2405 4058 2510 4060 2611C4061 2711 4055 2810 4037 2908C4010 3058 3951 3202 3871 3331C3827 3402 3775 3468 3720 3531C3702 3550 3684 3568 3667 3585C3660 3592 3645 3604 3642 3614C3640 3627 3661 3648 3668 3658C3695 3694 3721 3732 3741 3772C3791 3874 3822 3984 3834 4097C3838 4140 3840 4184 3840 4227C3840 4247 3834 4274 3844 4292C3851 4307 3868 4311 3882 4312C3917 4318 3952 4320 3987 4320C4031 4320 4075 4322 4120 4324C4164 4325 4211 4324 4255 4335C4284 4344 4310 4358 4334 4375C4384 4412 4432 4470 4447 4531C4458 4577 4454 4625 4455 4672C4458 4750 4458 4828 4458 4905C4458 4952 4464 5004 4455 5051C4451 5072 4437 5095 4415 5104C4380 5115 4337 5112 4300 5114C4290 5114 4281 5118 4271 5120C4218 5124 4164 5120 4111 5120L3522 5120L1541 5120L885 5120C862 5120 842 5115 821 5114C771 5111 692 5124 670 5067C660 5040 661 5007 661 4978C661 4935 660 4892 660 4850C660 4778 658 4707 661 4635C662 4601 661 4567 671 4532C688 4471 735 4412 787 4375C811 4358 838 4342 867 4335C920 4321 978 4325 1032 4324C1107 4322 1181 4318 1255 4318C1297 4318 1358 4317 1385 4281C1398 4265 1402 4241 1405 4221C1411 4162 1412 4098 1407 4040C1405 4017 1405 3992 1387 3975C1362 3954 1312 3961 1282 3961C1211 3961 1138 3960 1070 3940C910 3892 825 3711 874 3557C894 3495 935 3447 984 3407C1034 3365 1092 3361 1155 3358C1235 3355 1315 3357 1395 3357C1447 3357 1505 3351 1555 3364C1602 3375 1617 3444 1602 3484C1598 3498 1590 3514 1578 3525C1552 3548 1511 3547 1480 3548C1374 3555 1267 3547 1161 3554C1117 3557 1070 3592 1061 3638C1058 3655 1064 3674 1071 3690C1080 3710 1095 3732 1117 3740C1137 3747 1161 3742 1181 3744C1225 3748 1271 3747 1317 3747C1365 3747 1414 3750 1462 3750L2435 3750C2522 3750 2610 3745 2697 3745C2724 3745 2751 3745 2778 3742C2790 3741 2800 3742 2810 3737C2864 3702 2875 3628 2830 3582C2821 3574 2811 3565 2800 3562C2762 3550 2718 3554 2680 3552C2607 3551 2532 3550 2460 3550C2415 3550 2347 3550 2325 3502C2320 3488 2312 3472 2312 3457C2312 3427 2320 3391 2347 3372C2368 3357 2398 3357 2422 3355C2478 3350 2535 3351 2592 3348C2664 3345 2737 3347 2808 3341C2840 3340 2874 3341 2905 3334C3108 3282 3292 3147 3385 2955C3432 2857 3454 2750 3458 2641C3460 2617 3461 2568 3438 2552C3421 2540 3394 2540 3372 2537C3358 2534 3335 2522 3322 2530C3298 2544 3282 2578 3265 2600C3238 2635 3202 2667 3162 2688C3124 2708 3081 2715 3038 2720C3014 2721 2984 2718 2965 2737C2942 2760 2928 2791 2914 2820C2880 2882 2838 2960 2768 2988C2728 3004 2670 3008 2628 2997C2592 2987 2561 2965 2530 2948C2395 2874 2262 2794 2130 2715C2054 2672 1968 2635 1914 2565C1900 2547 1891 2525 1887 2502C1880 2468 1877 2434 1885 2400C1898 2350 1932 2304 1957 2260C1967 2242 1977 2225 1987 2208C1992 2198 2001 2185 2002 2174C2005 2145 1975 2110 1964 2084C1944 2035 1937 1984 1945 1931C1961 1850 2004 1775 2045 1705C2084 1641 2120 1575 2158 1511C2244 1361 2331 1212 2418 1062C2464 982 2504 892 2564 822C2611 768 2677 737 2747 722C2771 717 2797 718 2821 717C2835 715 2850 715 2858 702C2881 665 2901 625 2922 587C2935 565 2954 538 2957 512C2960 491 2948 471 2944 450C2938 418 2940 390 2948 358C2955 332 2970 310 2982 287C3005 244 3030 201 3054 160C3075 125 3095 90 3118 57C3135 30 3155 7 3188 1M3252 247C3264 244 3290 264 3300 271L3431 345C3572 427 3712 507 3852 590C3891 612 3931 634 3970 658C3982 665 4008 674 4015 685C4021 694 4005 718 4001 725C3987 751 3972 778 3957 802C3948 814 3938 828 3924 832C3904 840 3877 830 3858 820C3815 800 3775 775 3734 752C3595 672 3457 594 3318 512C3280 491 3240 468 3201 444C3187 435 3162 425 3154 412C3147 402 3162 380 3168 371C3185 338 3205 307 3227 277C3232 268 3241 250 3252 247M3137 641C3150 640 3167 655 3177 661C3211 681 3244 701 3278 721C3382 782 3487 841 3591 902C3620 918 3648 935 3677 952C3691 960 3711 968 3721 981C3731 992 3721 1010 3714 1020C3697 1051 3678 1082 3660 1114C3654 1122 3644 1144 3632 1147C3621 1148 3604 1134 3594 1128C3560 1111 3525 1091 3491 1071C3382 1012 3275 948 3168 887C3137 870 3105 851 3074 832C3064 825 3044 820 3037 810C3030 800 3050 775 3054 767C3072 735 3090 702 3108 671C3115 661 3124 642 3137 641M2772 921C2798 918 2830 932 2852 944C2902 968 2952 994 3001 1022C3185 1128 3374 1230 3554 1341C3610 1377 3688 1418 3667 1497C3662 1511 3654 1527 3647 1540C3628 1572 3598 1562 3567 1554C3508 1540 3447 1541 3387 1551C3231 1580 3105 1681 3030 1817C2952 1957 2955 2130 3030 2270C3048 2305 3068 2337 3094 2368C3105 2384 3128 2400 3132 2420C3134 2431 3125 2444 3120 2454C3104 2482 3072 2512 3038 2520C3010 2524 2985 2511 2961 2498C2918 2475 2877 2450 2834 2425C2662 2328 2492 2231 2322 2130C2292 2112 2262 2095 2232 2077C2192 2054 2145 2025 2144 1974C2144 1951 2157 1930 2167 1910C2187 1868 2211 1828 2234 1788C2315 1645 2397 1502 2480 1361C2545 1250 2605 1137 2674 1028C2697 991 2725 930 2772 921M3451 1745C3490 1741 3532 1750 3568 1764C3682 1807 3764 1910 3770 2032C3777 2181 3661 2314 3515 2335C3472 2341 3424 2344 3382 2330C3265 2292 3167 2168 3170 2042C3171 1950 3230 1851 3304 1800C3348 1768 3398 1752 3451 1745M2190 2294C2207 2292 2224 2305 2238 2314C2272 2332 2307 2351 2340 2371C2442 2432 2547 2490 2648 2551C2678 2568 2708 2585 2737 2604C2748 2611 2765 2620 2775 2630C2782 2640 2768 2657 2764 2665C2747 2700 2728 2732 2708 2765C2704 2772 2694 2798 2685 2798C2674 2800 2655 2784 2645 2780C2610 2760 2575 2740 2540 2718C2435 2658 2331 2600 2228 2538C2198 2520 2167 2502 2137 2484C2124 2477 2104 2470 2095 2457C2085 2445 2098 2424 2104 2412C2120 2381 2138 2350 2158 2321C2165 2310 2175 2295 2190 2294M3820 2401C3831 2397 3835 2415 3837 2422C3844 2451 3848 2481 3852 2510C3868 2627 3861 2751 3835 2865C3815 2957 3788 3047 3747 3131C3660 3311 3517 3465 3351 3577C3291 3617 3227 3651 3160 3675C3134 3685 3105 3700 3077 3702C3061 3704 3060 3685 3060 3674C3060 3632 3051 3594 3042 3554C3040 3544 3031 3520 3040 3511C3057 3495 3090 3487 3110 3478C3148 3462 3187 3442 3222 3421C3351 3341 3468 3225 3542 3091C3592 2998 3632 2900 3647 2794C3655 2730 3654 2664 3657 2600C3658 2572 3654 2537 3668 2512C3678 2497 3695 2490 3711 2481C3730 2470 3747 2458 3764 2447C3777 2437 3788 2428 3800 2418C3805 2412 3811 2404 3820 2401M1952 3351C2014 3344 2065 3402 2060 3461C2054 3508 2012 3544 1968 3550C1917 3555 1862 3511 1860 3458C1857 3402 1900 3360 1952 3351M1610 3464C1637 3450 1670 3451 1700 3451C1751 3451 1808 3444 1857 3461M2062 3461C2094 3450 2127 3451 2160 3451C2198 3451 2237 3448 2275 3452C2288 3454 2298 3460 2311 3462M3467 3750C3481 3747 3492 3761 3500 3771C3521 3797 3538 3824 3552 3854C3580 3907 3604 3961 3615 4020C3628 4078 3630 4141 3630 4201C3630 4238 3642 4311 3591 4320C3560 4324 3525 4321 3492 4321C3477 4321 3458 4320 3447 4308C3427 4288 3432 4248 3430 4222C3422 4150 3434 4075 3405 4007C3387 3962 3362 3921 3334 3882C3324 3870 3301 3848 3307 3830C3310 3820 3337 3814 3345 3810C3372 3797 3398 3782 3424 3768C3437 3761 3451 3751 3467 3750M1824 3951C1862 3947 1905 3951 1944 3951C2012 3951 2081 3950 2148 3954C2190 3957 2244 3955 2278 3982C2312 4010 2310 4062 2310 4101C2310 4138 2311 4174 2308 4211C2307 4238 2302 4268 2281 4288C2265 4302 2242 4308 2221 4312C2157 4322 2090 4321 2025 4321C1954 4321 1882 4322 1811 4320C1760 4317 1695 4324 1650 4297C1621 4280 1615 4248 1612 4218C1607 4165 1608 4110 1612 4057C1614 4030 1618 4001 1641 3982C1690 3942 1767 3960 1824 3951M2700 3961C2745 3955 2795 3961 2841 3961C2900 3961 2957 3960 3015 3962C3050 3964 3087 3960 3120 3972C3137 3980 3154 3994 3168 4005C3208 4040 3214 4088 3217 4137C3220 4171 3221 4205 3221 4240C3221 4260 3222 4278 3222 4298C3222 4305 3224 4315 3215 4318C3205 4321 3192 4318 3182 4318C3145 4321 3107 4318 3070 4320C3004 4322 2940 4321 2874 4321C2822 4321 2771 4324 2720 4320C2668 4317 2604 4325 2558 4297C2534 4281 2527 4257 2524 4231C2515 4177 2515 4115 2522 4061C2525 4037 2527 4011 2545 3992C2585 3955 2651 3968 2700 3961M1768 4521C1814 4515 1862 4521 1908 4521L2188 4521L3045 4521C3281 4521 3515 4522 3751 4522C3845 4522 3941 4522 4035 4527C4091 4530 4148 4528 4204 4540C4248 4547 4251 4585 4255 4622C4258 4642 4257 4664 4258 4684C4261 4745 4277 4834 4212 4867C4184 4882 4151 4887 4120 4892C4060 4902 4000 4904 3940 4908C3750 4921 3557 4920 3367 4920C2860 4920 2351 4924 1844 4921C1705 4921 1567 4917 1428 4917C1294 4917 1157 4912 1024 4895C977 4890 908 4884 877 4842C865 4828 862 4810 861 4791C857 4757 858 4722 861 4688C864 4647 857 4588 887 4554C908 4531 928 4532 957 4530C1011 4522 1070 4525 1125 4525C1262 4525 1401 4522 1538 4522L1688 4522C1714 4522 1742 4525 1768 4521">
			</path>
		</g>
	</g>
</svg>