<svg class="img-fluid" id="outputsvg" xmlns="http://www.w3.org/2000/svg" width="256" height="256"
	viewBox="0 0 2560 2560">
	<g id="l5dTzcdF9niIPXDD0f1L5Xq" fill="rgb(0,0,0)" style="transform: none;">
		<g>
			<path id="pHOnkazPG"
				d="M320 2551 c-71 -15 -128 -60 -166 -131 l-19 -35 0 -1105 0 -1105 19 -35 c26 -49 64 -88 111 -113 l40 -22 910 0 910 0 32 19 31 19 13 24 12 23 61 0 61 0 35 18 35 17 12 35 12 35 0 80 1 81 -19 38 -20 38 17 26 16 25 4 96 3 96 -20 39 -20 38 17 26 17 26 0 112 0 112 -19 21 -19 20 19 28 19 28 0 111 0 112 -19 21 -19 20 19 28 19 28 0 111 0 112 -17 19 c-10 11 -18 23 -18 28 0 5 8 17 18 28 l17 19 0 113 0 113 -24 26 -25 26 -72 27 -72 27 -4 180 -3 181 -19 31 -19 31 -31 19 -31 19 -885 1 -885 2 -35 -7z m1580 -221 l0 -100 -767 0 -768 0 -35 18 -34 17 -19 32 -18 32 16 31 16 31 32 19 32 20 773 0 772 0 0 -100z m188 88 l12 -12 0 -88 0 -88 -20 0 -20 0 0 100 0 100 8 0 c4 0 13 -5 20 -12z m-1790 -742 l2 -399 11 -14 11 -13 59 0 58 0 11 19 10 20 0 390 0 391 70 0 70 0 0 -970 0 -970 -70 0 -70 0 0 399 0 400 -22 15 -22 16 -37 0 -37 0 -21 -17 -21 -18 -3 -380 -2 -380 -17 32 -18 32 0 926 0 926 18 -3 17 -3 3 -399z m1790 382 l12 -12 0 -946 0 -946 -12 -12 -12 -12 -658 0 -658 0 0 970 0 970 658 0 658 0 12 -12z m196 -124 l16 -6 0 -54 0 -54 -20 0 -20 0 0 60 c0 33 2 60 4 60 2 0 11 -3 20 -6z m0 -320 l16 -6 0 -54 0 -54 -20 0 -20 0 0 60 c0 33 2 60 4 60 2 0 11 -3 20 -6z m0 -320 l16 -6 0 -54 0 -54 -20 0 -20 0 0 60 c0 33 2 60 4 60 2 0 11 -3 20 -6z m16 -380 l0 -54 -20 0 -20 0 0 59 0 59 20 -5 20 -5 0 -54z m0 -320 l0 -54 -20 0 -20 0 0 59 0 59 20 -5 20 -5 0 -54z m0 -324 l0 -50 -20 0 -20 0 0 60 0 61 20 -11 20 -11 0 -49z">
			</path>
			<path id="pMy5Njlyh"
				d="M316 1164 l-16 -15 0 -48 0 -48 18 -16 19 -17 45 0 45 0 16 18 17 19 0 46 0 46 -16 15 -15 16 -49 0 -49 0 -15 -16z">
			</path>
			<path id="p12ncdby3q"
				d="M1016 1664 l-16 -15 0 -49 0 -49 22 -15 22 -16 386 0 386 0 22 16 22 15 0 49 0 49 -16 15 -15 16 -399 0 -399 0 -15 -16z">
			</path>
			<path id="ptsmPYXrU"
				d="M1016 1464 l-16 -15 0 -49 0 -49 22 -15 22 -16 386 0 386 0 22 16 22 15 0 49 0 49 -16 15 -15 16 -399 0 -399 0 -15 -16z">
			</path>
			<path id="pDB2gUF3N"
				d="M1083 1059 l-42 -21 -20 -42 -21 -42 0 -154 0 -154 21 -42 20 -43 43 -20 42 -21 304 0 304 0 42 21 43 20 20 43 21 42 0 154 0 154 -21 42 -20 43 -43 20 -42 21 -305 0 -304 0 -42 -21z m601 -155 l16 -15 0 -89 0 -89 -16 -15 -15 -16 -239 0 -239 0 -15 16 -16 15 0 89 0 89 16 15 15 16 239 0 239 0 15 -16z">
			</path>
		</g>
	</g>
	<g id="l6Nlp7fIC6lHAbeIgK5dZ3e" fill="rgb(109,145,172)" style="transform: none;">
		<g>
			<path id="p5YcyeiAq"
				d="M293 2440 l-32 -19 -16 -30 -15 -30 0 -33 0 -33 20 -33 20 -33 35 -15 c19 -8 44 -14 55 -14 l20 0 0 20 0 20 -21 0 -21 0 -34 34 -34 34 0 31 0 31 10 0 10 0 0 15 0 15 15 0 15 0 0 10 0 10 20 0 20 0 0 20 0 20 -17 0 c-10 0 -32 -9 -50 -20z">
			</path>
			<path id="pU98QHDNx" d="M2230 1890 l0 -100 50 0 50 0 0 84 0 84 -47 16 c-26 9 -48 16 -50 16 -2 0 -3 -45 -3 -100z">
			</path>
		</g>
	</g>
	<g id="l6wVMCSCoeL1msqEz9vCEoa" fill="rgb(255,90,88)" style="transform: none;">
		<g>
			<path id="po2DZA9FE" d="M2230 290 l0 -100 50 0 50 0 0 80 0 81 -46 19 c-25 11 -48 20 -50 20 -2 0 -4 -45 -4 -100z">
			</path>
		</g>
	</g>
	<g id="l6dSvAL1axCuMBm0hOq3Arm" fill="rgb(198,138,101)" style="transform: none;">
		<g>
			<path id="pcK2FHY5e" d="M2230 931 l0 -101 50 0 50 0 0 83 0 84 -37 12 c-21 7 -44 15 -50 17 l-13 6 0 -101z"></path>
		</g>
	</g>
	<g id="l53zJwjMMW4M5HuJN7uTddJ" fill="rgb(132,129,226)" style="transform: none;">
		<g>
			<path id="pLSm1jbwc" d="M2030 2330 l0 -130 50 0 50 0 0 118 0 118 -12 12 -12 12 -38 0 -38 0 0 -130z"></path>
			<path id="pNj4emnKo"
				d="M230 1167 l0 -972 20 -32 19 -32 31 -16 30 -16 0 401 0 400 24 15 23 15 17 -6 16 -6 0 70 0 70 -20 -5 -21 -6 -19 18 -20 18 0 18 0 18 17 16 16 17 24 -5 23 -4 0 68 0 69 -28 0 -28 0 -12 12 -12 12 0 398 0 399 -17 5 c-10 3 -33 12 -50 20 l-33 14 0 -973z">
			</path>
		</g>
	</g>
	<g id="l49ss5NMdIdWUxOhRouKhA2" fill="rgb(255,193,68)" style="transform: none;">
		<g>
			<path id="p18iurqWr3" d="M2230 611 l0 -101 50 0 50 0 0 83 0 83 -37 13 c-21 8 -44 16 -50 18 l-13 5 0 -101z"></path>
		</g>
	</g>
	<g id="l5UlYtEWjDFqBlXd7Tp1ZHa" fill="rgb(203,229,88)" style="transform: none;">
		<g>
			<path id="p16rFjQKsy" d="M2230 1570 l0 -100 50 0 50 0 0 84 0 83 -43 17 c-23 9 -46 16 -50 16 l-7 0 0 -100z"></path>
		</g>
	</g>
	<g id="l7l9LMjXW9GBwgAEyy5s7x2" fill="rgb(157,154,232)" style="transform: none;">
		<g>
			<path id="p15xFlgZEh"
				d="M430 1709 l0 -390 -10 -20 -11 -19 -14 0 -15 0 0 -64 0 -65 20 -6 20 -6 6 -26 7 -26 -26 -23 -27 -23 0 -54 0 -55 25 -16 25 -16 0 -400 0 -400 100 0 100 0 0 1000 0 1000 -100 0 -100 0 0 -391z">
			</path>
			<path id="pN7hibiof" d="M2070 2084 l0 -15 14 -15 15 -14 15 0 16 0 0 18 0 18 -12 12 -12 12 -18 0 -18 0 0 -16z">
			</path>
		</g>
	</g>
	<g id="l2GQNHBydsy36IgtM0Vnclr" fill="rgb(102,224,247)" style="transform: none;">
		<g>
			<path id="p8dVKgKNb" d="M2230 1250 l0 -100 50 0 50 0 0 84 0 84 -47 16 c-26 9 -48 16 -50 16 -2 0 -3 -45 -3 -100z">
			</path>
		</g>
	</g>
	<g id="l1FwWyoybdg4owdVd9bq5Yh" fill="rgb(181,179,238)" style="transform: none;">
		<g>
			<path id="p12JYFN9Hi"
				d="M730 1100 l0 -1000 688 0 688 0 12 12 12 12 0 972 0 973 -16 15 -15 16 -685 0 -684 0 0 -1000z m1084 534 l16 -15 0 -19 0 -19 -22 -15 -22 -16 -356 0 -356 0 -22 16 -22 15 0 19 0 19 16 15 15 16 369 0 369 0 15 -16z m0 -200 l16 -15 0 -19 0 -19 -22 -15 -22 -16 -356 0 -356 0 -22 16 -22 15 0 19 0 19 16 15 15 16 369 0 369 0 15 -16z m-68 -405 l43 -20 20 -43 21 -42 0 -124 0 -124 -21 -42 -20 -43 -43 -20 -42 -21 -274 0 -274 0 -42 21 -43 20 -20 43 -21 42 0 124 0 124 21 42 20 42 42 21 42 21 274 0 275 0 42 -21z">
			</path>
		</g>
	</g>
	<g id="l1bk5pY9jiVlUUvRXIUaBpj" fill="rgb(255,255,255)" style="transform: none;">
		<g>
			<path id="p1ABYR5DTv"
				d="M301 2442 l-34 -19 -19 -34 -18 -34 0 -25 0 -25 20 -32 19 -32 28 -18 27 -18 803 -3 803 -2 0 130 0 130 -798 0 -797 0 -34 -18z">
			</path>
			<path id="pre5RPkVk"
				d="M1146 934 l-16 -15 0 -119 0 -119 16 -15 15 -16 269 0 269 0 15 16 16 15 0 119 0 119 -16 15 -15 16 -269 0 -269 0 -15 -16z">
			</path>
		</g>
	</g>
</svg>