<svg class="img-fluid" id="outputsvg" xmlns="http://www.w3.org/2000/svg" width="256" height="256"
	viewBox="0 0 2560 2560">
	<g id="l7I7sJ5azf9rp" fill="none" stroke="rgb(0,0,0)" stroke-width="10" style="transform: none;">
		<g fill="none">
			<path
				d="M307 7C321 2 341 5 357 5L460 5L795 5L1888 5L2052 5C2072 5 2104 -2 2124 7C2142 14 2175 31 2188 47C2197 57 2202 87 2215 91C2224 92 2237 91 2245 91C2272 91 2304 87 2331 91C2345 94 2360 105 2372 111C2382 115 2398 120 2404 128C2411 137 2414 151 2417 161C2421 172 2425 182 2428 194C2432 225 2427 258 2428 290C2430 311 2434 338 2428 358C2421 384 2397 405 2392 431C2391 448 2418 468 2422 485C2427 498 2425 515 2425 530C2425 547 2427 564 2428 581C2430 604 2430 627 2430 650C2430 658 2432 668 2430 677C2424 694 2414 711 2405 727C2401 734 2394 744 2392 752C2392 772 2421 788 2424 808C2427 831 2424 857 2424 880C2424 927 2424 972 2424 1020C2424 1042 2391 1051 2390 1071C2390 1078 2395 1084 2398 1088C2407 1100 2418 1112 2422 1125C2425 1134 2424 1145 2424 1154L2424 1215L2424 1305C2424 1318 2427 1335 2424 1348C2418 1364 2390 1375 2390 1392C2391 1412 2420 1428 2424 1448C2428 1474 2424 1505 2424 1532C2424 1575 2428 1622 2424 1665C2421 1685 2392 1694 2391 1715C2390 1737 2418 1747 2424 1765C2427 1781 2424 1802 2424 1818L2424 1931C2424 1947 2430 1977 2422 1991C2418 2000 2408 2008 2401 2015C2392 2024 2385 2035 2375 2041C2352 2057 2317 2064 2291 2074C2277 2078 2264 2084 2250 2090C2244 2091 2235 2092 2232 2097C2228 2104 2231 2120 2231 2128C2231 2154 2230 2178 2230 2204C2230 2265 2228 2327 2225 2387C2224 2408 2231 2435 2224 2455C2220 2470 2208 2482 2201 2495C2195 2502 2192 2512 2185 2518C2175 2528 2160 2535 2148 2542C2140 2547 2131 2555 2121 2558C2110 2562 2091 2560 2078 2560L1982 2560L1665 2560L604 2560L442 2560C411 2560 375 2564 344 2560C295 2552 245 2528 210 2495C184 2471 165 2442 148 2412C122 2364 134 2297 134 2242L134 1875L134 527L134 290L134 215C134 204 132 190 135 178C138 162 150 148 158 134C185 87 225 50 274 24C284 18 295 10 307 7M231 2140C227 2124 230 2105 230 2090L230 1988L230 1655L230 564L230 315L230 237C230 224 228 210 231 198C232 188 241 180 245 171C252 160 260 142 270 132C277 127 290 122 298 117C305 114 317 104 325 105C330 105 330 111 330 115C330 127 330 137 330 148L330 290L330 784L330 867C330 877 327 892 331 901C335 908 348 914 355 918C361 922 372 932 380 931C384 931 388 928 392 925C402 920 424 911 428 900C434 887 430 865 430 851L430 740L430 284L430 155C430 142 424 117 431 104C434 97 467 101 474 101L587 101C595 101 620 97 627 102C632 107 630 121 630 127L630 197L630 485L630 1661L630 1997L630 2075C630 2081 632 2098 625 2101C611 2104 592 2101 578 2101L477 2101L444 2101C440 2101 434 2102 431 2098C425 2091 430 2067 430 2058L430 1947L430 1511L430 1355C430 1331 430 1301 408 1284C401 1277 374 1280 364 1281C331 1287 332 1315 332 1341C332 1398 331 1457 331 1514C331 1655 328 1797 328 1938L328 2054C328 2067 332 2090 327 2101C321 2108 305 2110 297 2112C274 2120 254 2132 231 2140M732 102C737 100 747 101 752 101L805 101L1012 101L1818 101L2047 101C2077 101 2112 94 2128 125C2132 132 2130 145 2130 154L2130 218L2130 450L2130 1280L2130 1888L2130 2021C2130 2035 2134 2058 2128 2072C2125 2081 2112 2092 2105 2098C2100 2102 2090 2101 2082 2101L2030 2101L1825 2101L1040 2101L805 2101L750 2101C745 2101 732 2104 731 2098C727 2091 730 2078 730 2071L730 2005L730 1770L730 930L730 305L730 152L730 115C730 111 728 105 732 102M2232 192C2240 187 2264 191 2272 191L2312 191C2317 191 2324 190 2327 192C2332 197 2330 212 2330 218L2330 291L2330 337C2330 342 2331 350 2325 354C2307 367 2278 374 2258 382C2252 385 2240 392 2235 387C2230 382 2231 365 2231 358C2231 334 2230 308 2230 284L2230 215C2230 210 2227 197 2232 192M2232 512C2240 507 2264 511 2272 511L2312 511C2317 511 2324 510 2327 512C2332 517 2330 532 2330 538L2330 614L2330 660C2330 667 2331 674 2325 678C2318 684 2308 685 2300 688C2284 694 2270 700 2254 705C2250 707 2235 714 2231 708C2227 702 2230 687 2230 680L2230 602L2230 535C2230 530 2227 517 2232 512M1157 552C1171 548 1191 551 1207 551L1310 551L1615 551C1642 551 1675 545 1701 551C1717 555 1732 567 1747 574C1760 578 1777 584 1788 594C1797 602 1802 621 1807 632C1814 647 1825 662 1830 678C1834 702 1830 734 1830 760L1830 870C1830 887 1832 907 1830 924C1825 938 1815 952 1808 967C1802 980 1798 998 1788 1010C1781 1017 1771 1018 1762 1022C1744 1031 1724 1045 1705 1050C1691 1054 1671 1051 1655 1051L1550 1051L1252 1051C1221 1051 1187 1055 1155 1051C1145 1050 1137 1042 1128 1038C1111 1030 1088 1022 1072 1010C1062 1002 1057 981 1052 970C1045 955 1034 940 1031 924C1025 900 1030 870 1030 845L1030 734C1030 717 1027 695 1031 678C1034 662 1045 648 1051 634C1057 622 1061 604 1071 594C1077 588 1088 584 1097 581C1117 571 1137 558 1157 552M1161 652C1170 648 1185 651 1195 651L1278 651L1574 651L1664 651C1674 651 1691 648 1700 654C1708 658 1727 677 1730 685C1735 710 1730 742 1730 767L1730 867C1730 882 1732 901 1730 917C1728 927 1708 945 1700 950C1691 954 1675 951 1665 951L1582 951L1284 951L1194 951C1184 951 1167 954 1158 948C1150 942 1132 927 1130 917C1124 887 1130 850 1130 820L1130 731C1130 717 1127 701 1130 687C1131 677 1152 657 1161 652M2231 1031C2227 1017 2230 998 2230 982L2230 885C2230 872 2224 847 2231 834C2234 828 2247 831 2252 831L2307 831C2312 831 2322 830 2327 832C2334 837 2330 862 2330 870L2330 962C2330 971 2334 991 2327 998C2321 1004 2305 1007 2297 1010C2275 1015 2252 1024 2231 1031M380 934L380 1014C380 1022 377 1038 381 1047C382 1051 391 1051 395 1054C405 1060 430 1080 430 1092C432 1140 382 1171 344 1138C332 1128 324 1100 331 1085C338 1071 362 1054 378 1050M2232 1152C2240 1147 2264 1151 2272 1151L2312 1151C2317 1151 2324 1150 2327 1152C2332 1157 2330 1174 2330 1180L2330 1257L2330 1302C2330 1308 2331 1315 2327 1320C2310 1334 2277 1338 2257 1344C2251 1347 2238 1352 2234 1347C2228 1341 2231 1327 2231 1320C2228 1291 2230 1262 2230 1234L2230 1174C2230 1168 2227 1157 2232 1152M380 1152L380 1280M1074 1352C1090 1345 1118 1351 1135 1351L1275 1351L1620 1351L1730 1351C1747 1351 1767 1348 1782 1351C1791 1352 1797 1360 1804 1365C1811 1370 1824 1375 1828 1384C1841 1408 1820 1435 1801 1448C1791 1455 1765 1451 1752 1451L1622 1451L1227 1451L1111 1451C1097 1451 1074 1455 1061 1450C1055 1448 1050 1440 1045 1435C1041 1431 1034 1427 1031 1421C1015 1391 1048 1362 1074 1352M2232 1472C2240 1467 2264 1471 2272 1471L2312 1471C2317 1471 2324 1470 2327 1472C2332 1477 2330 1492 2330 1498L2330 1575L2330 1621C2330 1628 2331 1635 2325 1640C2307 1654 2277 1660 2255 1667C2250 1668 2235 1675 2231 1668C2227 1662 2230 1647 2230 1640L2230 1561L2230 1495C2230 1490 2227 1477 2232 1472M1074 1552C1090 1545 1118 1551 1135 1551L1275 1551L1620 1551L1730 1551C1747 1551 1767 1548 1782 1551C1791 1552 1797 1560 1804 1565C1811 1570 1824 1575 1828 1584C1841 1608 1820 1635 1801 1648C1791 1655 1765 1651 1752 1651L1622 1651L1227 1651L1111 1651C1097 1651 1074 1655 1061 1650C1055 1648 1050 1640 1045 1635C1041 1631 1034 1627 1031 1621C1015 1591 1048 1562 1074 1552M2232 1792C2240 1787 2264 1791 2272 1791L2312 1791C2317 1791 2324 1790 2327 1792C2332 1797 2330 1814 2330 1820L2330 1897L2330 1942C2330 1948 2331 1955 2327 1960C2310 1974 2277 1978 2257 1984C2251 1987 2238 1992 2234 1987C2228 1981 2231 1967 2231 1960C2228 1931 2230 1902 2230 1874L2230 1814C2230 1808 2227 1797 2232 1792M1640 2201C1664 2198 1688 2201 1712 2201L1854 2201L1907 2201C1912 2201 1922 2200 1927 2202C1931 2205 1930 2211 1930 2215L1930 2252L1930 2404L1930 2445C1930 2450 1931 2457 1927 2460C1922 2464 1908 2461 1901 2461L1832 2461L1565 2461L530 2461L392 2461C372 2461 347 2465 328 2460C318 2457 308 2448 298 2442C287 2437 274 2431 264 2422C258 2415 254 2405 248 2397C234 2370 221 2335 230 2302C232 2292 241 2282 247 2274C254 2262 261 2247 270 2237C281 2225 311 2211 327 2207C352 2198 385 2204 411 2204L582 2204C815 2204 1050 2202 1282 2202L1518 2202C1558 2202 1601 2207 1640 2201M2032 2202C2037 2200 2047 2201 2052 2201L2107 2201C2112 2201 2124 2198 2128 2204C2131 2207 2130 2215 2130 2220L2130 2264L2130 2392C2130 2420 2134 2440 2110 2458C2097 2467 2065 2461 2050 2461C2045 2461 2032 2464 2031 2458C2024 2445 2030 2420 2030 2407L2030 2278L2030 2222C2030 2218 2028 2205 2032 2202">
			</path>
		</g>
	</g>
</svg>