<svg class="img-fluid" id="outputsvg" xmlns="http://www.w3.org/2000/svg" width="256" height="256"
	viewBox="0 0 2560 2560">
	<g id="l4KxnW7luOAtN" fill="none" stroke="rgb(0,0,0)" stroke-width="10" style="transform: none;">
		<g fill="none">
			<path
				d="M2420 11C2507 0 2581 97 2538 177C2510 231 2457 275 2415 320C2357 382 2294 440 2237 504C2217 528 2202 554 2182 578C2174 591 2161 594 2148 602C2134 611 2121 624 2108 635C2051 687 1997 742 1944 798C1887 858 1828 918 1774 982C1764 995 1752 1008 1744 1022C1738 1032 1737 1042 1730 1051C1721 1060 1707 1060 1697 1064C1681 1072 1667 1087 1654 1098C1574 1171 1498 1251 1424 1331C1384 1375 1342 1418 1304 1464C1292 1478 1288 1498 1275 1511C1262 1524 1248 1525 1234 1534C1222 1540 1212 1550 1204 1558C1128 1630 1055 1704 984 1780C940 1827 892 1871 852 1922C845 1932 837 1942 834 1954C830 1964 831 1977 827 1987C821 2001 812 2014 802 2025C757 2082 701 2134 650 2185C577 2258 505 2331 434 2402L322 2514C311 2525 294 2550 278 2551C255 2552 227 2555 205 2547C188 2541 174 2527 160 2514C132 2490 107 2462 80 2435C50 2405 12 2375 10 2330C7 2277 42 2247 77 2211C94 2192 112 2168 135 2157C152 2148 185 2158 195 2175C200 2182 198 2198 195 2207C187 2238 152 2264 130 2287C122 2294 108 2304 104 2312C101 2322 125 2341 131 2348C158 2377 187 2404 214 2431C221 2438 235 2458 245 2458C255 2457 267 2440 274 2432L345 2361C440 2267 532 2174 625 2080C651 2052 677 2025 702 1998C710 1991 728 1975 728 1965C727 1955 712 1942 705 1935C682 1908 655 1884 630 1858C622 1851 605 1830 592 1834C582 1837 572 1848 564 1854C537 1877 512 1910 480 1925C457 1935 435 1911 431 1890C427 1861 454 1837 471 1817C494 1790 522 1761 554 1744C571 1735 590 1735 607 1728C628 1718 647 1702 665 1687C725 1637 781 1580 837 1525C887 1477 940 1428 987 1375C1000 1361 1015 1347 1025 1330C1034 1317 1034 1304 1045 1292C1064 1272 1091 1264 1112 1247C1178 1188 1242 1127 1305 1067C1362 1011 1424 957 1475 895C1484 885 1494 874 1500 861C1502 851 1502 840 1510 831C1517 825 1525 825 1532 822C1541 818 1550 811 1557 805C1594 777 1628 744 1664 712C1752 632 1840 550 1920 461C1932 447 1947 431 1958 415C1965 405 1968 394 1977 384C1990 371 2005 367 2020 357C2042 341 2064 322 2084 302C2154 232 2227 165 2298 97C2332 64 2371 18 2420 11M2438 104C2451 102 2457 117 2452 127C2442 147 2424 165 2410 182C2345 255 2277 327 2208 395C2191 412 2175 428 2158 444C2152 450 2145 460 2137 460C2131 458 2125 452 2121 448C2094 422 2131 392 2151 372C2220 304 2288 235 2360 170C2378 152 2395 137 2414 120C2421 115 2430 104 2438 104M2018 501C2024 500 2028 505 2031 508C2038 515 2064 535 2058 545C2052 557 2038 567 2028 577C2008 597 1991 615 1971 635C1907 700 1838 764 1780 832C1757 857 1732 880 1710 904C1704 910 1694 927 1684 927C1678 927 1674 921 1671 918C1664 911 1632 884 1640 872C1645 862 1655 855 1664 847C1682 828 1701 811 1720 792C1784 728 1851 665 1915 601C1940 577 1962 555 1987 531C1995 522 2007 505 2018 501M1552 957C1558 955 1564 961 1568 965C1578 975 1588 985 1598 995C1602 998 1608 1002 1604 1010C1598 1020 1587 1027 1580 1035C1558 1060 1534 1082 1511 1105C1447 1170 1385 1234 1321 1298L1254 1365C1248 1371 1237 1387 1228 1387C1222 1388 1218 1382 1214 1380C1202 1371 1191 1360 1181 1348C1177 1344 1171 1338 1175 1331C1181 1320 1194 1311 1202 1302L1260 1245C1324 1181 1388 1118 1452 1054L1521 985C1530 977 1541 961 1552 957M1094 1414C1111 1408 1134 1441 1142 1452C1147 1458 1151 1464 1147 1471C1140 1485 1125 1497 1114 1508C1094 1530 1074 1551 1052 1572C990 1635 930 1698 865 1760C842 1781 821 1804 798 1825C791 1832 780 1848 770 1850C764 1850 758 1844 754 1840C741 1830 731 1817 720 1805C715 1801 707 1794 711 1787C717 1775 730 1767 738 1758L795 1701C860 1637 925 1572 990 1508C1014 1484 1037 1461 1062 1440C1071 1431 1082 1417 1094 1414M450 1924C441 1930 430 1931 421 1937C400 1951 380 1974 367 1997C351 2028 365 2075 318 2084C311 2087 297 2087 290 2082C261 2064 264 2002 300 1995C314 1991 331 1997 342 2005C348 2008 351 2014 358 2017M287 2082C275 2091 261 2095 250 2105C227 2127 214 2150 197 2174">
			</path>
		</g>
	</g>
</svg>