<svg class="img-fluid" id="outputsvg" xmlns="http://www.w3.org/2000/svg" width="256" height="256"
	viewBox="0 0 2560 2560">
	<g id="l4JdTt1lsbMdLF7qMrX40tgj" fill="rgb(0,0,0)" stroke="rgb(0,0,0)" stroke-width="1" fill-rule="evenodd"
		style="transform: none;">
		<g>
			<path id="pDTwhDjkx"
				d="M190 2160 L191 2162C192 2163 194 2176 196 2190 C199 2209 189 2226 150 2264 L99 2314 172 2387 L244 2460 487 2217 C620 2084 730 1970 730 1964 C730 1959 701 1926 667 1892 C632 1857 600 1830 595 1830 C590 1830 562 1852 533 1880 C494 1917 474 1929 459 1925 L440 1920L440 1920 L434 1887C429 1857 434 1849 488 1795 C536 1749 557 1735 588 1730 C624 1725 651 1702 829 1531 C941 1423 1030 1330 1029 1320 C1029 1311 1037 1296 1047 1287 C1057 1279 1072 1270 1081 1268 C1090 1266 1188 1178 1298 1072 C1448 927 1499 872 1501 852 C1504 832 1511 824 1529 821 C1545 819 1627 747 1756 623 C1876 507 1960 418 1964 403 C1968 388 1982 373 2002 365 C2020 357 2057 328 2085 299 C2112 271 2192 194 2262 129 C2386 12 2390 10 2435 10 C2475 10 2487 15 2516 44 C2544 72 2550 85 2549 123 C2549 163 2543 176 2501 226 C2474 258 2397 339 2330 405 C2263 471 2202 539 2195 557 C2186 576 2171 591 2157 595 C2144 598 2046 691 1939 802 C1817 928 1743 1012 1739 1029 C1736 1047 1727 1055 1708 1058 C1689 1060 1629 1115 1486 1264 C1378 1376 1290 1473 1290 1480 C1290 1487 1282 1501 1273 1511 C1264 1521 1249 1530 1239 1530 C1230 1530 1133 1621 1026 1733 C850 1915 830 1940 830 1971 C830 2001 805 2028 557 2277 L284 2550 240 2550 C197 2550 192 2546 103 2456 C14 2368 10 2361 10 2321 C10 2282 15 2272 72 2213 C124 2159 138 2149 159 2153 C173 2156 186 2159 187 2159 L190 2160M732 1819 L705 1789 895 1599 C999 1495 1089 1410 1095 1410 C1108 1410 1149 1452 1150 1465 C1150 1475 774 1850 765 1850 C762 1850 747 1836 732 1819 M1195 1361 L1170 1333 1362 1142 L1554 950 1582 977 L1609 1003 1424 1191 C1323 1295 1235 1382 1230 1385 C1224 1387 1208 1377 1195 1361 M1656 902 L1633 875 1827 685 L2020 496 2042 517 L2063 539 1896 709 C1805 803 1718 891 1705 905 L1680 930 1656 902 M2114 440 C2098 422 2105 413 2260 263 C2349 176 2428 103 2436 101 C2443 99 2452 105 2456 114 C2460 124 2412 181 2305 294 C2220 385 2145 460 2140 460 C2134 460 2122 451 2114 440 ">
			</path>
			<path id="pOACQUtpw"
				d="M280 2080 L278 2077C278 2076 277 2059 276 2041 C275 2020 280 2003 290 1997 C299 1991 316 1990 328 1993 L350 2000L350 2000 L351 2002C352 2003 354 2016 357 2031 C359 2050 354 2062 339 2073 C327 2081 312 2086 306 2084 C300 2081 291 2079 287 2079 L280 2080">
			</path>
		</g>
	</g>
	<g id="l5lv1gxi5UMyuZlFKHVg6sTj" fill="rgb(109,145,172)" stroke="rgb(109,145,172)" stroke-width="1"
		fill-rule="evenodd" style="transform: none;">
		<g>
			<path id="pPwU4IeJv"
				d="M190 2160 L196 2155C200 2152 203 2150 204 2150 C204 2150 222 2134 242 2115 L280 2080L280 2080 L287 2079C291 2079 300 2081 306 2084 C312 2086 327 2081 339 2073 C354 2062 359 2050 357 2031 C354 2016 352 2003 351 2002 L350 2000L350 2000 L356 1995C360 1992 363 1990 364 1990 C364 1990 382 1974 402 1955 L440 1920L440 1920 L459 1925C474 1929 494 1917 533 1880 C562 1852 590 1830 595 1830 C600 1830 632 1857 667 1892 C701 1926 730 1959 730 1964 C730 1970 620 2084 487 2217 L244 2460 172 2387 L99 2314 150 2264 C189 2226 199 2209 196 2190 C194 2176 192 2163 191 2162 L190 2160">
			</path>
		</g>
	</g>
	<g id="l4Zm5kYtYSGSSYMGHzIzmUoj" fill="rgb(197,211,222)" stroke="rgb(197,211,222)" stroke-width="1"
		fill-rule="evenodd" style="transform: none;">
		<g>
			<path id="pMyL5gE6m"
				d="M732 1819 L705 1789 895 1599 C999 1495 1089 1410 1095 1410 C1108 1410 1149 1452 1150 1465 C1150 1475 774 1850 765 1850 C762 1850 747 1836 732 1819 ">
			</path>
			<path id="pISCosr4X"
				d="M1195 1361 L1170 1333 1362 1142 L1554 950 1582 977 L1609 1003 1424 1191 C1323 1295 1235 1382 1230 1385 C1224 1387 1208 1377 1195 1361 ">
			</path>
			<path id="phWzWBo1m"
				d="M1656 902 L1633 875 1827 685 L2020 496 2042 517 L2063 539 1896 709 C1805 803 1718 891 1705 905 L1680 930 1656 902 ">
			</path>
			<path id="p5oNMcH6l"
				d="M2114 440 C2098 422 2105 413 2260 263 C2349 176 2428 103 2436 101 C2443 99 2452 105 2456 114 C2460 124 2412 181 2305 294 C2220 385 2145 460 2140 460 C2134 460 2122 451 2114 440 ">
			</path>
		</g>
	</g>
</svg>