<svg class="img-fluid" id="outputsvg" xmlns="http://www.w3.org/2000/svg" width="256" height="256"
	viewBox="0 0 2560 2560">
	<g id="l2m4xGduM6n9T6qXxYydC6v" fill="rgb(0,0,0)" style="transform: none;">
		<g>
			<path id="pSHYac5pb"
				d="M738 2549 l-18 -10 0 -165 0 -165 15 -5 15 -6 0 -14 0 -14 29 0 29 0 6 16 6 16 0 129 0 129 343 -2 342 -3 3 -297 2 -298 -345 0 -345 0 0 118 0 118 -12 12 -12 12 -23 0 -23 0 0 -14 0 -14 -15 -6 -15 -5 0 -144 0 -144 18 -16 19 -17 26 0 27 0 0 -56 0 -55 -10 -19 -10 -18 -65 -47 -66 -47 -40 -51 c-50 -63 -84 -129 -150 -294 l-52 -128 0 -41 0 -41 22 -37 23 -37 39 -19 38 -20 31 0 31 0 32 14 c18 7 41 23 51 35 11 11 23 21 28 21 l8 0 0 -325 0 -326 15 -28 c8 -16 28 -40 44 -54 l30 -25 34 -6 35 -7 40 14 40 14 5 -39 5 -39 16 -24 c21 -32 57 -55 98 -64 l33 -7 34 7 34 7 34 35 35 34 7 34 8 34 14 -4 c8 -2 37 -6 64 -8 l50 -5 34 24 c19 12 44 36 55 51 l21 28 4 120 3 120 17 -7 c9 -4 36 -9 61 -12 l45 -4 34 24 c19 13 44 36 55 51 l21 28 3 144 3 144 -20 13 -21 13 0 17 0 18 -18 0 -18 0 -12 -12 -12 -12 0 -132 0 -131 -21 -27 -20 -26 -13 0 -13 0 -19 21 -19 21 -5 202 -5 201 -60 0 -60 0 -5 -360 -5 -360 -8 -15 c-4 -9 -16 -21 -27 -27 l-19 -12 -23 18 -23 19 -3 358 -3 358 -11 13 -11 14 -51 -3 -51 -3 -5 -425 -5 -425 -9 -18 c-4 -10 -18 -23 -29 -29 l-21 -11 -23 27 -23 27 0 418 0 417 -12 12 -12 12 -48 0 -47 0 -11 -19 -10 -20 0 -335 0 -334 -6 -16 c-4 -9 -15 -21 -26 -27 l-20 -11 -24 23 -24 22 0 422 0 421 -12 12 -12 12 -47 0 -47 0 -9 -12 c-5 -7 -25 -50 -43 -96 l-33 -83 -18 -9 c-10 -6 -25 -10 -33 -10 l-16 0 -15 24 -16 24 56 138 c65 159 92 210 143 266 l36 40 58 39 58 40 20 39 20 39 0 56 0 55 250 0 250 0 0 -57 0 -58 16 -30 15 -30 73 -67 73 -67 28 -63 29 -63 4 -155 4 -155 10 -12 10 -13 19 0 19 0 0 15 0 14 20 11 20 11 0 128 0 128 -10 54 -10 54 -32 63 -31 62 -79 73 -78 74 0 61 0 62 28 0 28 0 20 14 19 14 3 370 3 370 -16 16 -16 16 -412 0 -412 -1 -17 -10z">
			</path>
			<path id="pj6CRfkev"
				d="M1912 1148 l-12 -12 0 -292 0 -292 15 -12 15 -12 15 6 15 5 0 305 0 304 -16 6 c-20 8 -18 8 -32 -6z"></path>
			<path id="pW6DCpXG3"
				d="M2097 747 l-18 -12 3 -94 3 -94 18 -11 18 -11 15 19 14 20 0 82 0 83 -16 15 c-19 19 -16 19 -37 3z"></path>
		</g>
	</g>
	<g id="l4xmaDMNxvebooh0h9di4pK" fill="rgb(203,151,231)" style="transform: none;">
		<g>
			<path id="pdI9Cv9pr" d="M1440 2161 l0 -331 50 0 50 0 -2 328 -3 327 -47 3 -48 3 0 -330z"></path>
		</g>
	</g>
	<g id="l7PdCSGT8Nso4FTOY726JuT" fill="rgb(255,193,140)" style="transform: none;">
		<g>
			<path id="pJA5hAnAi"
				d="M1332 1640 l3 -110 82 -78 82 -77 33 -70 33 -70 3 -305 3 -305 -12 -38 -13 -39 15 -9 c8 -5 24 -9 37 -9 l24 0 29 29 29 29 0 135 0 135 15 12 15 12 0 48 0 48 -14 11 -14 12 -4 157 -4 157 -28 63 -29 63 -73 67 -73 67 -15 30 -16 30 0 58 0 57 -56 0 -56 0 4 -110z">
			</path>
			<path id="pyCUUjF5U"
				d="M876 985 l-26 -24 0 -318 -1 -318 -14 -40 -15 -40 17 -13 c22 -16 38 -15 72 3 l29 14 6 16 6 17 0 339 0 339 20 20 c11 11 20 22 20 25 0 3 -20 5 -44 5 l-43 0 -27 -25z">
			</path>
			<path id="p2SYfPzFM"
				d="M1117 984 l-26 -26 -4 -407 -4 -406 -8 -33 -7 -32 37 0 36 0 19 10 18 10 11 31 11 32 0 409 0 409 15 5 c8 4 15 10 15 15 l0 9 -44 0 -43 0 -26 -26z">
			</path>
			<path id="p6ILJZ9f5"
				d="M1359 984 l-24 -26 -6 -341 c-4 -188 -8 -355 -10 -372 l-4 -30 29 -3 29 -4 23 12 22 12 11 25 11 24 0 350 0 350 15 5 c8 4 15 10 15 15 l0 9 -43 0 -44 0 -24 -26z">
			</path>
		</g>
	</g>
	<g id="l5Z1S5Phu6MGPcfYS8gYc3Q" fill="rgb(209,162,234)" style="transform: none;">
		<g>
			<path id="pa3Hmw8Ii" d="M1390 2470 l0 -20 20 0 20 0 0 -310 0 -310 20 0 20 0 0 330 0 330 -40 0 -40 0 0 -20z">
			</path>
		</g>
	</g>
	<g id="l2Nj0CAe1pOB6y980W80k2W" fill="rgb(254,210,164)" style="transform: none;">
		<g>
			<path id="pW5jBKpwl"
				d="M880 1695 l0 -56 -20 -39 -20 -39 -58 -40 -58 -39 -36 -40 c-52 -57 -79 -109 -148 -279 l-61 -152 15 -35 14 -34 20 -11 c28 -15 58 -14 91 4 l29 14 35 88 35 88 16 10 16 10 17 -11 18 -11 3 -424 2 -423 22 -23 21 -23 13 0 13 0 10 37 11 38 0 313 0 313 25 23 26 24 35 7 36 6 14 -12 14 -11 0 -418 0 -417 21 -27 20 -26 14 0 13 0 11 31 11 32 0 392 0 392 25 26 26 25 35 7 36 6 13 -11 14 -12 3 -360 3 -360 24 -19 c31 -26 37 -24 50 12 l11 32 0 323 0 324 28 30 27 31 45 2 45 2 5 -203 5 -204 29 -25 29 -25 14 27 14 26 -3 342 -3 342 -33 70 -33 70 -82 77 -82 78 -3 95 -4 95 -239 0 -239 0 0 -55z">
			</path>
		</g>
	</g>
	<g id="l61erlreCLDSldzBqdCxVM9" fill="rgb(217,177,238)" style="transform: none;">
		<g>
			<path id="piX93X93m"
				d="M790 2361 l0 -129 -6 -16 -6 -16 -14 0 -14 0 0 -53 0 -52 20 -13 20 -12 0 -120 0 -120 335 0 335 0 0 324 0 324 -31 6 -31 6 -304 0 -304 0 0 -129z">
			</path>
		</g>
	</g>
</svg>