<svg class="img-fluid" id="outputsvg" xmlns="http://www.w3.org/2000/svg" width="256" height="256"
	viewBox="0 0 2560 2560">
	<g id="l3YpoqMa3E9iTlSXpLlK3zh" fill="none" stroke="rgb(0,0,0)" stroke-width="10" style="transform: none;">
		<g>
			<path id="p1H9MD5en7"
				d="M390 2534 c-37 -25 -317 -303 -351 -348 l-29 -39 0 -44 0 -44 14 -27 15 -27 988 -986 988 -987 22 -11 22 -11 44 0 44 0 39 29 c45 34 323 314 348 351 l16 24 0 44 0 43 -14 27 -15 27 -988 986 -988 987 -22 11 -22 11 -43 0 -44 0 -24 -16z m1078 -1056 l983 -983 6 -23 6 -24 -27 -26 -26 -27 -433 433 -433 432 -12 0 c-8 0 -22 -5 -33 -10 l-19 -11 0 -27 0 -27 430 -430 430 -430 -114 -114 -114 -114 -23 6 -24 6 -50 51 -50 50 10 14 c6 7 18 25 29 40 l18 26 -16 25 -16 25 -22 0 -22 0 -28 -27 -29 -27 -46 46 -47 47 42 45 42 46 0 23 0 23 -12 12 -12 12 -23 0 -23 0 -46 -42 -45 -42 -47 47 -46 46 27 29 27 28 0 20 0 20 -12 12 -12 12 -26 0 -27 0 -18 -20 c-25 -28 -33 -26 -82 22 l-42 41 24 29 25 30 0 22 0 22 -12 12 -12 12 -22 0 -22 0 -30 -25 -29 -24 -46 47 -47 48 45 44 45 44 0 23 0 22 -22 15 c-12 9 -26 16 -31 16 -4 0 -30 -21 -58 -47 l-50 -47 -46 46 -46 46 26 32 c31 37 33 47 11 78 l-15 22 -19 0 -18 0 -32 -27 -32 -26 -46 46 -46 46 27 29 27 28 0 21 0 22 -21 14 -20 15 -19 -5 c-10 -3 -26 -14 -36 -24 -24 -27 -33 -24 -81 23 l-42 42 44 47 45 48 0 13 c0 8 -7 24 -16 36 l-15 22 -20 0 -20 0 -48 -45 -47 -44 -47 47 -47 48 25 24 25 23 0 27 0 26 -12 12 -12 12 -20 0 -20 0 -28 -27 -29 -27 -46 46 -46 46 29 37 28 37 -15 27 -15 26 -20 3 -21 3 -32 -27 -33 -27 -46 46 -46 47 40 42 c23 24 44 50 47 59 l5 17 -14 21 -15 21 -23 0 -22 0 -39 -40 -39 -40 -12 0 -11 0 -52 54 -51 55 0 18 0 18 113 113 112 112 430 -430 430 -430 27 0 27 0 11 19 c5 11 10 25 10 33 l0 12 -432 433 -432 432 24 26 23 25 21 0 21 0 983 -982z">
			</path>
			<path id="p19B2rE495"
				d="M1337 1402 l-17 -19 0 -19 0 -20 12 -12 12 -12 21 0 22 0 16 18 c10 10 17 24 17 30 0 16 -37 52 -53 52 l-14 0 -16 -18z">
			</path>
		</g>
	</g>
	<g id="l7YoohICnepXDDWc00lnSi7" fill="none" stroke="rgb(209,161,132)" stroke-width="10" style="transform: none;">
		<g>
			<path id="pPi5KxVHr"
				d="M212 2227 l-112 -112 0 -18 0 -18 51 -55 52 -54 11 0 12 0 39 40 39 40 22 0 23 0 15 -21 14 -21 -5 -17 c-3 -9 -24 -35 -47 -59 l-40 -42 46 -47 46 -46 33 27 32 27 21 -3 20 -3 15 -26 15 -27 -28 -37 -29 -37 46 -46 46 -46 29 27 28 27 20 0 20 0 12 -12 12 -12 0 -26 0 -27 -25 -23 -25 -24 47 -48 47 -47 47 44 48 45 20 0 20 0 15 -22 c9 -12 16 -28 16 -36 l0 -13 -45 -48 -44 -47 42 -42 c48 -47 57 -50 81 -23 10 10 26 21 36 24 l19 5 20 -15 21 -14 0 -22 0 -21 -27 -28 -27 -29 46 -46 46 -46 32 26 32 27 18 0 19 0 15 -22 c22 -31 20 -41 -11 -78 l-26 -32 46 -46 46 -46 50 47 c28 26 54 47 58 47 5 0 19 -7 31 -16 l22 -15 0 -22 0 -23 -45 -44 -45 -44 47 -48 46 -47 29 24 30 25 22 0 22 0 12 -12 12 -12 0 -22 0 -22 -25 -30 -24 -29 42 -41 c49 -48 57 -50 82 -22 l18 20 27 0 26 0 12 -12 12 -12 0 -20 0 -20 -27 -28 -27 -29 46 -46 47 -47 45 42 46 42 23 0 23 0 12 -12 12 -12 0 -23 0 -23 -42 -46 -42 -45 47 -47 46 -46 29 27 28 27 22 0 22 0 16 -25 16 -25 -18 -26 c-11 -15 -23 -33 -29 -40 l-10 -14 50 -50 50 -51 24 -6 23 -6 114 114 114 114 -430 430 -430 430 0 31 0 30 -40 39 -41 40 -28 -3 -28 -3 -12 15 -13 15 4 25 3 25 -40 41 -39 40 -30 0 -31 0 -430 430 -430 430 -113 -113z">
			</path>
		</g>
	</g>
	<g id="l6IFB3IAyyTioDheXaUhJmy" fill="none" stroke="rgb(198,138,101)" stroke-width="10" style="transform: none;">
		<g>
			<path id="pVkT9ZtS8"
				d="M420 2435 l-24 -26 432 -432 432 -433 0 -12 c0 -8 -4 -21 -10 -31 l-9 -18 44 -43 44 -43 16 13 16 13 23 -11 24 -11 7 -21 7 -21 -13 -15 -12 -15 43 -44 43 -44 18 9 c10 6 23 10 31 10 l12 0 433 -432 433 -433 26 27 27 26 -6 24 -6 23 -983 983 -983 982 -21 0 -21 0 -23 -25z">
			</path>
		</g>
	</g>
</svg>