<svg class="img-fluid" id="outputsvg" xmlns="http://www.w3.org/2000/svg" width="256" height="256"
	viewBox="0 0 2560 2560">
	<g id="l3T0NWSeV1RZyNx3uThxCd5" fill="rgb(0,0,0)" style="transform: none;">
		<g>
			<path id="pC1bC0Cpf"
				d="M390 2534 c-37 -25 -317 -303 -351 -348 -33 -44 -39 -108 -15 -154 18 -33 1982 -1995 2013 -2011 42 -21 107 -13 149 18 45 34 323 314 348 351 20 30 21 102 2 138 -18 33 -1982 1995 -2013 2011 -32 16 -105 13 -133 -5z m2024 -2073 c-2 -3 -193 183 -422 412 l-418 417 -42 0 c-70 0 -82 -12 -82 -78 l0 -57 415 -415 415 -415 -92 -92 -92 -93 -38 37 c-34 33 -36 38 -22 57 19 27 18 86 -2 114 -12 18 -25 22 -68 22 -28 0 -57 -5 -64 -12 -10 -9 -16 -9 -29 4 -15 15 -14 19 11 48 21 25 26 42 26 84 0 28 -5 57 -12 64 -7 7 -36 12 -64 12 -42 0 -59 -5 -84 -26 -29 -25 -33 -26 -48 -11 -13 13 -14 20 -4 29 16 16 16 110 0 126 -15 15 -124 16 -133 1 -5 -7 -13 -4 -26 7 -14 12 -16 21 -9 35 14 25 12 113 -2 127 -14 14 -102 16 -127 2 -14 -7 -23 -5 -35 9 -15 16 -14 19 14 46 26 25 30 36 30 81 0 43 -4 56 -22 68 -38 27 -92 20 -133 -16 -33 -28 -38 -30 -52 -16 -12 12 -13 20 -4 36 16 30 13 94 -5 120 -12 17 -25 22 -60 22 -25 0 -55 -5 -66 -11 -26 -14 -60 13 -40 33 7 7 12 36 12 64 0 43 -4 56 -22 68 -28 20 -74 20 -109 2 -23 -12 -29 -12 -43 2 -14 14 -12 19 14 49 23 26 30 43 30 76 0 65 -21 87 -80 87 -40 0 -55 -5 -83 -30 -33 -29 -35 -29 -51 -11 -11 13 -14 21 -7 26 15 9 14 118 -1 133 -16 16 -110 16 -126 0 -10 -9 -16 -8 -29 5 -15 14 -15 21 -5 37 17 27 15 91 -4 118 -12 17 -25 22 -60 22 -25 0 -55 -5 -66 -11 -16 -9 -24 -8 -36 5 -15 14 -14 18 12 45 35 37 46 100 22 136 -14 21 -24 25 -69 25 -46 0 -57 -4 -82 -30 l-29 -30 -38 37 -38 37 92 93 93 93 415 -415 415 -415 57 0 c66 0 78 12 78 82 l0 42 -415 416 c-228 228 -415 420 -415 425 0 6 441 -431 980 -970 538 -538 977 -981 974 -984z">
			</path>
			<path id="pWWBhvioq"
				d="M1307 1432 c-20 -22 -23 -112 -5 -130 20 -20 112 -15 131 6 24 27 22 97 -3 122 -27 27 -100 28 -123 2z"></path>
		</g>
	</g>
	<g id="l3LiMEWOYVxEQmbG0yvewwt" fill="rgb(209,161,132)" style="transform: none;">
		<g>
			<path id="p1THz0kcS"
				d="M212 2227 c-61 -62 -112 -120 -112 -130 0 -20 96 -127 114 -127 7 0 30 18 51 40 44 45 76 51 99 19 19 -27 12 -45 -38 -97 l-40 -42 46 -47 46 -46 33 27 c38 32 68 31 88 -5 14 -25 13 -29 -13 -64 l-29 -37 46 -46 46 -46 29 27 c30 29 60 35 80 15 20 -20 14 -63 -13 -88 l-25 -24 47 -48 47 -47 47 44 c54 50 80 56 103 23 24 -33 20 -44 -29 -97 l-44 -47 42 -42 c48 -47 57 -50 81 -23 24 26 51 31 75 14 29 -19 26 -51 -6 -85 l-27 -29 46 -46 46 -46 32 26 c38 33 64 34 84 5 22 -31 20 -41 -11 -78 l-26 -32 46 -46 46 -46 50 47 c28 26 54 47 58 47 20 0 53 -33 53 -53 0 -14 -18 -41 -45 -67 l-45 -44 47 -48 46 -47 29 24 c71 60 133 -2 73 -73 l-24 -29 42 -41 c49 -48 57 -50 82 -22 20 22 64 27 83 8 20 -20 14 -50 -15 -80 l-27 -29 46 -46 47 -47 45 42 c46 42 81 53 104 30 23 -23 12 -58 -30 -104 l-42 -45 47 -47 46 -46 29 27 c35 34 67 35 88 2 17 -27 18 -25 -31 -91 -7 -10 3 -27 40 -64 79 -80 79 -80 211 51 l114 114 -430 430 c-360 360 -430 435 -430 458 0 15 7 30 15 33 24 10 18 27 -28 72 -43 42 -43 43 -62 22 -20 -22 -55 -26 -73 -8 -18 18 -14 53 8 73 21 19 20 19 -22 62 -45 46 -62 52 -72 28 -3 -8 -18 -15 -33 -15 -23 0 -98 70 -458 430 l-430 430 -113 -113z">
			</path>
		</g>
	</g>
	<g id="l2dfMQPzZS8eoKqgrF9ukec" fill="rgb(198,138,101)" style="transform: none;">
		<g>
			<path id="pqdNRIhFY"
				d="M420 2435 l-24 -26 432 -432 c238 -238 432 -438 432 -445 0 -8 -4 -21 -10 -31 -7 -14 0 -26 35 -61 38 -37 46 -41 60 -30 34 29 93 -31 64 -66 -10 -12 -5 -22 31 -59 35 -35 47 -42 61 -35 10 6 23 10 31 10 7 0 207 -195 445 -432 l433 -433 26 27 c20 19 25 32 21 50 -9 34 -1967 1988 -1993 1988 -11 0 -31 -11 -44 -25z">
			</path>
		</g>
	</g>
</svg>