<svg class="img-fluid" id="outputsvg" xmlns="http://www.w3.org/2000/svg" width="256" height="256"
	viewBox="0 0 2560 2560">
	<g id="l72YyCtCcUJJo7q2rRKxZSx" fill="rgb(0,0,0)" style="transform: none;">
		<g>
			<path id="pwITF0FuA"
				d="M87 2423 c-10 -3 -22 -16 -28 -29 -5 -15 -9 -283 -9 -650 l0 -625 -23 -30 c-22 -30 -22 -35 -25 -398 -3 -415 -1 -434 58 -463 32 -16 80 -18 561 -18 522 0 526 0 545 -21 59 -66 169 -66 228 0 19 21 23 21 545 21 481 0 529 2 561 18 59 29 61 48 58 462 -3 347 -4 367 -23 395 -19 29 -20 51 -25 672 -4 508 -8 645 -18 655 -10 11 -241 13 -1200 14 -653 1 -1195 0 -1205 -3z m313 -183 c0 -102 34 -140 125 -140 l45 0 0 -170 0 -170 -195 0 -195 0 0 270 0 270 110 0 110 0 0 -60z m1600 40 c0 -20 -7 -20 -720 -20 -713 0 -720 0 -720 20 0 20 7 20 720 20 713 0 720 0 720 -20z m380 -250 l0 -270 -195 0 -195 0 0 170 0 170 45 0 c91 0 125 38 125 140 l0 60 110 0 110 0 0 -270z m-1400 -149 c0 -218 0 -220 24 -248 l24 -28 252 0 252 0 24 28 c24 28 24 30 24 248 l0 219 125 0 125 0 0 -270 0 -270 -550 0 -550 0 0 270 0 270 125 0 125 0 0 -219z m220 49 l0 -170 -30 0 -30 0 0 170 0 170 30 0 30 0 0 -170z m220 0 l0 -170 -30 0 -30 0 0 170 0 170 30 0 30 0 0 -170z m-850 -550 l0 -220 -195 0 -195 0 0 220 0 220 195 0 195 0 0 -220z m1810 0 l0 -220 -195 0 -195 0 0 220 0 220 195 0 195 0 0 -220z m-550 -128 l0 -147 -275 -275 -275 -275 -275 275 -275 275 0 147 0 148 550 0 550 0 0 -148z m-1430 -295 c0 -55 35 -112 118 -189 56 -53 64 -58 106 -58 60 0 86 24 86 81 0 37 -6 48 -72 115 -39 41 -68 77 -64 81 4 4 154 -140 334 -320 l327 -327 45 0 45 0 327 327 c180 180 331 324 335 320 4 -4 -154 -168 -350 -365 l-357 -357 -143 143 -142 142 -51 0 c-27 0 -55 -5 -62 -12 -7 -7 -12 -37 -12 -67 0 -50 3 -59 37 -93 l37 -38 -407 0 -407 0 0 330 0 330 135 0 135 0 0 -43z m2030 -287 l0 -330 -407 0 -407 0 256 257 c141 142 263 272 272 290 9 18 16 50 16 73 l0 40 135 0 135 0 0 -330z">
			</path>
			<path id="p1GczqwS8a"
				d="M1182 1277 c-93 -34 -142 -112 -142 -228 0 -95 30 -163 92 -205 39 -28 47 -29 148 -29 101 0 109 1 148 29 62 42 92 110 92 205 0 157 -87 242 -246 240 -33 0 -74 -6 -92 -12z m143 -187 c24 -26 27 -34 19 -57 -5 -14 -21 -35 -36 -46 l-28 -21 -27 21 c-16 11 -32 32 -37 46 -8 23 -5 31 19 57 16 16 36 30 45 30 9 0 29 -14 45 -30z">
			</path>
			<path id="pwmTArP24"
				d="M722 698 c-7 -7 -12 -38 -12 -70 0 -66 12 -78 79 -78 53 0 81 27 81 78 0 61 -22 82 -84 82 -28 0 -57 -5 -64 -12z">
			</path>
		</g>
	</g>
	<g id="l3CH8H5rwGcd6hXyeXY3QtX" fill="rgb(255,90,88)" style="transform: none;">
		<g>
			<path id="pD5K8lwNz"
				d="M546 1014 c-29 -28 -17 -54 59 -134 41 -43 75 -84 75 -90 0 -6 -12 -22 -26 -35 l-27 -25 44 -49 c50 -56 60 -60 74 -28 14 31 58 35 79 5 21 -30 20 -35 -10 -63 l-27 -25 44 -49 c50 -56 60 -60 74 -28 6 12 21 24 34 25 19 3 52 -25 170 -142 108 -107 154 -146 172 -146 32 0 749 714 749 747 0 28 -25 53 -53 53 -15 0 -124 -102 -352 -330 -182 -182 -337 -330 -345 -330 -8 0 -163 149 -345 330 -228 228 -337 330 -352 330 -12 0 -29 -7 -37 -16z">
			</path>
		</g>
	</g>
	<g id="l6tyCl1C3KiVv8pD8KLEckt" fill="rgb(198,138,101)" style="transform: none;">
		<g>
			<path id="putgwB8q8" d="M1110 1930 l0 -200 60 0 60 0 0 200 0 200 -60 0 -60 0 0 -200z"></path>
			<path id="pLkFNPBSk" d="M1330 1930 l0 -200 60 0 60 0 0 200 0 200 -60 0 -60 0 0 -200z"></path>
		</g>
	</g>
	<g id="l4bqdC9FulmO1K1SoOgpSeI" fill="rgb(138,167,189)" style="transform: none;">
		<g>
			<path id="pu1jgmgcj" d="M530 2280 l0 -50 750 0 750 0 0 50 0 50 -750 0 -750 0 0 -50z"></path>
			<path id="p15O1qCr7c"
				d="M400 2201 c0 -39 9 -61 26 -61 8 0 14 -6 14 -14 0 -17 22 -26 61 -26 41 0 36 22 -10 41 -29 13 -42 26 -52 53 -16 44 -39 48 -39 7z">
			</path>
			<path id="pCqnlg5hw"
				d="M2121 2194 c-10 -27 -23 -40 -52 -53 -46 -19 -51 -41 -10 -41 39 0 61 9 61 26 0 8 6 14 14 14 17 0 26 22 26 61 0 41 -23 37 -39 -7z">
			</path>
			<path id="p2Lrkt2AU"
				d="M970 1913 c0 -120 3 -228 6 -241 5 -16 14 -22 35 -22 24 0 29 -4 29 -25 0 -22 4 -25 35 -25 44 0 48 26 5 35 -16 4 -39 18 -50 32 -19 24 -20 40 -20 244 0 212 -1 219 -20 219 -19 0 -20 -7 -20 -217z">
			</path>
			<path id="ptprj1ESF"
				d="M1550 1911 c0 -204 -1 -220 -20 -244 -11 -14 -34 -28 -50 -32 -43 -9 -39 -35 5 -35 31 0 35 3 35 25 0 21 5 25 29 25 21 0 30 6 35 23 3 12 6 120 6 240 0 210 -1 217 -20 217 -19 0 -20 -7 -20 -219z">
			</path>
		</g>
	</g>
	<g id="l720VO1Od1PNwxRRNbKkkwa" fill="rgb(255,123,121)" style="transform: none;">
		<g>
			<path id="p1Cgt9oFzR"
				d="M100 670 l0 -360 467 0 467 0 -67 68 c-57 58 -67 73 -67 103 0 45 -66 115 -99 104 -35 -11 -61 11 -61 53 0 31 -7 45 -39 76 -31 30 -43 36 -64 31 -23 -6 -36 2 -93 56 -85 83 -117 136 -112 189 l4 40 -168 0 -168 0 0 -360z">
			</path>
			<path id="pT2GYuCMu"
				d="M2128 991 c2 -23 -3 -52 -13 -72 -10 -19 -146 -163 -303 -321 l-287 -288 468 0 467 0 0 360 0 360 -168 0 -168 0 4 -39z">
			</path>
		</g>
	</g>
	<g id="l70S4yXRM1zVs1RFbCVBsdJ" fill="rgb(167,189,205)" style="transform: none;">
		<g>
			<path id="p1uygf0WR"
				d="M150 2030 l0 -300 225 0 225 0 0 200 0 200 -56 0 c-48 0 -59 4 -85 29 -27 27 -29 35 -29 100 l0 71 -140 0 -140 0 0 -300z">
			</path>
			<path id="pB1HBsiHP"
				d="M2130 2259 c0 -65 -2 -73 -29 -100 -26 -25 -37 -29 -85 -29 l-56 0 0 -200 0 -200 225 0 225 0 0 300 0 300 -140 0 -140 0 0 -71z">
			</path>
			<path id="p18t9XC9Yp"
				d="M970 1705 c0 -19 5 -35 10 -35 6 0 10 -9 10 -19 0 -27 37 -51 77 -51 23 0 33 5 33 15 0 8 -6 15 -14 15 -25 0 -74 49 -81 80 -9 43 -35 39 -35 -5z">
			</path>
			<path id="p2oNe05t0"
				d="M1555 1710 c-7 -31 -56 -80 -81 -80 -8 0 -14 -7 -14 -15 0 -10 10 -15 33 -15 40 0 77 24 77 51 0 10 5 19 10 19 6 0 10 16 10 35 0 44 -26 48 -35 5z">
			</path>
		</g>
	</g>
	<g id="l4CEUGQozItX0XkQdGgU7Ht" fill="rgb(197,211,222)" style="transform: none;">
		<g>
			<path id="pFAjArmWJ"
				d="M700 1830 l0 -300 580 0 580 0 0 300 0 300 -150 0 -150 0 0 -210 c0 -223 -6 -256 -49 -280 -26 -13 -436 -13 -462 0 -43 24 -49 57 -49 280 l0 210 -150 0 -150 0 0 -300z">
			</path>
			<path id="pDPhOPPHX" d="M150 1380 l0 -250 225 0 225 0 0 250 0 250 -225 0 -225 0 0 -250z"></path>
			<path id="p16Tlre1q8" d="M1960 1380 l0 -250 225 0 225 0 0 250 0 250 -225 0 -225 0 0 -250z"></path>
		</g>
	</g>
	<g id="l6e1h0ppyPgZ2CLs7XF3AQ4" fill="rgb(207,245,253)" style="transform: none;">
		<g>
			<path id="pUf3cqdP6"
				d="M1207 1122 c-68 -71 -23 -182 73 -182 96 0 141 111 73 182 -22 23 -35 28 -73 28 -38 0 -51 -5 -73 -28z"></path>
		</g>
	</g>
	<g id="l2gb78wuV5os6nkQD6MQHDp" fill="rgb(255,255,255)" style="transform: none;">
		<g>
			<path id="psHahpcfd"
				d="M700 1252 l0 -177 290 -290 290 -290 290 290 290 290 0 177 0 178 -580 0 -580 0 0 -178z m641 -3 c84 -26 149 -113 149 -200 0 -63 -40 -139 -92 -175 -37 -26 -50 -29 -118 -29 -68 0 -81 3 -118 29 -83 57 -114 174 -71 263 46 95 150 141 250 112z">
			</path>
		</g>
	</g>
</svg>