<svg class="img-fluid" id="outputsvg" xmlns="http://www.w3.org/2000/svg" width="256" height="256"
	viewBox="0 0 2560 2560">
	<g id="l5woK6xRWpEuMcqWJ84Dxdzj" fill="rgb(0,0,0)" stroke="rgb(0,0,0)" stroke-width="1" fill-rule="evenodd"
		style="transform: none;">
		<g>
			<path id="pYcWqZfaK"
				d="M327 2519 C262 2481 227 2448 189 2389 C155 2336 150 2281 177 2257 C205 2232 517 2080 540 2080 C568 2080 610 2123 610 2152 C610 2188 481 2512 459 2532 C430 2558 386 2553 327 2519 M347 2451 C283 2409 213 2321 231 2305 C247 2291 540 2151 540 2158 C540 2163 533 2182 526 2201 C518 2219 491 2290 466 2357 C435 2439 414 2480 405 2480 C396 2480 370 2467 347 2451 ">
			</path>
			<path id="pN2oj98sU"
				d="M2180 2190 L2165 2202C2153 2212 2138 2208 2085 2182 C2049 2164 2020 2153 2020 2157 C2020 2161 2046 2234 2079 2318 C2112 2403 2141 2475 2144 2478 C2147 2481 2165 2476 2185 2466 C2204 2457 2239 2432 2263 2409 C2288 2387 2313 2355 2320 2337 C2330 2314 2330 2305 2322 2302 C2316 2300 2299 2289 2285 2278 C2271 2267 2260 2254 2260 2249 C2260 2244 2260 2237 2260 2235 L2260 2230L2260 2230 L2263 2230C2264 2230 2271 2224 2277 2218 C2286 2209 2296 2210 2319 2219 C2336 2226 2361 2241 2375 2252 C2393 2266 2400 2281 2400 2307 C2400 2330 2388 2360 2369 2391 C2352 2417 2322 2453 2303 2469 C2284 2486 2247 2511 2219 2525 C2192 2538 2159 2550 2146 2550 C2133 2550 2112 2542 2101 2532 C2089 2522 2052 2442 2015 2345 C1979 2252 1950 2165 1950 2152 C1950 2139 1961 2118 1974 2104 C1988 2091 2009 2080 2022 2080 C2034 2080 2074 2095 2110 2114 C2155 2137 2175 2153 2177 2168 L2180 2190">
			</path>
			<path id="pp4usTImp"
				d="M898 2404 C880 2381 950 2255 981 2255 C1017 2255 1015 2288 975 2353 C937 2414 916 2428 898 2404 "></path>
			<path id="ptyUXFfoN"
				d="M1605 2397 C1573 2346 1547 2281 1553 2266 C1556 2257 1568 2250 1579 2250 C1606 2250 1676 2384 1660 2405 C1645 2426 1621 2423 1605 2397 ">
			</path>
			<path id="ptAxqPoOp"
				d="M1060 680 L1070 694C1077 705 1072 724 1050 769 C1033 802 1008 836 995 845 C979 855 877 875 712 899 C570 919 448 939 441 943 C435 947 430 956 430 962 C430 968 520 1061 630 1169 C816 1350 830 1367 830 1400 C830 1419 811 1538 790 1665 C768 1791 750 1907 750 1921 C750 1936 754 1951 760 1955 C765 1958 878 1904 1009 1835 C1166 1753 1259 1710 1279 1710 C1296 1710 1338 1724 1372 1741 C1407 1758 1442 1779 1452 1787 C1462 1796 1470 1809 1470 1816 L1470 1830L1470 1830 L1467 1830C1466 1830 1457 1836 1448 1842 C1436 1850 1418 1845 1365 1816 C1329 1796 1290 1780 1280 1780 C1270 1780 1199 1813 1123 1853 C1047 1893 938 1950 882 1979 C786 2028 777 2030 745 2020 C725 2013 703 1998 695 1987 C686 1975 679 1951 679 1935 C679 1918 698 1790 722 1651 L764 1398 567 1203 C458 1096 367 997 364 984 C360 971 362 948 367 933 C372 918 387 898 400 888 C418 875 492 860 675 834 C812 815 934 794 947 789 C959 784 980 758 994 730 C1012 695 1026 680 1040 680 L1060 680">
			</path>
			<path id="pJDLdDcJm"
				d="M1550 1870 L1550 1866C1550 1863 1556 1859 1565 1856 C1573 1853 1627 1875 1686 1906 C1760 1945 1795 1958 1802 1951 C1810 1943 1810 1920 1803 1872 C1797 1835 1792 1803 1791 1802 L1790 1800L1790 1800 L1790 1780L1790 1760L1785 1755 L1780 1750 L1779 1737C1779 1730 1768 1659 1755 1580 C1741 1500 1729 1419 1729 1400 C1729 1367 1743 1351 1931 1168 C2073 1029 2131 967 2126 956 C2123 947 2110 938 2097 935 C2085 932 1965 914 1832 896 C1675 873 1580 856 1564 845 C1549 835 1510 769 1459 669 L1380 510L1380 510 L1379 507C1379 506 1360 467 1337 422 C1312 373 1289 340 1280 340 C1270 340 1240 388 1200 467 C1157 550 1128 595 1117 597 L1100 600L1100 600 L1090 591C1084 587 1080 576 1080 566 C1080 557 1106 496 1139 430 C1172 365 1211 302 1225 291 C1240 279 1264 270 1280 270 C1295 270 1319 279 1335 292 C1354 307 1400 389 1477 547 C1558 714 1597 783 1613 790 C1625 795 1747 815 1885 834 C2067 860 2141 875 2159 888 C2172 898 2187 918 2192 933 C2197 948 2199 971 2195 984 C2192 997 2101 1096 1992 1203 L1795 1397 1835 1626 C1856 1752 1875 1878 1878 1907 C1880 1944 1877 1968 1866 1984 C1857 1997 1834 2013 1815 2019 C1781 2030 1774 2028 1672 1976 C1613 1946 1561 1915 1557 1908 C1552 1901 1549 1889 1549 1882 L1550 1870">
			</path>
			<path id="pdS69OsWV"
				d="M230 1758 C208 1732 221 1711 285 1669 C338 1635 352 1629 365 1640 C398 1667 381 1689 275 1750 C248 1765 237 1767 230 1758 ">
			</path>
			<path id="ptXnUEUDt"
				d="M2245 1727 C2179 1684 2167 1663 2194 1640 C2207 1629 2221 1635 2274 1669 C2341 1713 2355 1739 2325 1760 C2313 1767 2293 1759 2245 1727 ">
			</path>
			<path id="pQKisuE6J"
				d="M60 1400 C11 1376 -7 1258 27 1190 C53 1138 89 1138 190 1190 C275 1235 295 1256 285 1296 C280 1316 260 1330 194 1360 C86 1411 83 1411 60 1400 M80 1280 C80 1253 83 1229 87 1226 C91 1224 119 1234 149 1249 L204 1277 152 1303 C123 1318 95 1330 90 1330 C84 1330 80 1307 80 1280 ">
			</path>
			<path id="p0F4bEeLD"
				d="M2379 1368 C2235 1302 2233 1261 2369 1190 C2470 1138 2506 1138 2532 1190 C2569 1264 2544 1391 2490 1405 C2478 1407 2430 1392 2379 1368 M2405 1307 C2380 1295 2360 1282 2360 1279 C2359 1270 2467 1220 2473 1227 C2477 1230 2480 1255 2480 1281 C2480 1338 2472 1341 2405 1307 ">
			</path>
			<path id="pK3n10w2X"
				d="M291 661 C226 629 216 619 226 595 C234 572 262 576 335 609 C398 637 410 653 390 678 C374 696 355 692 291 661 ">
			</path>
			<path id="pn7fCBpEy"
				d="M2170 678 C2149 653 2161 637 2224 609 C2297 576 2325 572 2333 595 C2343 620 2332 630 2263 661 C2192 693 2184 694 2170 678 ">
			</path>
			<path id="p6TnkhEQn"
				d="M352 398 C265 354 187 310 177 302 C118 249 208 101 340 34 C398 5 430 3 458 27 C481 46 610 369 610 407 C610 438 566 480 535 480 C521 480 439 443 352 398 M382 333 C301 291 233 256 231 254 C220 244 257 185 296 150 C341 108 405 72 415 82 C428 95 539 390 535 400 C532 405 463 375 382 333 ">
			</path>
			<path id="prLB6rPOO"
				d="M1975 455 C1961 441 1950 420 1950 407 C1950 369 2078 46 2101 27 C2129 3 2161 5 2219 34 C2351 101 2441 249 2382 302 C2354 326 2042 480 2020 480 C2009 480 1988 468 1975 455 M2020 402 C2020 392 2136 89 2143 83 C2153 73 2221 110 2263 149 C2302 185 2339 244 2328 254 C2302 277 2020 413 2020 402 ">
			</path>
			<path id="pwpxwWpM5"
				d="M879 217 C868 177 857 139 854 132 C843 97 884 74 907 102 C913 109 927 148 938 189 C960 268 956 290 920 290 C903 290 896 276 879 217 ">
			</path>
			<path id="pdNZCyN5z"
				d="M1610 276 C1599 262 1632 126 1652 102 C1675 74 1716 97 1705 132 C1702 139 1691 177 1680 217 C1663 276 1656 290 1640 290 C1629 290 1615 284 1610 276 ">
			</path>
		</g>
	</g>
	<g id="l0DYTeY6TnycbMPgiVyQFYj" fill="rgb(251,232,139)" stroke="rgb(251,232,139)" stroke-width="1" fill-rule="evenodd"
		style="transform: none;">
		<g>
			<path id="p9EloGcYe"
				d="M1380 510 L1459 669C1510 769 1549 835 1564 845 C1580 856 1675 873 1832 896 C1965 914 2085 932 2097 935 C2110 938 2123 947 2126 956 C2131 967 2073 1029 1931 1168 C1743 1351 1729 1367 1729 1400 C1729 1419 1741 1500 1755 1580 C1768 1659 1779 1730 1779 1737 L1780 1750L1785 1755 L1790 1760 L1790 1780L1790 1800L1790 1800 L1785 1800C1782 1800 1777 1800 1775 1800 C1772 1800 1668 1746 1542 1680 C1416 1614 1303 1560 1291 1560 C1278 1560 1204 1593 1125 1635 C1047 1676 973 1710 961 1710 C949 1710 936 1703 933 1694 C930 1686 941 1599 958 1501 C975 1403 990 1308 990 1289 C990 1259 977 1242 883 1148 C788 1053 778 1039 783 1015 C787 1001 800 985 812 979 C824 974 900 961 979 950 C1059 938 1133 923 1144 916 C1155 908 1207 814 1260 706 C1312 598 1360 510 1367 510 L1380 510">
			</path>
			<path id="p8Rvm4mQI"
				d="M80 1280 C80 1253 83 1229 87 1226 C91 1224 119 1234 149 1249 L204 1277 152 1303 C123 1318 95 1330 90 1330 C84 1330 80 1307 80 1280 ">
			</path>
			<path id="p7Ckj5iJD"
				d="M2405 1307 C2380 1295 2360 1282 2360 1279 C2359 1270 2467 1220 2473 1227 C2477 1230 2480 1255 2480 1281 C2480 1338 2472 1341 2405 1307 ">
			</path>
		</g>
	</g>
	<g id="l1cQsWBHNSt1eFXmjSYLQjsj" fill="rgb(251,227,113)" stroke="rgb(251,227,113)" stroke-width="1"
		fill-rule="evenodd" style="transform: none;">
		<g>
			<path id="p2HpkQMd8"
				d="M1060 680 L1080 640L1100 600L1100 600 L1117 597C1128 595 1157 550 1200 467 C1240 388 1270 340 1280 340 C1289 340 1312 373 1337 422 C1360 467 1379 506 1379 507 L1380 510L1380 510 L1367 510C1360 510 1312 598 1260 706 C1207 814 1155 908 1144 916 C1133 923 1059 938 979 950 C900 961 824 974 812 979 C800 985 787 1001 783 1015 C778 1039 788 1053 883 1148 C977 1242 990 1259 990 1289 C990 1308 975 1403 958 1501 C941 1599 930 1686 933 1694 C936 1703 949 1710 961 1710 C973 1710 1047 1676 1125 1635 C1204 1593 1278 1560 1291 1560 C1303 1560 1416 1614 1542 1680 C1668 1746 1772 1800 1775 1800 C1777 1800 1782 1800 1785 1800 L1790 1800L1790 1800 L1791 1802C1792 1803 1797 1835 1803 1872 C1810 1920 1810 1943 1802 1951 C1795 1958 1760 1945 1686 1906 C1627 1875 1573 1853 1565 1856 C1556 1859 1550 1863 1550 1866 L1550 1870L1550 1870 L1510 1850L1470 1830L1470 1830 L1470 1816C1470 1809 1462 1796 1452 1787 C1442 1779 1407 1758 1372 1741 C1338 1724 1296 1710 1279 1710 C1259 1710 1166 1753 1009 1835 C878 1904 765 1958 760 1955 C754 1951 750 1936 750 1921 C750 1907 768 1791 790 1665 C811 1538 830 1419 830 1400 C830 1367 816 1350 630 1169 C520 1061 430 968 430 962 C430 956 435 947 441 943 C448 939 570 919 712 899 C877 875 979 855 995 845 C1008 836 1033 802 1050 769 C1072 724 1077 705 1070 694 L1060 680">
			</path>
		</g>
	</g>
	<g id="lWxO0SNF3oKiivDtyMDeBkj" fill="rgb(248,212,71)" stroke="rgb(248,212,71)" stroke-width="1" fill-rule="evenodd"
		style="transform: none;">
		<g>
			<path id="pqKf1Rsqi"
				d="M347 2451 C283 2409 213 2321 231 2305 C247 2291 540 2151 540 2158 C540 2163 533 2182 526 2201 C518 2219 491 2290 466 2357 C435 2439 414 2480 405 2480 C396 2480 370 2467 347 2451 ">
			</path>
			<path id="pNXjrJZp5"
				d="M2180 2190 L2220 2210L2260 2230L2260 2230 L2260 2235C2260 2237 2260 2244 2260 2249 C2260 2254 2271 2267 2285 2278 C2299 2289 2316 2300 2322 2302 C2330 2305 2330 2314 2320 2337 C2313 2355 2288 2387 2263 2409 C2239 2432 2204 2457 2185 2466 C2165 2476 2147 2481 2144 2478 C2141 2475 2112 2403 2079 2318 C2046 2234 2020 2161 2020 2157 C2020 2153 2049 2164 2085 2182 C2138 2208 2153 2212 2165 2202 L2180 2190">
			</path>
			<path id="p1DH18Df1b"
				d="M382 333 C301 291 233 256 231 254 C220 244 257 185 296 150 C341 108 405 72 415 82 C428 95 539 390 535 400 C532 405 463 375 382 333 ">
			</path>
			<path id="pHhRRZ2je"
				d="M2020 402 C2020 392 2136 89 2143 83 C2153 73 2221 110 2263 149 C2302 185 2339 244 2328 254 C2302 277 2020 413 2020 402 ">
			</path>
		</g>
	</g>
</svg>