<svg class="img-fluid" id="outputsvg" xmlns="http://www.w3.org/2000/svg" width="256" height="256"
	viewBox="0 0 2560 2560">
	<g id="l3Z8SX6Lfkd5XAkvya0Qgs0" fill="rgb(0,0,0)" style="transform: none;">
		<g>
			<path id="pkzIKR4yq"
				d="M472 2549 c-62 -18 -62 -20 -62 -582 l0 -504 -24 -12 c-37 -20 -46 -53 -46 -162 0 -93 2 -102 25 -124 18 -18 35 -25 65 -25 22 0 40 -4 40 -10 0 -21 -140 -394 -154 -409 -20 -22 -56 -120 -56 -152 0 -14 -9 -52 -20 -83 -31 -91 -12 -117 117 -162 78 -27 85 -28 110 -14 19 10 37 36 53 75 14 33 35 75 46 93 12 19 26 53 32 75 5 23 15 64 21 92 7 27 21 67 31 90 l19 40 -5 -110 c-7 -155 -7 -228 3 -323 7 -74 11 -86 36 -108 22 -19 39 -24 83 -24 l54 0 0 -79 c0 -63 4 -84 19 -102 19 -24 22 -24 233 -27 235 -4 278 2 296 43 8 18 12 127 13 353 l1 327 34 -99 c20 -59 31 -108 28 -122 -8 -30 23 -120 46 -137 9 -7 28 -39 41 -72 18 -46 30 -62 52 -69 32 -12 98 3 167 37 58 28 70 59 48 126 l-16 50 29 10 c23 8 29 7 29 -4 0 -8 12 -22 26 -32 24 -16 29 -15 81 2 96 33 96 31 13 281 -41 123 -81 225 -92 236 -23 23 -58 20 -117 -10 -59 -29 -60 -39 -19 -164 28 -85 35 -114 25 -120 -35 -22 -42 -8 -125 240 -46 136 -83 250 -83 255 1 4 16 7 35 7 25 0 40 7 55 26 18 23 21 41 21 136 0 102 -1 110 -25 133 -13 14 -29 25 -35 25 -7 0 -10 86 -10 260 l0 260 59 0 59 0 73 -217 c84 -255 97 -283 146 -320 36 -28 38 -28 179 -27 117 0 147 3 168 18 55 35 53 47 -34 303 -44 130 -80 237 -80 239 0 2 11 4 24 4 15 0 34 12 50 31 l26 31 0 219 c0 245 -5 268 -61 288 -41 14 -1698 14 -1747 0z m1036 -116 l3 -23 -500 0 c-479 0 -501 1 -501 18 0 10 3 22 7 25 3 4 227 6 497 5 l491 -3 3 -22z m670 -165 l2 -188 -98 0 c-63 0 -102 -4 -110 -12 -16 -16 -16 -100 0 -116 7 -7 33 -12 59 -12 43 0 48 -3 57 -29 l10 -29 -105 -7 c-58 -4 -109 -3 -113 1 -5 5 -12 21 -15 37 -6 22 -4 27 12 27 10 0 24 5 31 12 16 16 16 100 0 116 -8 8 -54 12 -140 12 l-128 0 0 190 0 190 268 -2 267 -3 3 -187z m-668 -383 l0 -395 -172 -2 -173 -3 -3 -48 c-5 -78 -7 -77 220 -77 l199 0 -3 -62 -3 -63 -565 0 -565 0 -3 63 -3 62 329 0 c273 0 332 2 341 14 7 8 11 36 9 63 l-3 48 -300 5 -300 5 -3 393 -2 392 500 0 500 0 0 -395z m673 -247 c20 -61 34 -114 31 -117 -3 -3 -43 -8 -88 -9 -77 -4 -84 -2 -113 22 -23 20 -39 49 -61 116 l-30 89 86 4 c48 1 98 4 112 5 24 2 28 -5 63 -110z m-1537 -600 c-13 -35 -43 -117 -66 -183 -24 -66 -46 -124 -50 -128 -11 -13 -83 21 -77 35 2 7 31 86 63 175 l59 163 47 0 47 0 -23 -62z m334 -438 c0 -493 0 -500 -20 -500 -20 0 -20 7 -20 364 0 302 -2 366 -14 375 -8 7 -36 11 -63 9 l-48 -3 -3 -102 c-2 -95 -4 -103 -22 -103 -19 0 -20 8 -20 153 0 121 4 164 18 203 l17 49 5 -75 5 -75 54 -3 c37 -2 57 1 62 10 5 7 9 55 9 106 0 85 1 92 20 92 20 0 20 -7 20 -500z m287 395 l33 -99 0 -392 0 -391 -67 -6 c-38 -4 -78 -7 -90 -7 l-23 0 0 500 0 501 57 -3 56 -3 34 -100z m198 86 c0 -8 -13 -19 -28 -24 -32 -10 -32 -10 -42 21 -6 22 -4 23 32 20 25 -2 38 -8 38 -17z m109 -306 c25 -76 43 -142 38 -146 -4 -4 -18 -10 -32 -14 -25 -6 -26 -2 -74 140 -26 81 -46 148 -44 150 10 10 54 22 59 16 4 -3 27 -69 53 -146z m-1130 -181 c26 -9 45 -18 43 -20 -2 -2 -28 5 -58 15 -30 11 -49 20 -43 20 6 1 32 -6 58 -15z m366 -104 c0 -5 -13 -10 -30 -10 -16 0 -30 5 -30 10 0 6 14 10 30 10 17 0 30 -4 30 -10z m-423 -45 c20 -8 33 -18 30 -21 -8 -8 -77 16 -77 27 0 12 5 12 47 -6z m1332 -89 c-12 -10 -69 -24 -69 -16 0 5 10 11 23 13 31 6 51 8 46 3z m-914 -26 c0 -22 -29 -18 -33 3 -3 14 1 18 15 15 10 -2 18 -10 18 -18z">
			</path>
		</g>
	</g>
	<g id="lUAcavywNDizTvHWiyxb5L" fill="rgb(63,89,89)" style="transform: none;">
		<g>
			<path id="pMY5M5PPB" d="M1610 2470 c0 -13 7 -20 20 -20 13 0 20 7 20 20 0 13 -7 20 -20 20 -13 0 -20 -7 -20 -20z">
			</path>
			<path id="pQRDhB0jh" d="M2160 2471 c0 -16 6 -21 26 -21 33 0 30 33 -4 38 -17 3 -22 -2 -22 -17z"></path>
			<path id="pycmez68P" d="M480 2400 c0 -13 7 -20 20 -20 13 0 20 7 20 20 0 13 -7 20 -20 20 -13 0 -20 -7 -20 -20z">
			</path>
			<path id="pNqOc2CjO" d="M2170 2070 c0 -13 7 -20 20 -20 13 0 20 7 20 20 0 13 -7 20 -20 20 -13 0 -20 -7 -20 -20z">
			</path>
			<path id="pvqQPsEWh" d="M1813 1938 c19 -46 37 -48 37 -4 0 32 -3 36 -25 36 -24 0 -25 -1 -12 -32z"></path>
			<path id="pYjrmyp6e" d="M1980 1860 c0 -21 10 -24 48 -14 36 10 27 34 -13 34 -28 0 -35 -4 -35 -20z"></path>
			<path id="p1AMSzL4kn" d="M482 1483 c3 -17 28 -18 306 -23 l302 -5 0 23 0 22 -306 0 c-286 0 -305 -1 -302 -17z">
			</path>
			<path id="pl3NQVf5z" d="M1190 1478 l0 -23 175 3 c166 3 175 4 175 22 0 19 -8 20 -175 20 -175 0 -175 0 -175 -22z">
			</path>
			<path id="poGuhKhl9"
				d="M1090 1425 c0 -8 -9 -20 -20 -27 -29 -19 -24 -28 15 -28 33 0 35 2 35 35 0 24 -5 35 -15 35 -8 0 -15 -7 -15 -15z">
			</path>
			<path id="p1HrK8i20U"
				d="M412 1223 c3 -17 40 -18 598 -18 558 0 595 1 598 18 3 16 -31 17 -598 17 -567 0 -601 -1 -598 -17z"></path>
			<path id="pVILhsEZ6"
				d="M476 937 c-38 -105 -71 -197 -73 -203 -4 -12 144 -66 152 -55 2 5 23 59 45 120 22 61 58 161 80 221 39 108 39 110 17 110 -20 0 -30 -22 -96 -204 l-73 -204 -37 15 -38 15 11 41 c6 23 14 44 18 47 4 3 13 28 20 55 7 28 16 52 20 55 4 3 13 28 20 55 7 28 16 52 20 55 4 4 11 20 14 38 5 27 4 32 -12 32 -16 0 -32 -36 -88 -193z">
			</path>
			<path id="pRd0gvaV7"
				d="M1342 1118 c3 -7 13 -37 22 -65 10 -29 21 -53 24 -52 4 0 34 10 67 22 63 24 65 28 45 83 -9 22 -15 24 -86 24 -57 0 -75 -3 -72 -12z">
			</path>
			<path id="pVYCEYQG3"
				d="M906 944 c-6 -22 -11 -25 -36 -22 -26 4 -30 1 -30 -19 0 -20 5 -23 35 -23 19 0 35 5 35 10 0 6 7 10 15 10 10 0 15 11 15 35 0 42 -24 48 -34 9z">
			</path>
			<path id="pHpDDGYUP"
				d="M1468 952 c-26 -9 -49 -20 -53 -23 -5 -5 109 -356 118 -366 3 -2 127 36 134 42 2 1 -25 83 -58 183 -67 200 -60 193 -141 164z m99 -174 l51 -143 -27 -12 c-21 -9 -28 -8 -35 4 -6 12 -96 272 -96 279 0 3 30 11 46 13 6 0 34 -63 61 -141z">
			</path>
			<path id="pLCNcmkdg"
				d="M1803 864 c-8 -4 7 -59 47 -177 32 -95 61 -180 65 -189 8 -21 43 -24 51 -5 2 7 -23 95 -57 195 -62 183 -67 192 -106 176z">
			</path>
			<path id="pfvJuCd4B"
				d="M346 636 c-3 -13 -8 -31 -12 -39 -4 -11 8 -19 40 -30 46 -16 46 -16 46 7 0 16 -8 26 -22 31 l-23 8 23 4 c27 5 28 19 3 33 -31 16 -48 12 -55 -14z">
			</path>
			<path id="pFXe0ken0"
				d="M430 616 c0 -19 7 -26 38 -34 l37 -10 -37 -1 c-21 -1 -38 -6 -38 -12 0 -9 59 -39 78 -39 9 0 36 69 29 76 -3 3 -28 14 -56 24 l-51 20 0 -24z">
			</path>
			<path id="p39rFxPFP"
				d="M1660 526 c-115 -40 -125 -45 -122 -66 1 -13 5 -26 7 -29 9 -8 114 29 122 43 10 16 73 38 73 26 0 -5 20 -2 44 6 40 14 44 18 37 37 -5 12 -14 23 -22 24 -8 1 -70 -18 -139 -41z">
			</path>
			<path id="pVpNklqa8"
				d="M307 468 c-9 -23 -15 -43 -14 -44 2 -2 20 -10 40 -19 37 -15 37 -15 37 10 0 18 -5 25 -20 25 -11 0 -20 7 -20 15 0 8 9 15 20 15 25 0 26 16 1 30 -27 14 -26 15 -44 -32z">
			</path>
			<path id="pGW8vgjBs"
				d="M1670 391 c-25 -9 -51 -19 -57 -21 -16 -6 4 -80 22 -80 17 0 108 31 119 40 11 11 -13 80 -27 79 -7 -1 -32 -9 -57 -18z m25 -41 c-27 -12 -35 -12 -35 0 0 6 12 10 28 9 24 0 25 -1 7 -9z">
			</path>
			<path id="pcgWYg1oe" d="M740 360 c0 -13 7 -20 20 -20 13 0 20 7 20 20 0 13 -7 20 -20 20 -13 0 -20 -7 -20 -20z">
			</path>
			<path id="pryNKhlU4" d="M910 90 c0 -17 7 -20 50 -20 43 0 50 3 50 20 0 17 -7 20 -50 20 -43 0 -50 -3 -50 -20z">
			</path>
			<path id="p1DnAYGeTc" d="M1090 90 c0 -18 7 -20 68 -20 80 0 112 8 112 26 0 11 -20 14 -90 14 -83 0 -90 -1 -90 -20z">
			</path>
		</g>
	</g>
	<g id="l5vJD0H7GMoBpBfNB4fX3Bv" fill="rgb(71,102,107)" style="transform: none;">
		<g>
			<path id="p1FmfLILPx" d="M487 2483 c-16 -15 -6 -33 18 -33 18 0 25 5 25 20 0 20 -28 28 -43 13z"></path>
			<path id="p16aKe2bCO" d="M1490 2471 c0 -16 6 -21 26 -21 33 0 30 33 -4 38 -17 3 -22 -2 -22 -17z"></path>
			<path id="pzzWWoYF4"
				d="M1617 2483 c-4 -3 -7 -12 -7 -20 0 -10 48 -13 245 -13 238 0 245 1 245 20 0 19 -7 20 -238 20 -131 0 -242 -3 -245 -7z">
			</path>
			<path id="pTWC4kSqt" d="M1500 2400 c0 -13 7 -20 20 -20 13 0 20 7 20 20 0 13 -7 20 -20 20 -13 0 -20 -7 -20 -20z">
			</path>
			<path id="px8qkXZcq"
				d="M1160 1405 c0 -33 2 -35 35 -35 39 0 44 9 15 28 -11 7 -20 19 -20 27 0 8 -7 15 -15 15 -10 0 -15 -11 -15 -35z">
			</path>
			<path id="ptpzJD6pf"
				d="M1350 1123 c0 -3 8 -31 17 -60 17 -53 18 -54 47 -49 16 4 31 8 32 9 2 2 -4 26 -13 55 -16 49 -19 52 -50 52 -18 0 -33 -3 -33 -7z">
			</path>
			<path id="pEci0s6to"
				d="M536 1091 c-3 -4 -10 -20 -15 -35 -10 -24 -8 -26 14 -26 22 0 25 4 25 35 0 33 -12 46 -24 26z"></path>
			<path id="pJAEs2ZnS" d="M650 1044 c0 -44 18 -42 37 4 13 31 12 32 -12 32 -22 0 -25 -4 -25 -36z"></path>
			<path id="pB8V488mb"
				d="M496 981 c-3 -4 -10 -20 -15 -35 -10 -24 -8 -26 14 -26 22 0 25 4 25 35 0 33 -12 46 -24 26z"></path>
			<path id="p10YXYBema" d="M610 934 c0 -44 18 -42 37 4 13 31 12 32 -12 32 -22 0 -25 -4 -25 -36z"></path>
			<path id="pnlu27xuy"
				d="M1473 948 c-35 -10 -63 -22 -63 -26 0 -5 7 -17 15 -28 11 -14 17 -16 23 -7 5 8 18 -17 35 -70 31 -97 31 -97 12 -97 -11 0 -9 -15 12 -75 15 -41 32 -75 38 -75 20 0 105 32 111 42 6 9 -102 336 -115 349 -3 3 -34 -2 -68 -13z">
			</path>
			<path id="p1DCx1FQRX"
				d="M456 871 c-3 -4 -10 -20 -15 -35 -10 -24 -8 -26 14 -26 22 0 25 4 25 35 0 33 -12 46 -24 26z"></path>
			<path id="pOgY37ocE"
				d="M1813 863 c-16 -6 -17 -33 -2 -33 6 0 9 -6 6 -12 -6 -19 86 -281 101 -286 17 -5 16 46 -4 99 -8 24 -17 56 -19 71 -6 49 -49 168 -59 167 -6 0 -17 -3 -23 -6z">
			</path>
			<path id="pnDVlJLDv" d="M570 824 c0 -44 18 -42 37 4 13 31 12 32 -12 32 -22 0 -25 -4 -25 -36z"></path>
			<path id="pYaUmJAoq" d="M530 714 c0 -44 18 -42 37 4 13 31 12 32 -12 32 -22 0 -25 -4 -25 -36z"></path>
			<path id="pOFJvdMKQ" d="M340 611 c-14 -26 -13 -28 10 -34 17 -4 20 0 20 24 0 33 -14 38 -30 10z"></path>
			<path id="p1FvY06sYu"
				d="M1783 551 c-4 -14 -13 -21 -31 -21 -14 0 -56 -10 -94 -22 -57 -18 -68 -25 -68 -44 l0 -23 87 30 c48 16 92 34 97 39 6 6 18 10 29 10 13 0 18 6 15 22 -4 29 -28 35 -35 9z">
			</path>
			<path id="p14sRUTKU8"
				d="M480 545 c0 -8 2 -15 4 -15 2 0 11 -3 19 -6 9 -3 16 3 20 15 4 17 0 21 -19 21 -15 0 -24 -6 -24 -15z"></path>
			<path id="pG564C1vp" d="M1917 500 c6 -21 20 -25 42 -11 19 12 5 31 -24 31 -18 0 -22 -4 -18 -20z"></path>
			<path id="pQNRzywSM"
				d="M1658 384 c-49 -15 -67 -44 -28 -44 11 0 20 -6 20 -14 0 -24 15 -26 63 -10 l45 15 -11 35 c-12 38 -19 40 -89 18z">
			</path>
		</g>
	</g>
	<g id="l7PJ4JzNmQyitUU6sXHvkdG" fill="rgb(51,81,197)" style="transform: none;">
		<g>
			<path id="pOkDpKsjM"
				d="M2048 1773 c-10 -2 -18 -11 -18 -19 0 -10 14 -14 58 -14 l58 0 36 -110 36 -110 -34 0 c-28 0 -34 -4 -34 -21 0 -20 3 -21 57 -15 31 4 58 8 60 9 1 2 -19 67 -45 145 l-47 142 -55 -1 c-30 -1 -63 -3 -72 -6z">
			</path>
			<path id="p17HfLE1yz"
				d="M1883 1762 c-8 -5 -8 -15 2 -40 16 -36 35 -43 35 -12 0 13 7 20 20 20 13 0 20 7 20 20 0 16 -7 20 -32 20 -18 0 -38 -4 -45 -8z">
			</path>
			<path id="pWB8oNrfH" d="M1938 1573 c20 -54 42 -68 42 -26 0 52 -11 73 -36 73 l-24 0 18 -47z"></path>
			<path id="pY9hzgytZ"
				d="M765 1043 c-22 -63 -27 -87 -17 -90 15 -6 18 -263 2 -263 -5 0 -10 -18 -10 -40 l0 -40 50 0 49 0 3 102 3 103 28 0 c26 -1 27 1 27 53 0 39 -3 52 -12 49 -7 -2 -21 0 -30 5 -15 7 -18 24 -18 108 0 98 -1 100 -23 100 -20 0 -27 -12 -52 -87z">
			</path>
		</g>
	</g>
	<g id="l4WqDRfc3psGwP6vQwz6agA" fill="rgb(85,121,131)" style="transform: none;">
		<g>
			<path id="p1GWzbPq7v" d="M493 2483 c-21 -8 -15 -43 7 -43 15 0 20 7 20 25 0 25 -4 28 -27 18z"></path>
			<path id="pYGvOAYLv" d="M1360 2470 c0 -19 7 -20 90 -20 70 0 90 3 90 14 0 20 -23 26 -106 26 -67 0 -74 -2 -74 -20z">
			</path>
			<path id="pyuBWWZdW" d="M1360 2400 c0 -20 5 -21 87 -18 74 3 88 6 91 21 3 15 -6 17 -87 17 -85 0 -91 -1 -91 -20z">
			</path>
			<path id="pTzOsTgQs"
				d="M1030 1485 c0 -8 7 -15 15 -15 8 0 24 -9 35 -20 l20 -20 0 35 c0 33 -2 35 -35 35 -24 0 -35 -5 -35 -15z"></path>
			<path id="prZZDgJFW"
				d="M1180 1465 l0 -35 20 20 c11 11 27 20 35 20 8 0 15 7 15 15 0 10 -11 15 -35 15 -33 0 -35 -2 -35 -35z"></path>
			<path id="pUtXqmV86" d="M660 1074 c0 -44 18 -42 37 4 13 31 12 32 -12 32 -22 0 -25 -4 -25 -36z"></path>
			<path id="ptZZ1wYvO" d="M620 964 c0 -44 18 -42 37 4 13 31 12 32 -12 32 -22 0 -25 -4 -25 -36z"></path>
			<path id="pLneFQR0r"
				d="M1443 938 l-32 -11 54 -154 c30 -85 56 -157 59 -160 3 -4 42 12 55 23 3 3 -99 315 -102 313 -1 -1 -16 -6 -34 -11z">
			</path>
			<path id="pf6Xq45gQ" d="M580 854 c0 -44 18 -42 37 4 13 31 12 32 -12 32 -22 0 -25 -4 -25 -36z"></path>
			<path id="pGcKqU7NO"
				d="M1817 862 c-22 -4 -26 14 48 -205 54 -160 62 -176 80 -171 11 4 21 8 23 9 4 3 -119 359 -127 366 -3 3 -14 4 -24 1z">
			</path>
			<path id="paR6fGSTt" d="M540 744 c0 -44 18 -42 37 4 13 31 12 32 -12 32 -22 0 -25 -4 -25 -36z"></path>
			<path id="pNdJ0BVOW" d="M400 625 c0 -22 4 -25 36 -25 44 0 42 18 -4 37 -31 13 -32 12 -32 -12z"></path>
			<path id="p1HDhSkTzP" d="M484 577 c10 -60 23 -67 41 -24 19 47 20 43 -16 56 l-32 11 7 -43z"></path>
			<path id="p17J62O6WL"
				d="M382 578 c3 -7 19 -18 36 -25 31 -13 32 -12 32 12 0 22 -4 25 -36 25 -23 0 -34 -4 -32 -12z"></path>
			<path id="p4zAsi6yB" d="M1763 558 c-27 -9 -33 -16 -33 -39 l0 -28 45 16 c46 15 50 20 39 47 -7 18 -7 18 -51 4z">
			</path>
			<path id="p16vOCvdZa" d="M800 490 c0 -33 3 -40 20 -40 17 0 20 7 20 40 0 33 -3 40 -20 40 -17 0 -20 -7 -20 -40z">
			</path>
			<path id="pyVNKsPxd"
				d="M1574 493 c-34 -11 -41 -18 -37 -34 8 -29 18 -31 58 -15 36 15 38 20 27 47 -6 14 -12 14 -48 2z"></path>
			<path id="p1GiPkqDmu"
				d="M1626 373 c-15 -4 -17 -11 -12 -36 9 -42 18 -50 49 -38 30 12 32 18 17 55 -9 26 -17 28 -54 19z"></path>
		</g>
	</g>
	<g id="l01Ox9j2b4603LZKEQWfA5y" fill="rgb(62,91,200)" style="transform: none;">
		<g>
			<path id="pNcu675jW" d="M2098 1773 c-37 -9 -18 -30 33 -37 28 -4 53 -6 54 -4 1 2 -1 13 -6 26 -8 22 -36 27 -81 15z">
			</path>
			<path id="pfWDoY4aL"
				d="M1920 1763 c-36 -15 -38 -27 -11 -103 14 -40 32 -75 39 -78 17 -5 16 45 -3 98 -19 53 -20 50 10 50 18 0 25 5 25 20 0 20 -26 26 -60 13z">
			</path>
			<path id="pcgkgzC9Y"
				d="M1947 1550 c7 -26 59 -70 84 -70 12 0 19 7 19 20 0 16 -7 20 -30 20 -25 0 -30 4 -30 25 0 20 -5 25 -24 25 -19 0 -23 -4 -19 -20z">
			</path>
			<path id="p3v58ZA58" d="M2130 1500 c0 -21 16 -25 58 -14 39 11 27 34 -18 34 -33 0 -40 -3 -40 -20z"></path>
			<path id="p12OgZLmOv"
				d="M761 1024 c-18 -48 -21 -77 -21 -210 l0 -154 25 0 25 0 0 210 c0 116 -2 210 -4 210 -2 0 -13 -25 -25 -56z">
			</path>
		</g>
	</g>
	<g id="l6o7B0WEoZJU4awvXA6Rrmv" fill="rgb(32,182,159)" style="transform: none;">
		<g>
			<path id="pBczTJ7ak"
				d="M545 1118 c-68 -183 -135 -372 -135 -381 0 -16 129 -62 139 -51 8 9 161 425 161 438 0 3 -27 6 -59 6 -48 0 -60 -3 -64 -17 -4 -17 -5 -17 -6 0 -1 19 -29 23 -36 5z">
			</path>
		</g>
	</g>
	<g id="l7Q9RE1nn7mNGRe5eUut7Dy" fill="rgb(81,105,205)" style="transform: none;">
		<g>
			<path id="pDyfcPKTX"
				d="M2118 1773 c-26 -7 -22 -33 5 -33 19 0 25 -11 46 -80 21 -70 27 -80 47 -80 l23 0 -29 83 c-44 129 -40 124 -92 110z">
			</path>
			<path id="pqe5g4ByZ"
				d="M1918 1763 c-40 -4 -45 -12 -28 -44 13 -23 30 -25 30 -4 0 10 11 15 35 15 28 0 35 4 35 20 0 13 -6 19 -17 18 -10 -1 -35 -3 -55 -5z">
			</path>
			<path id="pL2soBsVU"
				d="M1974 1511 c10 -10 26 -21 37 -24 15 -4 19 0 19 19 0 21 -5 24 -37 24 -35 0 -36 -1 -19 -19z"></path>
			<path id="pP7UsSvvW" d="M2110 1500 c0 -21 16 -25 58 -14 39 11 27 34 -18 34 -33 0 -40 -3 -40 -20z"></path>
			<path id="pLyUSgFLd"
				d="M762 1021 c-7 -22 -12 -106 -12 -200 0 -136 2 -161 15 -161 13 0 15 29 15 200 0 110 -2 200 -3 200 -2 0 -9 -17 -15 -39z">
			</path>
		</g>
	</g>
	<g id="l5dMSwk46h62PE6h73rNP52" fill="rgb(104,141,151)" style="transform: none;">
		<g>
			<path id="pzk6ZUEWo"
				d="M491 2476 c-7 -8 -11 -32 -9 -53 l3 -38 435 -3 c239 -1 450 0 467 3 20 4 33 12 33 20 0 13 -63 15 -450 15 -393 0 -450 2 -450 15 0 13 57 15 450 15 376 0 450 2 450 14 0 7 -10 16 -22 20 -13 3 -219 6 -459 6 -367 0 -438 -2 -448 -14z">
			</path>
			<path id="pCB1cV9NW"
				d="M480 1890 c0 -413 0 -420 20 -420 20 0 20 7 20 420 0 413 0 420 -20 420 -20 0 -20 -7 -20 -420z"></path>
			<path id="plz1m84U1"
				d="M1078 1458 c7 -7 12 -22 12 -35 0 -16 6 -23 20 -23 16 0 20 7 20 35 0 33 -2 35 -32 35 -25 0 -29 -3 -20 -12z">
			</path>
			<path id="pn3mQTx6t" d="M370 635 c0 -22 4 -25 36 -25 44 0 42 18 -4 37 -31 13 -32 12 -32 -12z"></path>
			<path id="pBBYv2vCJ"
				d="M450 605 c0 -19 -5 -25 -21 -25 -34 0 -16 -24 31 -41 l44 -16 19 34 c10 20 17 36 15 37 -2 2 -22 10 -45 19 l-43 17 0 -25z">
			</path>
			<path id="pAlxbcGeS"
				d="M1696 531 c-61 -20 -112 -42 -114 -50 -5 -14 21 -13 114 3 42 8 124 41 124 51 -1 32 -18 32 -124 -4z"></path>
			<path id="pN1hAXWTV" d="M720 490 c0 -33 3 -40 20 -40 17 0 20 7 20 40 0 33 -3 40 -20 40 -17 0 -20 -7 -20 -40z">
			</path>
		</g>
	</g>
	<g id="l3D9PqNRkLiR6NHyWC7Ca0d" fill="rgb(251,119,34)" style="transform: none;">
		<g>
			<path id="pdE107yM2"
				d="M2058 2483 c-10 -2 -18 -11 -18 -19 0 -10 14 -14 54 -14 29 0 68 -3 85 -6 26 -6 31 -4 31 14 0 11 -7 23 -16 26 -18 7 -109 6 -136 -1z">
			</path>
			<path id="pyMFlRpB5"
				d="M1850 2062 c0 -4 9 -13 20 -20 39 -24 18 -72 -32 -72 -32 0 -33 -6 -9 -75 11 -31 24 -51 36 -54 15 -3 17 2 12 30 -3 19 -9 44 -13 57 -6 19 -3 22 24 22 32 0 42 14 42 60 0 48 -9 60 -46 60 -19 0 -34 -3 -34 -8z">
			</path>
			<path id="p18B0pzKME"
				d="M1956 2054 c-10 -27 -7 -89 6 -102 16 -16 78 -16 78 1 0 7 -10 17 -22 22 -31 13 -35 50 -9 67 30 19 26 28 -13 28 -22 0 -36 -6 -40 -16z">
			</path>
			<path id="p1HKhz1w8j"
				d="M2075 1938 c4 -18 7 -45 6 -60 -1 -25 2 -28 29 -28 35 0 36 8 14 73 -12 35 -21 47 -36 47 -18 0 -20 -4 -13 -32z">
			</path>
			<path id="p13oijDsg7"
				d="M1930 1860 c0 -16 7 -20 33 -20 47 0 77 10 77 26 0 10 -15 14 -55 14 -48 0 -55 -2 -55 -20z"></path>
			<path id="pF0PJwMtU"
				d="M1087 1449 c17 -17 3 -49 -23 -55 -38 -10 -30 -34 11 -34 24 0 35 5 35 15 0 8 5 15 10 15 6 0 10 16 10 35 0 31 -3 35 -27 35 -19 0 -24 -3 -16 -11z">
			</path>
			<path id="p6xp4m9Fz" d="M1210 606 l0 -526 60 0 60 0 0 423 0 423 -33 99 c-31 91 -36 100 -60 103 l-27 3 0 -525z">
			</path>
			<path id="pkRGq5yqF"
				d="M309 469 c-8 -24 -9 -43 -3 -48 17 -16 127 -52 134 -44 8 9 31 75 28 78 -2 2 -35 14 -75 29 l-72 25 -12 -40z m91 -35 c14 -8 17 -13 7 -10 -10 3 -27 6 -38 6 -10 0 -19 5 -19 10 0 14 21 12 50 -6z">
			</path>
			<path id="p1B6TYtMl8"
				d="M747 374 c-17 -17 -6 -34 23 -34 27 0 30 -3 30 -31 0 -24 4 -30 18 -27 13 3 17 13 17 48 l0 45 -40 3 c-23 2 -44 0 -48 -4z">
			</path>
		</g>
	</g>
	<g id="l4DUh2EZsXK9yX5uZSV7jDA" fill="rgb(251,134,39)" style="transform: none;">
		<g>
			<path id="p8uelbx8W"
				d="M1940 2006 c0 -18 7 -53 15 -76 19 -54 20 -50 -15 -50 -23 0 -30 -4 -30 -20 0 -18 5 -19 83 -14 136 9 149 12 141 36 -26 82 -32 88 -83 88 -54 0 -77 17 -66 50 5 17 2 20 -19 20 -23 0 -26 -4 -26 -34z">
			</path>
			<path id="p7XcByuPJ"
				d="M1896 2016 c6 -16 -21 -46 -42 -46 -8 0 -14 -7 -14 -15 0 -20 56 -20 76 -1 8 8 14 28 14 45 0 24 -4 31 -20 31 -12 0 -17 -5 -14 -14z">
			</path>
			<path id="pMhvpXcVh" d="M310 471 c-16 -31 -12 -51 10 -51 16 0 20 7 20 35 0 39 -14 46 -30 16z"></path>
			<path id="pN0rptHIR" d="M400 396 c0 -19 37 -27 44 -9 9 22 8 23 -19 23 -15 0 -25 -6 -25 -14z"></path>
			<path id="pt9hZCLeX" d="M742 303 c2 -10 13 -19 26 -21 17 -3 22 2 22 17 0 16 -6 21 -26 21 -19 0 -25 -5 -22 -17z">
			</path>
		</g>
	</g>
	<g id="l7WYw4ovR6wsD9VcE1SqOvF" fill="rgb(28,150,249)" style="transform: none;">
		<g>
			<path id="pLhmYcFV1"
				d="M2050 1769 c-58 -4 -119 -11 -136 -14 l-32 -7 36 -106 c32 -98 65 -152 92 -152 16 0 11 41 -8 59 -9 9 -29 53 -44 99 l-26 82 47 0 47 0 32 -98 c18 -54 32 -111 32 -126 0 -27 2 -28 38 -22 20 3 58 6 85 6 30 0 47 4 47 12 0 21 -92 278 -99 276 -3 -1 -53 -5 -111 -9z">
			</path>
		</g>
	</g>
	<g id="l5Hpwg0P6FEppLXi9GrtYoH" fill="rgb(39,209,179)" style="transform: none;">
		<g>
			<path id="pFcSgybg1"
				d="M488 953 l-65 -178 35 -13 c19 -6 37 -11 39 -9 1 2 34 88 72 190 l69 187 -43 0 -42 0 -65 -177z"></path>
		</g>
	</g>
	<g id="l3huoXpZDmebomZZcF9L9eh" fill="rgb(125,162,176)" style="transform: none;">
		<g>
			<path id="pBfplpXPx"
				d="M1050 1486 c0 -3 14 -18 31 -35 17 -17 32 -31 35 -31 2 0 4 16 4 35 0 33 -2 35 -35 35 -19 0 -35 -2 -35 -4z">
			</path>
			<path id="p45NGESCT"
				d="M1150 1435 c0 -28 4 -35 20 -35 14 0 20 7 20 23 0 13 5 28 12 35 9 9 5 12 -20 12 -30 0 -32 -2 -32 -35z"></path>
			<path id="pvbcia2ki"
				d="M350 634 c-17 -42 -12 -51 35 -67 43 -15 45 -15 45 4 0 15 7 19 31 19 39 0 34 19 -9 37 -30 12 -32 12 -32 -7 0 -21 -14 -27 -24 -11 -4 5 0 12 6 15 9 3 7 9 -6 20 -27 22 -35 20 -46 -10z">
			</path>
			<path id="pgXHSY6ae"
				d="M500 593 c0 -9 -8 -22 -17 -29 -17 -13 -17 -15 1 -29 23 -17 29 -13 44 32 9 27 8 32 -9 36 -13 3 -19 0 -19 -10z">
			</path>
			<path id="p1DL1tugNb"
				d="M1646 514 c-54 -19 -101 -36 -103 -38 -3 -2 -2 -14 2 -25 6 -19 9 -19 108 15 56 20 103 37 105 38 1 2 -1 12 -5 23 -8 20 -10 19 -107 -13z">
			</path>
		</g>
	</g>
	<g id="l1xAXW2BUh1dsdKkIC8R5ok" fill="rgb(49,167,251)" style="transform: none;">
		<g>
			<path id="p1EGBFf4xv"
				d="M1942 1763 c-55 -3 -63 -6 -57 -21 4 -9 20 -55 36 -102 16 -47 34 -94 40 -106 16 -32 62 -54 111 -54 75 0 76 2 26 151 -50 151 -36 139 -156 132z">
			</path>
		</g>
	</g>
	<g id="l45F2ThjMjkvSeZOdzXlmAa" fill="rgb(252,150,67)" style="transform: none;">
		<g>
			<path id="p8dZvD0tP"
				d="M2170 2265 c0 -201 1 -216 18 -213 16 3 17 21 17 213 0 192 -1 210 -17 213 -17 3 -18 -12 -18 -213z"></path>
			<path id="p199rv2nUp"
				d="M1895 2020 c9 -30 -12 -50 -52 -50 -24 0 -34 -4 -31 -12 3 -7 13 -37 23 -67 l17 -53 82 7 c44 4 82 8 84 10 2 2 -8 36 -23 76 -18 50 -23 75 -15 83 20 20 10 26 -41 26 -46 0 -50 -2 -44 -20z">
			</path>
			<path id="p65oEVLWq" d="M410 1370 c0 -13 7 -20 20 -20 13 0 20 7 20 20 0 13 -7 20 -20 20 -13 0 -20 -7 -20 -20z">
			</path>
			<path id="pZnqpdsmV" d="M1090 605 l0 -525 75 0 75 0 0 525 0 525 -75 0 -75 0 0 -525z"></path>
			<path id="prSN97kpi"
				d="M361 464 c-6 -14 -19 -24 -32 -24 -38 0 -14 -25 44 -45 62 -22 73 -18 83 30 5 28 3 31 -39 47 -45 16 -45 16 -56 -8z">
			</path>
			<path id="p4byUJM1Y"
				d="M740 312 c0 -22 18 -32 61 -32 22 0 29 5 29 20 0 11 -6 20 -14 20 -7 0 -28 3 -45 6 -26 6 -31 4 -31 -14z">
			</path>
		</g>
	</g>
	<g id="l62glnnTAYdmec2qwimAfLB" fill="rgb(252,168,99)" style="transform: none;">
		<g>
			<path id="pe3uYXsMG"
				d="M1610 2265 c0 -208 1 -215 20 -215 19 0 20 7 20 215 0 208 -1 215 -20 215 -19 0 -20 -7 -20 -215z"></path>
			<path id="pRJZYZxRR"
				d="M1150 1425 c0 -19 5 -35 10 -35 6 0 10 -7 10 -15 0 -10 11 -15 35 -15 41 0 49 24 11 34 -26 6 -40 38 -23 55 8 8 3 11 -16 11 -24 0 -27 -4 -27 -35z">
			</path>
			<path id="pKhiBRnEs" d="M1570 1370 c0 -13 7 -20 20 -20 13 0 20 7 20 20 0 13 -7 20 -20 20 -13 0 -20 -7 -20 -20z">
			</path>
			<path id="pp7MzMkrt" d="M893 925 c-30 -29 -29 -45 2 -45 22 0 25 4 25 35 0 19 -1 35 -2 34 -2 -1 -13 -11 -25 -24z">
			</path>
			<path id="pPog0oycb" d="M870 840 c0 -9 47 -60 55 -60 3 0 5 16 5 35 0 32 -2 35 -30 35 -16 0 -30 -4 -30 -10z">
			</path>
			<path id="pMmTNbpMp"
				d="M311 469 c-15 -44 -15 -46 20 -58 43 -15 44 -15 57 14 18 40 15 52 -19 64 -44 15 -46 15 -58 -20z"></path>
			<path id="p15KgWXemw" d="M742 333 c3 -37 4 -38 46 -41 l42 -3 0 40 0 41 -46 0 -45 0 3 -37z"></path>
		</g>
	</g>
	<g id="l10tqFm6BEwHdjigjGBKDYZ" fill="rgb(253,221,69)" style="transform: none;">
		<g>
			<path id="pASwa4wxu"
				d="M910 1030 c0 -89 -2 -101 -20 -112 -24 -16 -30 -98 -6 -98 8 0 17 -7 20 -16 3 -9 6 -175 6 -370 l0 -354 50 0 50 0 0 525 0 525 -50 0 -50 0 0 -100z">
			</path>
		</g>
	</g>
	<g id="l6AbLvWL6zO10iijufVG0zW" fill="rgb(252,185,131)" style="transform: none;">
		<g>
			<path id="pO02pUpQu" d="M2050 2265 l0 -215 75 0 75 0 0 215 0 215 -75 0 -75 0 0 -215z"></path>
			<path id="pzkKwBhjC"
				d="M1840 2065 c0 -8 7 -15 15 -15 8 0 23 -9 32 -20 10 -11 23 -20 30 -20 17 0 16 38 -1 56 -20 19 -76 19 -76 -1z">
			</path>
			<path id="p169hiVC9G"
				d="M1963 2065 c-17 -18 -17 -55 0 -55 7 0 20 9 30 20 9 11 24 20 32 20 8 0 15 7 15 15 0 20 -60 20 -77 0z"></path>
			<path id="pAp9KlEnX"
				d="M1096 1436 c3 -8 -4 -24 -15 -35 l-21 -21 35 0 c33 0 35 2 35 35 0 28 -4 35 -20 35 -13 0 -17 -5 -14 -14z">
			</path>
			<path id="pafaJljnK"
				d="M1150 1415 c0 -33 2 -35 35 -35 l35 0 -21 21 c-11 11 -18 27 -15 35 3 9 -1 14 -14 14 -16 0 -20 -7 -20 -35z">
			</path>
			<path id="p1AhVpSCKk" d="M1430 1300 l0 -90 90 0 91 0 -3 88 -3 87 -87 3 -88 3 0 -91z"></path>
			<path id="pFyGcaAbp" d="M410 1230 c0 -13 7 -20 20 -20 13 0 20 7 20 20 0 13 -7 20 -20 20 -13 0 -20 -7 -20 -20z">
			</path>
		</g>
	</g>
	<g id="l2v5JtRNvZVDwI2yjZJFBe0" fill="rgb(169,211,216)" style="transform: none;">
		<g>
			<path id="p17gcaXoLm"
				d="M430 604 c-16 -42 -12 -50 32 -63 37 -12 43 -11 55 5 24 33 16 51 -32 68 -46 15 -46 15 -55 -10z"></path>
		</g>
	</g>
	<g id="l1VABI8nENaGBEHeUrWiWjv" fill="rgb(252,202,159)" style="transform: none;">
		<g>
			<path id="pnGWVkj7K"
				d="M1620 2265 l0 -215 130 0 c119 0 131 -2 142 -20 9 -14 24 -20 48 -20 24 0 39 6 48 20 9 15 23 20 52 20 l40 0 0 215 0 215 -230 0 -230 0 0 -215z">
			</path>
			<path id="pq2xAAiEb"
				d="M1095 1437 c12 -45 -2 -47 -351 -49 l-329 -3 0 -85 0 -85 523 -3 522 -2 0 90 0 90 -129 0 c-105 0 -131 3 -142 16 -10 12 -10 20 -1 35 11 18 9 19 -43 19 -53 0 -55 -1 -50 -23z">
			</path>
		</g>
	</g>
	<g id="l5g1YTVr6aPhDM2T0M1B614" fill="rgb(225,221,225)" style="transform: none;">
		<g>
			<path id="pJlJYwggR" d="M1360 2435 l0 -45 90 0 90 0 0 45 0 45 -90 0 -90 0 0 -45z"></path>
			<path id="p6JdDs7Dk"
				d="M490 2290 c0 -20 7 -20 435 -20 l435 0 0 -345 0 -345 -435 0 -435 0 0 -55 0 -55 290 0 c278 0 291 -1 307 -20 23 -27 84 -27 108 0 17 18 31 20 182 20 l163 0 0 420 0 420 -525 0 c-518 0 -525 0 -525 -20z">
			</path>
		</g>
	</g>
	<g id="l6WYlD8CDh8bnASRXMFwkrw" fill="rgb(222,236,240)" style="transform: none;">
		<g>
			<path id="pNJ5ROtIl"
				d="M350 624 c-7 -19 -10 -36 -8 -38 18 -14 102 -36 108 -30 9 9 25 64 19 64 -2 0 -27 9 -56 20 l-52 19 -11 -35z">
			</path>
			<path id="pgs5Zmfda" d="M730 490 l0 -40 50 0 50 0 0 40 0 40 -50 0 -50 0 0 -40z"></path>
		</g>
	</g>
	<g id="l1lgQbHM2rDS3WJnSvaDaiR" fill="rgb(242,239,242)" style="transform: none;">
		<g>
			<path id="p1T1nfEvu" d="M490 2435 l0 -45 450 0 450 0 0 45 0 45 -450 0 -450 0 0 -45z"></path>
			<path id="pgkFzijtN" d="M490 1925 l0 -375 450 0 450 0 0 375 0 375 -450 0 -450 0 0 -375z"></path>
		</g>
	</g>
</svg>