<svg class="img-fluid" id="outputsvg" xmlns="http://www.w3.org/2000/svg" width="256" height="256"
	viewBox="0 0 2560 2560">
	<g id="l44ilxNGtcwCFMlHoFeEC5Z" fill="rgb(0,0,0)" style="transform: none;">
		<g>
			<path id="paRl7Zniy"
				d="M91 2199 c-49 -29 -68 -57 -80 -112 -14 -62 -14 -156 0 -195 12 -34 49 -52 108 -52 l36 0 -3 -695 c-3 -767 -4 -746 60 -785 33 -20 47 -20 1068 -20 1021 0 1035 0 1068 20 64 39 63 18 60 785 l-3 695 36 0 c59 0 96 18 108 52 14 39 14 133 0 195 -12 55 -31 83 -80 112 -34 21 -42 21 -827 21 -695 0 -793 -2 -798 -15 -4 -11 -21 -15 -59 -15 -38 0 -55 4 -59 15 -5 13 -48 15 -303 15 -284 0 -300 -1 -332 -21z">
			</path>
		</g>
	</g>
	<g id="l2rwlcmVbFw6coBj2g5HEMM" fill="rgb(70,90,97)" style="transform: none;">
		<g>
			<path id="p18spn377G"
				d="M726 2175 c-5 -13 -45 -15 -281 -15 -306 0 -331 -4 -360 -60 -11 -22 -15 -52 -13 -108 l3 -77 446 -3 446 -2 7 38 c7 46 36 86 76 107 42 22 418 22 460 0 40 -21 69 -61 76 -107 l7 -38 446 2 446 3 3 75 c3 94 -16 139 -68 157 -26 9 -235 12 -801 12 -669 1 -768 3 -779 16 -8 9 -30 15 -60 15 -33 0 -50 -5 -54 -15z">
			</path>
			<path id="pyloRvEIX"
				d="M1071 1983 c-11 -10 -22 -29 -23 -43 l-3 -25 180 -3 c99 -2 204 0 233 3 50 6 53 8 50 33 -5 45 -35 52 -234 52 -159 0 -184 -2 -203 -17z">
			</path>
			<path id="pEEFDCFoL"
				d="M240 1820 c-20 -20 -20 -33 -20 -699 l0 -680 26 -20 c27 -21 30 -21 1034 -21 1004 0 1007 0 1034 21 l26 20 0 680 c0 666 0 679 -20 699 -20 20 -33 20 -1040 20 -1007 0 -1020 0 -1040 -20z m1990 -80 c20 -20 20 -33 20 -614 0 -570 -1 -595 -19 -617 -19 -23 -24 -24 -203 -27 -200 -3 -227 3 -214 46 7 22 11 22 187 22 l179 0 0 570 0 570 -74 0 -73 0 -6 -50 c-3 -27 -15 -71 -26 -96 l-21 -46 30 -36 c45 -57 53 -114 48 -375 -3 -224 -4 -234 -29 -287 -34 -73 -67 -110 -127 -143 -67 -36 -138 -49 -204 -37 -128 25 -210 101 -243 227 -18 69 -21 485 -4 546 5 21 23 52 39 71 l29 33 -20 41 c-11 22 -23 65 -26 96 l-6 56 -78 0 -79 0 2 -567 3 -568 192 -3 c186 -2 192 -3 199 -24 15 -49 18 -49 -692 -46 -635 3 -663 4 -683 22 -21 19 -21 22 -21 618 0 585 0 598 20 618 20 20 33 20 950 20 917 0 930 0 950 -20z">
			</path>
			<path id="pHlYSkI3p"
				d="M380 1120 l0 -570 433 2 432 3 3 568 2 567 -78 0 -79 0 -6 -61 c-6 -48 -3 -65 11 -87 15 -23 17 -59 17 -347 0 -238 -3 -332 -13 -366 -21 -72 -78 -139 -151 -176 -55 -29 -72 -33 -140 -33 -67 0 -87 4 -139 31 -70 35 -104 71 -141 149 l-26 55 0 325 c0 294 2 328 18 358 14 26 17 45 11 92 l-7 60 -73 0 -74 0 0 -570z">
			</path>
			<path id="pWJjFxu0g"
				d="M604 1643 c7 -56 50 -128 88 -151 26 -15 28 -15 53 8 35 33 94 34 128 2 13 -12 28 -22 34 -22 41 0 113 113 113 178 l0 32 -211 0 -212 0 7 -47z">
			</path>
			<path id="pcli95V9q"
				d="M1540 1663 c0 -57 22 -105 67 -150 l45 -45 26 24 c15 14 36 28 46 32 25 9 83 -11 99 -34 13 -18 14 -18 45 2 42 26 80 92 88 151 l7 47 -212 0 -211 0 0 -27z">
			</path>
			<path id="pD47sXxK6"
				d="M580 1391 l0 -104 21 27 c11 14 41 38 65 52 l45 27 -33 19 c-18 11 -48 34 -65 51 l-33 31 0 -103z"></path>
			<path id="pL9WLd0UI"
				d="M1014 1469 c-10 -12 -39 -35 -62 -50 l-44 -28 32 -16 c17 -9 49 -32 71 -52 l39 -35 0 88 c0 105 -8 124 -36 93z">
			</path>
			<path id="pfEuom811"
				d="M1546 1421 c-19 -21 -36 -73 -36 -110 0 -25 1 -24 38 11 20 20 52 43 71 53 l34 17 -43 24 c-23 13 -43 24 -44 24 -2 0 -10 -8 -20 -19z">
			</path>
			<path id="ptnmMXaT8"
				d="M1886 1415 l-38 -23 31 -16 c17 -9 47 -30 66 -47 l35 -31 0 36 c0 41 -22 91 -43 99 -7 3 -30 -6 -51 -18z">
			</path>
			<path id="p1DvMdoOH"
				d="M762 1330 c-96 -23 -162 -115 -162 -226 l0 -62 43 -7 c23 -4 71 -20 107 -36 l66 -30 44 25 c25 14 71 31 103 37 l59 12 -4 77 c-2 63 -8 84 -30 118 -47 71 -146 112 -226 92z">
			</path>
			<path id="pWUMTLuPh"
				d="M1708 1330 c-51 -9 -111 -51 -139 -96 -18 -29 -24 -55 -26 -118 l-4 -81 44 -47 44 -47 35 24 c50 34 151 66 231 72 l69 6 -4 71 c-3 39 -12 85 -21 102 -44 85 -137 131 -229 114z">
			</path>
			<path id="p1DAl6qizh"
				d="M580 919 c1 -92 47 -167 130 -209 35 -18 56 -21 110 -18 125 7 210 90 225 221 7 56 7 57 -17 57 -44 0 -124 -29 -168 -61 -42 -31 -45 -31 -69 -16 -54 35 -128 66 -168 73 l-43 7 0 -54z">
			</path>
			<path id="pHyRRMBln"
				d="M1843 960 c-69 -14 -138 -49 -179 -91 -52 -53 -68 -51 -101 18 -37 76 -57 83 -48 17 18 -125 113 -214 230 -214 135 1 235 99 235 230 l0 50 -47 -1 c-27 -1 -67 -5 -90 -9z">
			</path>
		</g>
	</g>
	<g id="l6ZkJYnDR3QhTMC0psA28SA" fill="rgb(89,108,118)" style="transform: none;">
		<g>
			<path id="pEOfYSvKl"
				d="M725 2170 c-17 -19 -31 -20 -305 -20 l-287 0 -27 -26 c-24 -25 -26 -33 -26 -115 l0 -89 445 0 445 0 0 21 c0 36 31 88 65 109 30 18 49 20 245 20 196 0 215 -2 245 -20 34 -21 65 -73 65 -109 l0 -21 445 0 445 0 0 88 c-1 90 -7 109 -47 130 -16 9 -227 12 -797 12 -764 0 -776 0 -793 20 -12 14 -30 20 -59 20 -28 0 -46 -6 -59 -20z">
			</path>
			<path id="p19WxDn6jW"
				d="M1067 1972 c-10 -10 -17 -26 -17 -35 0 -15 20 -17 200 -17 190 0 200 1 200 19 0 51 0 51 -190 51 -159 0 -179 -2 -193 -18z">
			</path>
			<path id="p10WzK96su"
				d="M240 1820 c-20 -20 -20 -33 -20 -693 0 -593 2 -675 16 -695 l15 -22 1029 0 1029 0 15 22 c14 20 16 102 16 695 0 660 0 673 -20 693 -20 20 -33 20 -1040 20 -1007 0 -1020 0 -1040 -20z m1989 -79 c11 -11 23 -35 26 -53 3 -18 5 -287 3 -596 l-3 -564 -28 -24 c-27 -23 -32 -24 -211 -24 -188 0 -206 4 -206 42 0 31 35 38 204 38 l166 0 0 565 0 565 -74 0 -73 0 -6 -56 c-3 -31 -15 -74 -26 -96 l-20 -41 29 -33 c16 -19 34 -50 39 -71 17 -61 14 -477 -4 -546 -38 -147 -146 -231 -295 -231 -125 0 -222 61 -277 172 l-28 57 -3 255 c-4 279 0 309 49 364 l29 34 -21 36 c-12 21 -23 61 -26 96 l-6 60 -73 0 -74 0 0 -565 0 -565 176 0 c179 0 214 -6 214 -38 0 -42 4 -42 -686 -42 l-663 0 -28 24 -28 24 -3 564 c-2 309 0 578 3 596 3 18 15 42 26 53 19 19 41 19 949 19 908 0 930 0 949 -19z">
			</path>
			<path id="pFeqoADlq"
				d="M380 1125 l0 -565 430 0 430 0 0 565 0 565 -74 0 -74 0 -4 -57 c-4 -42 0 -68 13 -98 17 -36 19 -71 19 -346 0 -340 -5 -374 -63 -451 -141 -185 -422 -158 -524 50 l-28 57 0 335 c0 302 2 339 17 362 14 22 17 39 11 87 l-6 61 -73 0 -74 0 0 -565z">
			</path>
			<path id="ph1qwfOtn"
				d="M1540 1658 c0 -65 72 -178 113 -178 6 0 21 10 34 22 34 32 93 31 128 -2 25 -23 27 -23 53 -8 38 23 80 94 88 151 l6 47 -211 0 -211 0 0 -32z">
			</path>
			<path id="p5BsyJs8Y"
				d="M1541 1404 c-14 -17 -21 -41 -21 -68 0 -39 0 -40 15 -18 9 12 36 34 61 48 l45 27 -31 18 c-40 25 -45 24 -69 -7z">
			</path>
			<path id="pYuUz3suW" d="M1871 1401 c-11 -7 -6 -13 19 -26 31 -16 32 -16 26 0 -3 9 -6 21 -6 26 0 11 -21 11 -39 0z">
			</path>
			<path id="pBSPng12M"
				d="M725 1317 c-43 -20 -102 -89 -114 -134 -6 -21 -11 -61 -11 -88 l0 -51 59 -12 c32 -7 79 -23 105 -37 l46 -24 62 29 c34 16 81 32 105 36 l43 6 0 62 c0 81 -34 152 -92 192 -33 23 -53 29 -107 31 -40 2 -78 -2 -96 -10z">
			</path>
			<path id="p8HeavMrY"
				d="M1665 1316 c-78 -35 -124 -114 -125 -214 0 -61 2 -66 42 -111 l43 -48 36 24 c52 34 141 63 222 71 l72 7 3 47 c6 95 -43 184 -122 222 -41 19 -130 20 -171 2z">
			</path>
			<path id="p9f5CGAvE"
				d="M1809 946 c-57 -15 -135 -60 -149 -86 -13 -25 -44 -42 -63 -34 -8 3 -22 25 -31 49 -10 24 -24 49 -32 55 -12 10 -14 8 -14 -15 0 -116 110 -225 229 -225 40 0 49 5 92 49 50 52 79 121 79 188 0 31 -2 33 -32 32 -18 0 -54 -6 -79 -13z">
			</path>
		</g>
	</g>
	<g id="l45mWKKiAsn9DlrAWgyqErK" fill="rgb(122,140,152)" style="transform: none;">
		<g>
			<path id="pjc5Org11"
				d="M727 2170 c-16 -19 -29 -20 -303 -20 l-286 0 -29 -29 c-28 -28 -29 -34 -29 -115 l0 -86 445 0 445 0 0 25 c0 39 27 83 63 105 29 18 51 20 247 20 196 0 218 -2 247 -20 36 -22 63 -66 63 -105 l0 -25 445 0 445 0 0 86 c0 81 -1 87 -29 115 l-29 29 -786 0 c-775 0 -786 0 -798 20 -9 15 -24 20 -53 20 -28 0 -46 -6 -58 -20z">
			</path>
			<path id="pcEH2z2ug"
				d="M242 1817 l-22 -23 0 -670 c0 -590 2 -672 16 -692 l15 -22 1029 0 1029 0 15 22 c14 20 16 102 16 693 l0 672 -23 21 -23 22 -1015 0 -1016 0 -21 -23z m1994 -78 c18 -20 19 -45 19 -616 l0 -595 -28 -24 c-28 -23 -32 -24 -211 -24 -188 0 -206 4 -206 42 0 31 35 38 204 38 l166 0 0 565 0 565 -74 0 -74 0 -4 -53 c-2 -30 -14 -73 -26 -97 l-21 -43 29 -34 c48 -54 52 -85 48 -363 l-3 -255 -28 -57 c-55 -111 -153 -173 -277 -172 -94 0 -163 28 -221 91 -80 87 -84 104 -87 397 -4 282 2 318 52 365 l24 23 -24 51 c-14 32 -24 71 -24 100 l0 47 -75 0 -75 0 0 -565 0 -565 176 0 c179 0 214 -6 214 -38 0 -42 4 -42 -686 -42 l-663 0 -28 24 -28 24 0 595 c0 571 1 596 19 616 l19 21 937 0 937 0 19 -21z">
			</path>
			<path id="p12NZNHq5s"
				d="M380 1125 l0 -565 430 0 430 0 0 565 0 565 -74 0 -74 0 -4 -57 c-3 -41 2 -70 14 -98 15 -35 18 -76 18 -346 0 -340 -5 -374 -63 -451 -144 -190 -430 -157 -531 61 -20 43 -21 65 -24 368 -3 300 -2 325 16 366 14 32 18 57 14 100 l-4 57 -74 0 -74 0 0 -565z">
			</path>
			<path id="puhhrENXS" d="M790 1430 c0 -13 7 -20 20 -20 13 0 20 7 20 20 0 13 -7 20 -20 20 -13 0 -20 -7 -20 -20z">
			</path>
			<path id="pqRN0h5qT"
				d="M725 1313 c-81 -42 -115 -97 -122 -198 l-6 -72 51 -7 c28 -4 76 -20 106 -36 l56 -29 57 29 c32 17 79 33 106 36 l47 7 0 51 c0 28 -5 68 -11 89 -13 47 -72 115 -116 134 -43 18 -131 16 -168 -4z">
			</path>
		</g>
	</g>
	<g id="l2LXp8kmPj0gecW2SqEkuHO" fill="rgb(220,135,88)" style="transform: none;">
		<g>
			<path id="pk5scwbEl"
				d="M580 1396 l0 -98 35 31 c19 17 49 38 66 47 l31 16 -33 20 c-19 11 -49 34 -66 51 l-33 31 0 -98z"></path>
			<path id="pOpmqXSBp"
				d="M1004 1459 c-16 -17 -45 -39 -63 -49 l-35 -17 35 -18 c18 -9 49 -31 67 -48 l32 -31 0 97 c0 53 -1 97 -3 97 -2 0 -16 -14 -33 -31z">
			</path>
			<path id="pxRixj7yt" d="M1730 1430 c0 -13 7 -20 20 -20 13 0 20 7 20 20 0 13 -7 20 -20 20 -13 0 -20 -7 -20 -20z">
			</path>
			<path id="pICYIIy9V"
				d="M1665 1316 c-37 -16 -81 -60 -103 -101 -8 -16 -17 -64 -20 -106 -4 -70 -3 -78 16 -88 11 -6 30 -26 42 -45 l21 -35 47 30 c57 36 130 58 220 67 l67 7 0 60 c-1 33 -4 72 -8 87 -10 38 -62 95 -108 119 -45 22 -129 25 -174 5z">
			</path>
			<path id="pzfuU12uv"
				d="M580 920 c0 -207 254 -309 397 -159 18 19 39 51 47 71 17 41 22 138 6 138 -39 0 -119 -28 -161 -56 -28 -19 -55 -34 -59 -34 -4 0 -31 15 -59 34 -42 28 -122 56 -161 56 -6 0 -10 -23 -10 -50z">
			</path>
		</g>
	</g>
	<g id="l54vExXfmzqCn7MRNn2Q9FR" fill="rgb(141,156,168)" style="transform: none;">
		<g>
			<path id="p15lIpsaLC"
				d="M732 2170 c-12 -19 -23 -20 -303 -20 l-291 0 -29 -29 c-28 -28 -29 -34 -29 -115 l0 -86 445 0 445 0 0 28 c0 35 31 86 67 109 24 16 52 18 243 18 191 0 219 -2 243 -18 36 -23 67 -74 67 -109 l0 -28 415 0 415 0 0 85 c0 58 -5 96 -15 115 l-16 30 -769 0 c-759 0 -770 0 -782 20 -9 15 -24 20 -53 20 -29 0 -44 -5 -53 -20z">
			</path>
			<path id="pn30eas27"
				d="M245 1815 l-25 -24 0 -671 c0 -657 0 -670 20 -690 20 -20 33 -20 1040 -20 1007 0 1020 0 1040 20 20 20 20 33 20 690 l0 671 -25 24 -24 25 -1011 0 -1011 0 -24 -25z m1991 -78 l24 -28 0 -579 c0 -403 -3 -586 -11 -603 -20 -44 -42 -48 -238 -45 -162 3 -185 5 -195 21 -8 12 -8 22 0 35 10 15 32 17 188 20 l176 2 0 565 0 565 -74 0 -73 0 -6 -60 c-3 -35 -14 -75 -26 -96 l-21 -36 29 -34 c49 -55 53 -85 49 -364 l-3 -255 -28 -57 c-55 -111 -153 -173 -277 -173 -123 0 -219 59 -278 170 l-27 50 -3 265 c-4 288 0 319 46 365 l29 29 -23 50 c-14 31 -24 70 -24 99 l0 47 -75 0 -75 0 0 -565 0 -565 186 -2 c165 -3 188 -5 198 -20 8 -13 8 -23 0 -35 -10 -17 -55 -18 -675 -21 -479 -2 -670 1 -685 9 -12 6 -27 22 -33 36 -8 17 -11 199 -11 601 0 626 -1 610 54 632 11 5 434 8 939 7 l919 -2 24 -28z">
			</path>
			<path id="p18m9AUIxH"
				d="M380 1125 l0 -565 430 0 430 0 0 565 0 565 -74 0 -74 0 -4 -57 c-2 -41 2 -69 15 -96 16 -35 18 -67 15 -370 l-3 -332 -27 -51 c-57 -107 -156 -168 -278 -168 -62 -1 -84 4 -132 27 -65 32 -121 89 -152 156 -20 43 -21 64 -24 368 -3 299 -2 326 16 366 14 32 18 57 14 100 l-4 57 -74 0 -74 0 0 -565z">
			</path>
			<path id="pJHdlbKRZ" d="M1730 1431 c0 -15 6 -21 21 -21 14 0 19 5 17 17 -5 26 -38 29 -38 4z"></path>
			<path id="prhxACraw"
				d="M725 1313 c-82 -43 -130 -130 -123 -224 l3 -43 59 -13 c33 -7 79 -24 103 -38 l43 -24 56 29 c30 16 77 32 104 36 l50 7 0 51 c0 103 -41 176 -121 217 -47 23 -132 25 -174 2z">
			</path>
		</g>
	</g>
	<g id="l5N66tJzcYZEBdRDscUYGcj" fill="rgb(225,153,116)" style="transform: none;">
		<g>
			<path id="p5AZd7wtK"
				d="M580 1391 l0 -93 31 32 c17 17 45 38 61 46 l30 16 -33 20 c-19 11 -46 32 -61 46 l-28 26 0 -93z"></path>
			<path id="pxCMo8a8Q" d="M797 1443 c-14 -13 -6 -33 13 -33 13 0 20 7 20 20 0 19 -20 27 -33 13z"></path>
			<path id="p16PYpODiW" d="M1730 1431 c0 -15 6 -21 21 -21 25 0 22 33 -4 38 -12 2 -17 -3 -17 -17z"></path>
			<path id="pKjFRhlDq" d="M946 1410 l-28 -18 31 -16 31 -17 0 36 c0 19 -1 35 -2 34 -2 0 -16 -9 -32 -19z"></path>
			<path id="p15OQ38NMH"
				d="M730 1314 c-79 -34 -120 -101 -123 -201 l-2 -67 45 -8 c25 -4 71 -21 102 -36 l58 -29 59 30 c33 16 80 32 105 34 l46 6 0 51 c0 103 -41 176 -121 217 -46 23 -120 24 -169 3z">
			</path>
			<path id="pbqz82AeU"
				d="M1665 1311 c-51 -23 -101 -79 -114 -128 -6 -21 -11 -63 -11 -94 0 -49 3 -59 24 -73 14 -8 32 -29 42 -45 l17 -29 45 29 c54 34 115 55 202 69 36 5 68 10 73 10 16 0 7 131 -12 168 -51 98 -166 139 -266 93z">
			</path>
			<path id="plI6RFH2o"
				d="M580 923 c1 -82 53 -169 121 -204 57 -29 128 -35 167 -15 62 32 112 127 112 212 0 42 0 42 -28 35 -40 -12 -86 -37 -101 -55 -20 -24 -51 -19 -100 14 -47 32 -99 50 -143 50 -26 0 -28 -3 -28 -37z">
			</path>
		</g>
	</g>
	<g id="l1wVQWWCGtD93SArdvthq1W" fill="rgb(254,118,168)" style="transform: none;">
		<g>
			<path id="pWOqSR7jJ"
				d="M604 1643 c8 -57 50 -128 88 -151 26 -15 28 -15 51 6 13 13 40 25 59 28 28 5 40 1 67 -22 31 -26 34 -27 59 -12 38 23 81 95 88 151 l7 47 -213 0 -212 0 6 -47z">
			</path>
		</g>
	</g>
	<g id="l5a92oM2WvM0AOwkw2u5cnp" fill="rgb(182,196,207)" style="transform: none;">
		<g>
			<path id="p1BAY45FDT"
				d="M244 1815 l-24 -25 2 -676 c3 -656 4 -676 22 -690 17 -12 174 -14 1037 -14 l1018 0 20 27 c21 26 21 29 19 694 -3 626 -4 669 -21 686 -17 17 -74 18 -1033 21 l-1015 2 -25 -25z m1987 -74 l29 -30 -2 -596 -3 -597 -24 -19 c-22 -18 -39 -19 -214 -17 -168 3 -191 5 -201 21 -8 12 -8 22 0 35 10 15 32 17 188 20 l176 2 0 565 0 565 -75 0 -75 0 0 -47 c0 -29 -10 -68 -24 -100 l-24 -51 29 -28 c47 -45 51 -76 47 -359 -3 -246 -4 -263 -26 -310 -29 -63 -83 -119 -147 -153 -43 -23 -62 -27 -135 -27 -73 0 -92 4 -136 27 -68 36 -136 113 -157 178 -14 43 -17 96 -17 308 0 240 1 258 21 300 12 24 29 48 39 54 17 11 17 13 -2 50 -12 22 -24 65 -27 96 l-6 57 -72 3 -73 3 0 -566 0 -565 183 0 c129 0 187 -4 195 -12 17 -17 15 -55 -4 -62 -9 -3 -314 -6 -679 -6 -638 0 -664 1 -686 19 l-24 19 -3 597 -2 596 29 30 29 29 922 0 922 0 29 -29z">
			</path>
			<path id="pJgEDbHJf"
				d="M380 1125 l0 -565 430 0 430 0 0 565 0 565 -70 0 -69 0 -6 -37 c-3 -21 -8 -46 -10 -55 -1 -10 6 -34 16 -55 17 -34 19 -62 19 -353 0 -371 -3 -389 -80 -473 -69 -75 -130 -102 -235 -101 -66 0 -89 5 -130 26 -64 34 -118 90 -147 153 -22 48 -23 60 -26 372 -3 295 -1 326 15 365 13 30 18 60 15 101 l-4 57 -74 0 -74 0 0 -565z">
			</path>
			<path id="pMhlBUE1T"
				d="M730 1314 c-79 -34 -120 -101 -123 -201 l-2 -67 45 -8 c25 -4 71 -21 102 -36 l58 -29 58 29 c31 15 77 32 102 36 42 7 45 10 48 42 6 57 -16 133 -50 174 -57 69 -158 95 -238 60z">
			</path>
		</g>
	</g>
	<g id="l1zzq1V8koWUeOcQ0a1CuLP" fill="rgb(203,151,231)" style="transform: none;">
		<g>
			<path id="pf02p6F7v"
				d="M1544 1643 c7 -56 50 -128 88 -151 25 -15 28 -14 58 11 40 34 80 34 118 2 17 -14 34 -25 39 -25 15 0 81 74 92 103 6 16 11 46 11 68 l0 39 -206 0 -207 0 7 -47z">
			</path>
		</g>
	</g>
	<g id="l6iz9eQ9FGqkkavdgy2AQaE" fill="rgb(254,147,187)" style="transform: none;">
		<g>
			<path id="p18R800Gh5"
				d="M610 1655 c0 -62 43 -140 92 -166 12 -7 24 -3 44 16 32 30 87 34 123 8 23 -16 25 -15 43 7 21 26 51 122 46 148 -3 15 -21 17 -176 20 l-172 2 0 -35z">
			</path>
		</g>
	</g>
	<g id="l5qTGxqdrw3GJWUq0ETgw1E" fill="rgb(255,193,140)" style="transform: none;">
		<g>
			<path id="p10Cniv5if" d="M1737 1444 c-14 -15 -6 -34 14 -34 14 0 19 5 17 17 -3 18 -20 27 -31 17z"></path>
			<path id="pr6Pqk9uz"
				d="M1664 1312 c-79 -37 -124 -122 -124 -233 0 -32 6 -45 28 -64 15 -13 34 -34 41 -48 l14 -26 32 25 c43 33 127 61 220 75 l75 11 0 63 c0 120 -73 202 -186 211 -45 4 -69 0 -100 -14z">
			</path>
		</g>
	</g>
	<g id="l7Mlz6k7eYwkfj6fm9cqNes" fill="rgb(193,207,218)" style="transform: none;">
		<g>
			<path id="p1EpLydAYP"
				d="M262 1830 c-12 -5 -27 -21 -32 -36 -7 -17 -9 -260 -8 -684 3 -631 4 -659 22 -679 l19 -21 998 0 c977 0 999 0 1009 19 13 26 14 1349 0 1385 l-10 26 -987 -1 c-569 0 -998 -4 -1011 -9z m1951 -72 c47 -25 46 -10 47 -636 l0 -593 -25 -25 -25 -24 -197 2 -198 3 -3 23 c-7 48 7 52 194 52 l174 0 0 565 0 565 -75 0 -75 0 0 -47 c0 -29 -10 -68 -24 -99 -22 -48 -23 -51 -6 -62 10 -6 27 -31 39 -56 21 -43 22 -54 19 -318 l-3 -273 -27 -51 c-102 -194 -353 -232 -505 -77 -76 79 -83 113 -83 419 0 281 2 296 51 350 19 20 19 21 0 65 -10 24 -22 68 -26 97 l-7 52 -69 0 -69 0 0 -565 0 -565 184 0 c178 0 185 -1 200 -22 11 -15 12 -26 5 -40 -9 -17 -39 -18 -685 -18 l-675 0 -24 25 -25 24 0 593 c1 623 0 610 45 636 29 16 1837 17 1868 0z">
			</path>
			<path id="pF1Xxhfsh"
				d="M730 1314 c-81 -35 -120 -101 -120 -202 l0 -69 41 -6 c23 -3 68 -19 100 -35 l59 -29 58 29 c31 15 77 32 102 36 42 7 45 10 48 42 6 57 -16 133 -50 174 -57 69 -158 95 -238 60z">
			</path>
		</g>
	</g>
	<g id="l5b006JzZDMhKAEwM3tGfs6" fill="rgb(254,210,164)" style="transform: none;">
		<g>
			<path id="pLgEEqz5q" d="M1735 1437 c-4 -10 -5 -21 -1 -24 10 -10 18 4 13 24 -4 17 -4 17 -12 0z"></path>
			<path id="pvxxEuMfT"
				d="M1687 1320 c-43 -13 -95 -57 -116 -99 -11 -20 -22 -68 -25 -107 l-7 -69 45 -48 45 -48 38 26 c43 29 150 65 194 65 29 0 29 0 29 61 0 84 -16 132 -63 185 -33 38 -44 44 -75 43 -21 0 -50 -5 -65 -9z">
			</path>
		</g>
	</g>
	<g id="l4VC9HGhyr5SxBWcahu53li" fill="rgb(217,177,238)" style="transform: none;">
		<g>
			<path id="p185XSe0y0"
				d="M1550 1649 c0 -53 23 -101 67 -139 l34 -31 30 26 c36 30 87 33 125 8 25 -16 27 -16 45 8 23 30 37 72 41 124 l3 40 -172 3 -173 2 0 -41z">
			</path>
		</g>
	</g>
	<g id="l4k6R2ll6P8Y0FokGKBup0Z" fill="rgb(228,247,198)" style="transform: none;">
		<g>
			<path id="p2GR0uJFW"
				d="M380 1125 l0 -565 430 0 430 0 0 565 0 565 -70 0 -69 0 -6 -37 c-3 -21 -8 -46 -10 -55 -1 -10 6 -34 16 -55 17 -34 19 -62 19 -353 0 -371 -3 -389 -80 -473 -69 -75 -130 -102 -235 -101 -66 0 -89 5 -130 26 -60 31 -114 86 -146 148 -24 44 -24 51 -27 372 -3 300 -1 331 15 370 13 30 18 60 15 101 l-4 57 -74 0 -74 0 0 -565z">
			</path>
		</g>
	</g>
	<g id="l3uPyx1QGNJpe3WQdRU2MVn" fill="rgb(255,223,207)" style="transform: none;">
		<g>
			<path id="p10ruI0ebG" d="M797 1444 c-14 -15 -6 -34 14 -34 14 0 19 5 17 17 -3 18 -20 27 -31 17z"></path>
			<path id="p1BU070Dey"
				d="M730 1314 c-81 -35 -120 -101 -120 -202 l0 -69 41 -6 c23 -3 68 -19 100 -35 l59 -29 57 29 c32 15 78 32 103 36 42 7 45 10 48 42 6 57 -16 133 -50 174 -57 69 -158 95 -238 60z">
			</path>
		</g>
	</g>
	<g id="l1pqLki8zHw0UCJdA8fFibT" fill="rgb(237,249,217)" style="transform: none;">
		<g>
			<path id="pc956JCp7"
				d="M380 1125 l0 -565 400 0 400 0 0 565 0 565 -40 0 c-38 0 -39 -2 -45 -37 -3 -21 -8 -46 -10 -55 -1 -10 6 -34 16 -55 17 -34 19 -62 19 -353 0 -371 -3 -389 -80 -473 -69 -75 -130 -102 -235 -101 -66 0 -89 5 -130 26 -60 31 -114 86 -146 148 -24 44 -24 51 -27 372 -3 300 -1 331 15 370 13 30 18 60 15 101 l-4 57 -74 0 -74 0 0 -565z">
			</path>
			<path id="pfPJFSG9z"
				d="M740 1319 c-86 -35 -130 -105 -130 -207 l0 -69 48 -7 c26 -3 70 -19 99 -35 l52 -29 53 28 c30 14 65 29 77 33 23 6 23 9 19 85 -5 87 -33 151 -84 191 -29 23 -90 27 -134 10z">
			</path>
		</g>
	</g>
	<g id="l3ILzI8UebIGywM4BGqPyJM" fill="rgb(255,234,223)" style="transform: none;">
		<g>
			<path id="p1HQu9sJzK" d="M795 1437 c-4 -10 -5 -21 -1 -24 10 -10 18 4 13 24 -4 17 -4 17 -12 0z"></path>
			<path id="pggupyhya"
				d="M740 1319 c-86 -35 -130 -105 -130 -207 l0 -69 47 -7 c27 -3 71 -19 100 -35 l52 -29 53 28 c30 14 65 29 77 33 23 6 23 9 19 85 -5 87 -33 151 -84 191 -29 23 -90 27 -134 10z">
			</path>
		</g>
	</g>
	<g id="l1uCFFMI2YsBkOgydYkbk2s" fill="rgb(223,246,253)" style="transform: none;">
		<g>
			<path id="pAlW7skbF"
				d="M1320 1125 l0 -565 179 0 c187 0 211 -3 211 -26 0 -10 14 -14 48 -14 36 0 50 5 60 20 11 19 23 20 187 20 l175 0 0 565 0 565 -70 0 c-38 0 -70 -1 -70 -2 -1 -30 -23 -126 -35 -152 -16 -33 -16 -34 17 -81 l33 -47 0 -286 c0 -281 0 -288 -23 -335 -113 -229 -434 -238 -557 -16 l-30 54 -3 282 c-3 301 -2 313 49 369 19 20 19 21 0 65 -11 24 -23 68 -27 97 l-7 52 -68 0 -69 0 0 -565z">
			</path>
		</g>
	</g>
	<g id="l4DjkRPVABC6nShkfX9YCHs" fill="rgb(239,250,255)" style="transform: none;">
		<g>
			<path id="pPO41pETB"
				d="M1320 1125 l0 -565 179 0 c187 0 211 -3 211 -26 0 -10 14 -14 48 -14 36 0 50 5 60 20 11 19 23 20 157 20 l145 0 0 565 0 565 -40 0 c-22 0 -40 -1 -40 -2 -1 -30 -23 -126 -35 -152 -16 -33 -16 -34 17 -81 l33 -47 0 -286 c0 -281 0 -288 -23 -335 -113 -229 -434 -238 -557 -16 l-30 54 -3 282 c-3 301 -2 313 49 369 19 20 19 21 0 65 -11 24 -23 68 -27 97 l-7 52 -68 0 -69 0 0 -565z">
			</path>
		</g>
	</g>
</svg>