<svg class="img-fluid" id="outputsvg" xmlns="http://www.w3.org/2000/svg" width="256" height="256"
	viewBox="0 0 2560 2560">
	<g id="l48KOYrxwOp0mXI1AGosieM" fill="rgb(0,0,0)" style="transform: none;">
		<g>
			<path id="p1346HBtdm"
				d="M81 2162 c-50 -25 -70 -59 -76 -127 -8 -78 7 -109 55 -113 l35 -3 -3 -717 c-2 -702 -2 -718 18 -750 11 -18 34 -41 52 -52 32 -20 53 -20 1118 -20 1065 0 1086 0 1118 20 66 41 72 63 72 277 0 182 -1 194 -20 205 -29 18 -29 98 0 116 20 12 21 20 18 467 l-3 454 35 3 c48 4 63 35 55 113 -6 68 -26 102 -76 127 -31 16 -74 18 -451 18 -407 0 -418 -1 -430 -20 -9 -15 -24 -20 -53 -20 -29 0 -44 5 -53 20 -12 20 -23 20 -695 20 -630 0 -685 -1 -716 -18z">
			</path>
		</g>
	</g>
	<g id="l7MdIAXK58h8Tm4j1EWcmea" fill="rgb(135,63,48)" style="transform: none;">
		<g>
			<path id="pJU02Hmsg"
				d="M1315 1697 c-3 -7 -4 -123 -3 -257 l3 -245 468 -3 467 -2 0 260 0 260 -129 0 -128 0 -7 -47 c-6 -49 -46 -126 -72 -141 -15 -8 -15 -12 0 -40 36 -69 11 -165 -55 -210 -28 -20 -44 -23 -92 -20 -48 4 -62 9 -91 37 -20 20 -39 52 -47 79 -11 39 -10 52 5 95 l18 49 -26 27 c-32 34 -56 91 -56 136 l0 35 -125 0 c-92 0 -127 -3 -130 -13z">
			</path>
			<path id="pC26AXqAO" d="M725 1475 c-55 -54 -18 -155 58 -155 76 0 113 105 54 156 -37 31 -81 31 -112 -1z"></path>
			<path id="p12xITmQrb"
				d="M1737 1489 c-25 -15 -47 -70 -40 -100 19 -77 114 -96 148 -28 23 43 18 77 -14 110 -31 30 -63 36 -94 18z">
			</path>
			<path id="pTFLn2cB7" d="M726 879 c-34 -40 -34 -87 -1 -123 59 -64 158 1 134 88 -19 69 -89 88 -133 35z"></path>
			<path id="pPnX6HOq" d="M1723 886 c-59 -51 -22 -156 54 -156 76 0 112 96 58 154 -31 33 -74 34 -112 2z"></path>
		</g>
	</g>
	<g id="l5fIyTMdK1pvGuYgSYZGTbf" fill="rgb(85,78,85)" style="transform: none;">
		<g>
			<path id="prHEo3Fsm"
				d="M1490 2125 c-11 -13 -100 -15 -694 -15 -561 0 -685 -2 -701 -14 -14 -10 -19 -27 -19 -62 l-1 -49 1205 0 1205 0 3 24 c5 32 -5 66 -24 85 -13 14 -67 16 -433 16 -360 0 -420 2 -431 15 -7 9 -29 15 -55 15 -26 0 -48 -6 -55 -15z">
			</path>
			<path id="pZMQX2M1I"
				d="M170 1898 c0 -7 0 -328 0 -713 0 -613 2 -701 15 -715 14 -13 144 -15 1095 -18 1071 -2 1080 -2 1100 18 19 19 20 33 20 215 0 165 2 197 15 201 20 8 20 90 0 110 -13 13 -15 77 -15 449 0 238 -3 440 -6 449 -6 14 -113 16 -1115 16 -880 0 -1109 -3 -1109 -12z m2144 -134 c3 -9 6 -285 6 -614 l0 -599 -22 -15 c-20 -14 -118 -16 -855 -16 -743 0 -833 2 -847 16 -19 18 -19 20 -6 45 10 18 25 19 330 19 l320 0 0 260 0 260 -119 0 -119 0 -7 -42 c-10 -58 -27 -98 -59 -131 l-26 -28 16 -47 c30 -83 -4 -168 -79 -202 -50 -23 -77 -25 -121 -6 -77 32 -120 150 -82 226 15 32 15 33 -10 53 -34 26 -63 91 -64 140 l0 37 -130 0 -130 0 0 -260 0 -260 83 0 c74 0 84 -2 96 -22 12 -19 11 -24 -9 -40 -18 -14 -40 -18 -116 -18 -148 0 -134 -68 -134 632 0 536 2 593 17 610 15 17 61 18 1038 18 924 0 1023 -2 1029 -16z">
			</path>
			<path id="pEhG0WMUB"
				d="M310 1450 l0 -260 465 0 465 0 0 260 0 260 -125 0 -125 0 0 -40 c0 -45 -20 -92 -56 -130 -22 -24 -23 -27 -9 -65 20 -55 18 -92 -5 -139 -73 -150 -290 -98 -290 68 0 28 6 63 14 78 13 24 12 28 -6 45 -29 25 -68 112 -68 151 l0 32 -130 0 -130 0 0 -260z">
			</path>
			<path id="pnNhOjQuX"
				d="M1315 1698 c-3 -8 -4 -124 -3 -258 l3 -245 465 0 465 0 0 255 0 255 -127 3 -128 3 0 -28 c0 -50 -19 -98 -54 -136 -32 -35 -33 -38 -19 -64 24 -46 19 -118 -11 -163 -34 -52 -68 -73 -119 -74 -118 -2 -198 120 -152 231 15 35 15 36 -19 74 -32 35 -41 58 -48 129 -3 25 -3 25 -126 28 -93 2 -124 0 -127 -10z">
			</path>
			<path id="pZ3J9j7fi"
				d="M1640 1680 c0 -35 20 -80 45 -100 11 -9 44 -14 92 -14 60 -1 79 3 95 18 23 22 48 76 48 106 0 19 -6 20 -140 20 l-140 0 0 -30z">
			</path>
			<path id="p1xsmoGLN" d="M725 1475 c-19 -18 -25 -35 -25 -65 0 -94 112 -125 153 -42 44 89 -60 176 -128 107z"></path>
			<path id="pil7BdOgA"
				d="M646 1112 c-10 -17 14 -86 38 -110 23 -23 32 -25 101 -24 42 0 82 6 90 12 20 16 45 74 45 104 l0 26 -134 0 c-74 0 -137 -4 -140 -8z">
			</path>
			<path id="pBXhHMHzz"
				d="M1640 1089 c0 -33 13 -63 41 -94 15 -17 30 -20 97 -19 43 1 85 4 92 9 16 10 50 84 50 113 0 22 -1 22 -140 22 l-140 0 0 -31z">
			</path>
			<path id="py2mho7gM"
				d="M1724 887 c-23 -20 -29 -33 -29 -65 0 -116 150 -126 161 -11 6 55 -17 87 -67 95 -29 5 -41 1 -65 -19z"></path>
		</g>
	</g>
	<g id="l3MkrTh2DopI3Z2Dq5ZnCOa" fill="rgb(41,68,174)" style="transform: none;">
		<g>
			<path id="p136b8nGy9"
				d="M640 1688 c0 -29 34 -103 50 -113 7 -5 49 -8 92 -9 67 -1 82 2 97 19 28 31 41 61 41 94 l0 31 -140 0 c-139 0 -140 0 -140 -22z">
			</path>
			<path id="pHxOwspsY"
				d="M1640 1684 c0 -30 25 -88 46 -105 8 -6 47 -12 89 -12 65 0 78 3 100 23 23 21 45 74 45 108 0 9 -35 12 -140 12 l-140 0 0 -26z">
			</path>
			<path id="pi1D8EXIb"
				d="M1320 860 l0 -260 465 0 465 0 0 260 0 260 -130 0 c-128 0 -130 0 -130 -22 0 -43 -21 -98 -53 -140 -30 -39 -32 -45 -20 -68 18 -36 16 -109 -5 -150 -26 -52 -74 -80 -140 -80 -51 0 -57 3 -97 43 -54 53 -66 109 -39 175 17 43 17 43 -9 70 -33 35 -57 92 -57 137 l0 35 -125 0 -125 0 0 -260z">
			</path>
		</g>
	</g>
	<g id="l6Pim1XtgCm7gkeYB8AEMTh" fill="rgb(104,94,103)" style="transform: none;">
		<g>
			<path id="pagvMyHYM"
				d="M1490 2125 c-11 -13 -100 -15 -695 -15 -660 0 -682 -1 -699 -19 -10 -11 -20 -38 -23 -60 l-6 -41 1207 0 1206 0 0 43 c0 80 19 77 -452 77 -357 0 -417 2 -428 15 -7 9 -29 15 -55 15 -26 0 -48 -6 -55 -15z">
			</path>
			<path id="pwso9uSJS"
				d="M177 1903 c-4 -3 -7 -325 -7 -713 0 -646 1 -709 17 -721 13 -12 195 -14 1094 -14 1021 0 1079 1 1096 18 16 15 18 42 21 213 3 157 6 196 18 201 18 7 20 99 2 105 -10 4 -14 106 -18 449 -3 244 -9 450 -13 457 -6 9 -239 12 -1106 12 -604 0 -1101 -3 -1104 -7z m2137 -135 c14 -20 16 -95 16 -615 0 -580 0 -593 -20 -613 -20 -20 -33 -20 -859 -20 -750 0 -841 2 -855 16 -19 18 -19 20 -6 45 10 18 25 19 330 19 l320 0 0 260 0 260 -119 0 -119 0 -7 -42 c-10 -58 -27 -98 -59 -131 l-26 -28 16 -47 c31 -85 -4 -169 -83 -204 -75 -33 -140 -12 -190 62 -27 39 -31 119 -8 164 14 27 14 29 -11 49 -34 26 -63 91 -64 140 l0 37 -130 0 -130 0 0 -260 0 -260 83 0 c74 0 84 -2 96 -22 12 -19 11 -24 -9 -40 -18 -14 -40 -18 -116 -18 -148 0 -134 -68 -134 635 0 582 0 595 20 615 20 20 33 20 1034 20 l1015 0 15 -22z">
			</path>
			<path id="pLYgUqKKO" d="M729 1471 c-32 -33 -37 -67 -14 -110 39 -77 145 -41 145 49 0 82 -75 117 -131 61z"></path>
			<path id="pxhg97FSN"
				d="M1640 1090 c0 -34 20 -79 44 -99 10 -8 46 -14 92 -15 74 -1 77 0 105 32 22 24 29 43 29 72 l0 40 -135 0 -135 0 0 -30z">
			</path>
			<path id="pFPGINnQm"
				d="M650 1083 c0 -26 33 -93 45 -93 3 0 17 7 30 16 15 9 40 14 65 13 47 -4 60 9 60 59 l0 32 -100 0 -100 0 0 -27z">
			</path>
			<path id="pFoQoskKj"
				d="M1737 899 c-26 -15 -46 -68 -40 -102 3 -15 17 -36 31 -47 84 -67 180 54 103 131 -31 30 -63 36 -94 18z"></path>
		</g>
	</g>
	<g id="lnP7vgy9T3Q1iK3Fsj1d9G" fill="rgb(163,79,65)" style="transform: none;">
		<g>
			<path id="p1AU2YyklC"
				d="M1320 1450 l0 -260 463 2 462 3 0 255 0 255 -127 3 -128 3 0 -28 c0 -47 -18 -95 -51 -135 -28 -35 -30 -42 -19 -68 15 -37 15 -112 0 -142 -63 -122 -221 -125 -279 -4 -25 50 -27 93 -6 143 15 35 15 36 -19 74 -32 35 -41 58 -48 129 -3 25 -3 25 -125 28 l-123 3 0 -261z">
			</path>
			<path id="plhU7LTEc" d="M729 1471 c-56 -56 -22 -150 54 -151 70 0 105 103 52 155 -33 33 -70 32 -106 -4z"></path>
			<path id="pO74Rbw8g"
				d="M1721 1464 c-30 -38 -27 -80 8 -115 16 -16 34 -29 40 -29 33 0 55 105 31 151 -15 27 -55 24 -79 -7z"></path>
			<path id="pmuv0veJA" d="M1725 885 c-53 -52 -18 -155 52 -155 76 1 110 95 54 151 -36 36 -73 37 -106 4z"></path>
			<path id="p1Hc0Q3WBK"
				d="M737 888 c-9 -7 -21 -26 -26 -41 -18 -48 23 -117 69 -117 18 0 42 71 36 108 -9 58 -41 78 -79 50z"></path>
		</g>
	</g>
	<g id="l7ZMW5Xmw6xHGDb1nssQGNX" fill="rgb(51,81,197)" style="transform: none;">
		<g>
			<path id="p1DnKovXk8"
				d="M650 1670 c0 -30 7 -48 29 -72 27 -31 31 -32 105 -31 43 1 83 7 91 13 20 16 45 74 45 104 l0 26 -135 0 -135 0 0 -40z">
			</path>
			<path id="pyNpAIxDt"
				d="M1640 1684 c0 -34 27 -91 52 -108 14 -10 29 -11 52 -5 19 5 45 5 64 -1 29 -8 37 -5 63 18 24 21 32 39 36 75 l6 47 -137 0 -136 0 0 -26z">
			</path>
			<path id="p8GVTso56"
				d="M1320 860 l0 -250 395 0 395 0 0 250 0 250 -60 0 -60 0 0 -35 c0 -45 -20 -92 -53 -127 -25 -27 -25 -30 -11 -63 29 -71 4 -162 -57 -206 -46 -32 -134 -34 -176 -3 -67 50 -91 130 -62 212 9 28 7 35 -19 69 -32 41 -52 91 -52 129 0 24 -1 24 -120 24 l-120 0 0 -250z">
			</path>
		</g>
	</g>
	<g id="l75jiSXJde4DOfUCkqty4ER" fill="rgb(122,110,121)" style="transform: none;">
		<g>
			<path id="pS7lvPiWI"
				d="M1490 2125 c-11 -13 -100 -15 -695 -15 -770 0 -715 6 -715 -78 l0 -42 1200 0 1200 0 0 44 c0 78 14 76 -456 76 -354 0 -413 2 -424 15 -7 9 -29 15 -55 15 -26 0 -48 -6 -55 -15z">
			</path>
			<path id="pnG0TDq3N"
				d="M177 1903 c-4 -3 -7 -325 -7 -713 0 -646 1 -709 17 -721 13 -12 190 -14 1041 -17 756 -2 1028 1 1038 9 8 6 14 22 14 35 l0 24 -834 0 c-745 0 -836 2 -850 16 -19 18 -19 20 -6 45 10 18 25 19 330 19 l320 0 0 260 0 260 -119 0 -119 0 -7 -42 c-10 -58 -27 -98 -59 -131 l-26 -28 16 -47 c31 -85 -4 -169 -83 -204 -75 -33 -140 -12 -190 62 -27 39 -31 119 -8 164 14 27 14 29 -11 49 -34 26 -63 91 -64 140 l0 37 -130 0 -130 0 0 -260 0 -260 83 0 c74 0 84 -2 96 -22 12 -19 11 -24 -9 -40 -18 -14 -40 -18 -116 -18 -148 0 -134 -68 -134 633 0 520 2 595 16 615 l15 22 1010 0 1009 0 0 60 0 60 -1048 0 c-577 0 -1052 -3 -1055 -7z">
			</path>
			<path id="pTxM8ffrM"
				d="M729 1471 c-31 -31 -37 -67 -17 -104 42 -79 148 -50 148 40 -1 42 -13 63 -47 81 -34 18 -52 14 -84 -17z"></path>
			<path id="p15E2hSOUz"
				d="M1640 1095 c0 -33 22 -86 43 -103 10 -8 45 -14 93 -15 74 -1 78 0 105 31 22 24 29 42 29 72 l0 40 -135 0 -135 0 0 -25z">
			</path>
			<path id="pfba4WV3h"
				d="M1726 887 c-36 -36 -36 -98 -1 -132 31 -31 66 -32 102 -1 22 19 28 32 28 65 0 48 -24 77 -72 87 -26 5 -37 1 -57 -19z">
			</path>
		</g>
	</g>
	<g id="ldIJV1qvmSNTo0ZIRmRQ46" fill="rgb(39,209,179)" style="transform: none;">
		<g>
			<path id="pzE6TUKIV"
				d="M312 1453 l3 -258 463 -3 462 -2 0 260 0 261 -122 -3 c-123 -3 -123 -3 -126 -28 -7 -69 -15 -90 -47 -127 -34 -40 -35 -41 -20 -77 52 -125 -57 -260 -183 -226 -39 10 -80 46 -102 88 -15 30 -15 105 0 142 11 26 9 33 -19 68 -33 40 -51 88 -51 134 l0 28 -130 0 -130 0 2 -257z">
			</path>
		</g>
	</g>
	<g id="l52IJ2E2UL2q1Anfmp88XsM" fill="rgb(28,150,249)" style="transform: none;">
		<g>
			<path id="pRlgayqAB"
				d="M650 1676 c0 -18 10 -48 23 -67 22 -33 25 -34 88 -34 35 -1 69 -4 75 -8 25 -15 84 72 84 123 0 19 -6 20 -135 20 l-135 0 0 -34z">
			</path>
		</g>
	</g>
	<g id="l1WpMkikqGTiug1TvAQQICB" fill="rgb(109,129,213)" style="transform: none;">
		<g>
			<path id="ph6VNF7B5"
				d="M1640 1688 c1 -36 36 -106 57 -111 10 -2 52 -4 93 -3 73 1 75 2 97 35 13 19 23 46 23 61 0 25 -4 28 -46 34 -26 3 -87 6 -135 6 -86 0 -89 -1 -89 -22z">
			</path>
			<path id="pHEnvy8xs"
				d="M1640 1094 c0 -34 27 -91 52 -108 13 -10 30 -11 54 -6 20 5 50 4 67 -1 28 -8 35 -5 60 20 21 20 31 42 34 75 l6 46 -137 0 -136 0 0 -26z">
			</path>
		</g>
	</g>
	<g id="l514mrcVNxCIgd3rM1YyVGT" fill="rgb(49,167,251)" style="transform: none;">
		<g>
			<path id="p7E7Y6z9U"
				d="M650 1679 c0 -23 27 -86 41 -95 5 -2 20 2 33 11 16 10 41 15 66 14 47 -4 60 9 60 59 l0 32 -100 0 c-95 0 -100 -1 -100 -21z">
			</path>
		</g>
	</g>
	<g id="l1qIrRHtbWTRrJJOv7310c5" fill="rgb(136,151,220)" style="transform: none;">
		<g>
			<path id="pnzQxUjvZ"
				d="M1644 1684 c3 -9 6 -24 6 -33 0 -10 9 -30 21 -45 20 -25 21 -25 51 -10 18 9 47 14 69 12 35 -3 40 -1 49 26 23 65 21 66 -96 66 -93 0 -105 -2 -100 -16z">
			</path>
		</g>
	</g>
	<g id="l6NcNnmWCxzhbUFO1mcybtA" fill="rgb(252,168,99)" style="transform: none;">
		<g>
			<path id="p8UphXvVe"
				d="M1320 1450 l0 -260 460 0 460 0 0 260 0 260 -125 0 -125 0 0 -35 c0 -45 -24 -102 -56 -136 -25 -26 -25 -27 -9 -76 20 -63 9 -117 -36 -168 -119 -135 -325 12 -254 182 14 33 14 38 0 45 -25 14 -63 90 -70 141 l-7 47 -119 0 -119 0 0 -260z">
			</path>
			<path id="peaGDGq4D"
				d="M310 860 l0 -260 83 0 c71 0 84 -3 95 -20 17 -28 87 -28 102 0 10 19 21 20 330 20 l320 0 0 260 0 260 -119 0 -119 0 -7 -42 c-10 -58 -27 -98 -59 -131 l-26 -28 16 -47 c31 -85 -4 -169 -83 -204 -75 -33 -140 -12 -190 62 -27 39 -31 119 -8 164 14 27 14 29 -11 49 -34 26 -63 91 -64 140 l0 37 -130 0 -130 0 0 -260z">
			</path>
		</g>
	</g>
	<g id="l27DMNueMEeDFT5sVhZYbeC" fill="rgb(253,221,69)" style="transform: none;">
		<g>
			<path id="phCszKXvT"
				d="M317 1113 c-4 -3 -7 -120 -7 -260 l0 -253 83 0 c71 0 84 -3 95 -20 9 -15 23 -20 52 -20 29 0 42 5 50 20 10 19 21 20 330 20 l320 0 0 260 0 260 -119 0 -119 0 -7 -42 c-10 -58 -27 -98 -59 -131 l-26 -28 16 -47 c31 -85 -4 -169 -83 -204 -75 -33 -140 -12 -190 62 -27 39 -31 119 -8 164 14 27 14 29 -11 49 -34 26 -63 91 -64 140 l0 37 -123 0 c-68 0 -127 -3 -130 -7z">
			</path>
		</g>
	</g>
	<g id="lrdfZPNqymvEkbl96rFOn8" fill="rgb(252,185,130)" style="transform: none;">
		<g>
			<path id="p1EuYpBH7R"
				d="M1320 1450 l0 -250 395 0 395 0 0 250 0 250 -60 0 -60 0 0 -35 c0 -39 -26 -97 -58 -131 -19 -20 -20 -24 -5 -65 28 -83 -5 -172 -80 -210 -105 -54 -227 24 -227 145 0 28 6 63 14 78 13 24 12 28 -6 45 -28 25 -56 84 -64 132 l-7 41 -118 0 -119 0 0 -250z">
			</path>
		</g>
	</g>
	<g id="l5XwVFA3vI6rDjhdPRyDdNR" fill="rgb(253,176,160)" style="transform: none;">
		<g>
			<path id="pPluC7Wj1"
				d="M735 1478 c-15 -14 -28 -38 -32 -60 -5 -32 -1 -41 25 -68 37 -37 74 -39 107 -5 18 17 25 35 25 62 -1 42 -13 63 -47 81 -31 17 -49 15 -78 -10z">
			</path>
			<path id="p13HnNLF8o"
				d="M1745 898 c-52 -30 -62 -102 -20 -143 31 -31 66 -32 102 -1 53 46 31 135 -37 150 -14 3 -34 1 -45 -6z"></path>
		</g>
	</g>
	<g id="l12GhVSzExOr8PhEUmZkhQd" fill="rgb(169,211,216)" style="transform: none;">
		<g>
			<path id="p4NwA5tZi"
				d="M1490 2125 c-11 -13 -100 -15 -689 -15 -766 0 -721 5 -721 -76 l0 -44 1200 0 1200 0 0 44 c0 78 14 76 -456 76 -354 0 -413 2 -424 15 -7 9 -29 15 -55 15 -26 0 -48 -6 -55 -15z">
			</path>
			<path id="p1HMemLsKY"
				d="M1640 1096 c0 -37 17 -74 45 -100 22 -21 31 -23 58 -15 20 5 46 5 65 -1 29 -8 37 -5 63 18 24 21 32 39 36 75 l6 47 -137 0 -136 0 0 -24z">
			</path>
		</g>
	</g>
	<g id="l4WmL0VkTY2EmRTQ9ImkaWM" fill="rgb(255,206,192)" style="transform: none;">
		<g>
			<path id="p15UVJUdbf"
				d="M719 1458 c-25 -41 -19 -84 17 -115 36 -32 53 -29 70 14 17 39 14 94 -7 119 -21 25 -58 17 -80 -18z"></path>
			<path id="p12Zm0VZXr"
				d="M1754 900 c-31 -12 -54 -49 -54 -85 1 -35 15 -56 49 -75 22 -11 27 -10 43 10 42 52 12 170 -38 150z"></path>
		</g>
	</g>
	<g id="l4XLTjpb7bSzIE1GEvd39Vj" fill="rgb(203,229,231)" style="transform: none;">
		<g>
			<path id="pxQIT1la2"
				d="M1490 2125 c-10 -13 -107 -15 -697 -17 -665 -3 -685 -4 -699 -22 -8 -11 -14 -37 -14 -58 l0 -38 1145 0 1145 0 0 48 c0 26 -5 53 -12 60 -9 9 -107 12 -379 12 -314 0 -368 2 -379 15 -16 20 -93 20 -110 0z">
			</path>
			<path id="pjlk2jqUb"
				d="M1640 1096 c0 -22 20 -69 37 -88 14 -16 18 -16 45 -2 17 9 48 14 70 12 45 -3 56 10 57 65 l1 27 -105 0 c-85 0 -105 -3 -105 -14z">
			</path>
		</g>
	</g>
	<g id="l6M9xmUpcRzQOTWyLpG2tRT" fill="rgb(222,236,240)" style="transform: none;">
		<g>
			<path id="p8p69uKfT"
				d="M1640 1102 c0 -21 21 -77 35 -92 15 -17 18 -16 53 1 25 13 47 17 69 13 35 -7 37 -5 47 54 l6 32 -105 0 c-58 0 -105 -3 -105 -8z">
			</path>
		</g>
	</g>
</svg>