<svg version="1.1" preserveAspectRatio="xMidYMid meet" xmlns="http://www.w3.org/2000/svg" xmlns:xlink="http://www.w3.org/1999/xlink" viewBox="-167.849 0 1335.697 1000">
    <defs>
        <path d="M431.438,222.91 A137.124,137.124 0 0 1 568.562,222.91 L705.686,302.078 A137.124,137.124 0 0 1 774.248,420.831 L774.248,579.169 A137.124,137.124 0 0 1 705.686,697.922 L568.562,777.09 A137.124,137.124 0 0 1 431.438,777.09 L294.314,697.922 A137.124,137.124 0 0 1 225.752,579.169 L225.752,420.831 A137.124,137.124 0 0 1 294.314,302.078 Z" strokeLinecap="round" strokeLinejoin="round" strokeMiterlimit="25" id="def-c6641e4b-46c1-4351-9dc6-aa04a08e563f"></path>
        <path d="M335.943,468.357 Q333.817,468.357,332.855,467.395 Q331.893,466.433,331.893,464.307 L331.893,464.307 L331.893,401.534 Q331.893,399.407,332.855,398.446 Q333.817,397.484,335.943,397.484 L335.943,397.484 L371.481,397.484 Q373.101,397.484,373.809,398.699 Q374.518,399.914,374.518,402.546 L374.518,402.546 L374.518,405.685 Q374.518,408.317,373.809,409.532 Q373.101,410.747,371.481,410.747 L371.481,410.747 L347.485,410.747 L347.485,425.428 L368.747,425.428 Q370.367,425.428,371.076,426.643 Q371.784,427.858,371.784,430.49 L371.784,430.49 L371.784,433.629 Q371.784,436.261,371.076,437.476 Q370.367,438.691,368.747,438.691 L368.747,438.691 L347.485,438.691 L347.485,455.093 L371.582,455.093 Q373.202,455.093,373.911,456.308 Q374.619,457.523,374.619,460.156 L374.619,460.156 L374.619,463.294 Q374.619,465.927,373.911,467.142 Q373.202,468.357,371.582,468.357 L371.582,468.357 L335.943,468.357 Z M415.923,469.167 Q401.951,469.167,394.256,462.737 Q386.561,456.308,386.561,444.665 L386.561,444.665 L386.561,400.521 Q386.561,397.281,392.636,397.281 L392.636,397.281 L396.078,397.281 Q402.153,397.281,402.153,400.521 L402.153,400.521 L402.153,443.652 Q402.153,449.018,406,452.461 Q409.848,455.903,415.923,455.903 L415.923,455.903 Q421.997,455.903,425.895,452.461 Q429.793,449.018,429.793,443.652 L429.793,443.652 L429.793,400.521 Q429.793,397.281,435.868,397.281 L435.868,397.281 L439.209,397.281 Q445.284,397.281,445.284,400.521 L445.284,400.521 L445.284,444.665 Q445.284,456.308,437.589,462.737 Q429.895,469.167,415.923,469.167 L415.923,469.167 Z M465.427,468.559 Q459.352,468.559,459.352,465.319 L459.352,465.319 L459.352,400.521 Q459.352,397.281,465.427,397.281 L465.427,397.281 L469.781,397.281 Q472.21,397.281,473.83,397.838 Q475.45,398.395,476.463,400.015 L476.463,400.015 L499.243,435.148 Q501.268,438.084,502.888,441.121 L502.888,441.121 L503.293,441.02 Q503.091,438.691,503.091,434.135 L503.091,434.135 L503.091,400.521 Q503.091,397.281,509.166,397.281 L509.166,397.281 L512.102,397.281 Q518.177,397.281,518.177,400.521 L518.177,400.521 L518.177,465.319 Q518.177,468.559,512.102,468.559 L512.102,468.559 L508.254,468.559 Q505.824,468.559,504.204,468.002 Q502.585,467.445,501.572,465.825 L501.572,465.825 L478.285,430.186 Q476.26,427.25,474.64,424.213 L474.64,424.213 L474.235,424.314 Q474.438,426.643,474.438,431.199 L474.438,431.199 L474.438,465.319 Q474.438,468.559,468.363,468.559 L468.363,468.559 L465.427,468.559 Z M538.117,468.66 Q532.042,468.66,532.042,465.319 L532.042,465.319 L532.042,400.521 Q532.042,397.18,538.117,397.18 L538.117,397.18 L541.66,397.18 Q547.735,397.18,547.735,400.521 L547.735,400.521 L547.735,465.319 Q547.735,468.66,541.66,468.66 L541.66,468.66 L538.117,468.66 Z M592.481,469.167 Q575.471,469.167,567.321,460.307 Q559.171,451.448,559.171,432.718 L559.171,432.718 Q559.171,396.674,592.987,396.674 L592.987,396.674 Q598.049,396.674,603.314,397.737 Q608.579,398.8,611.515,400.521 L611.515,400.521 Q614.148,402.04,614.148,403.761 L614.148,403.761 Q614.148,405.179,613.034,407.457 Q611.92,409.735,610.351,411.506 Q608.782,413.278,607.567,413.278 L607.567,413.278 Q607.263,413.278,605.137,412.367 Q603.011,411.456,599.973,410.747 Q596.936,410.038,592.683,410.038 L592.683,410.038 Q583.774,410.038,579.471,415.708 Q575.168,421.378,575.168,432.819 L575.168,432.819 Q575.168,455.903,592.481,455.903 L592.481,455.903 Q597.037,455.903,600.378,454.992 Q603.719,454.081,606.858,452.663 L606.858,452.663 Q608.478,451.853,609.085,451.853 L609.085,451.853 Q610.604,451.853,611.971,453.575 Q613.338,455.296,614.198,457.473 Q615.059,459.649,615.059,460.662 L615.059,460.662 Q615.059,463.294,611.515,465.319 L611.515,465.319 Q608.174,467.243,602.707,468.205 Q597.239,469.167,592.481,469.167 L592.481,469.167 Z M629.431,468.357 Q627.304,468.357,626.343,467.395 Q625.381,466.433,625.381,464.307 L625.381,464.307 L625.381,401.534 Q625.381,399.407,626.343,398.446 Q627.304,397.484,629.431,397.484 L629.431,397.484 L664.968,397.484 Q666.588,397.484,667.297,398.699 Q668.006,399.914,668.006,402.546 L668.006,402.546 L668.006,405.685 Q668.006,408.317,667.297,409.532 Q666.588,410.747,664.968,410.747 L664.968,410.747 L640.973,410.747 L640.973,425.428 L662.235,425.428 Q663.854,425.428,664.563,426.643 Q665.272,427.858,665.272,430.49 L665.272,430.49 L665.272,433.629 Q665.272,436.261,664.563,437.476 Q663.854,438.691,662.235,438.691 L662.235,438.691 L640.973,438.691 L640.973,455.093 L665.069,455.093 Q666.689,455.093,667.398,456.308 Q668.107,457.523,668.107,460.156 L668.107,460.156 L668.107,463.294 Q668.107,465.927,667.398,467.142 Q666.689,468.357,665.069,468.357 L665.069,468.357 L629.431,468.357 Z M338.565,602.825 Q335.062,602.825,333.478,601.24 Q331.893,599.656,331.893,596.153 L331.893,596.153 L331.893,492.746 Q331.893,489.244,333.478,487.659 Q335.062,486.075,338.565,486.075 L338.565,486.075 L371.588,486.075 Q391.936,486.075,401.443,493.914 Q410.95,501.753,410.95,515.596 L410.95,515.596 Q410.95,523.935,405.863,530.857 Q400.776,537.778,392.937,540.947 L392.937,540.947 L393.104,541.614 Q402.944,543.616,409.282,551.455 Q415.62,559.294,415.62,568.967 L415.62,568.967 Q415.62,585.312,405.196,594.069 Q394.771,602.825,373.923,602.825 L373.923,602.825 L338.565,602.825 Z M357.578,532.608 L369.086,532.608 Q376.425,532.608,380.511,529.106 Q384.598,525.603,384.598,520.099 L384.598,520.099 Q384.598,507.757,369.42,507.757 L369.42,507.757 L357.578,507.757 L357.578,532.608 Z M357.578,580.976 L373.923,580.976 Q381.262,580.976,385.265,577.473 Q389.268,573.971,389.268,567.466 L389.268,567.466 Q389.268,560.962,384.598,557.709 Q379.928,554.457,371.255,554.457 L371.255,554.457 L357.578,554.457 L357.578,580.976 Z M428.954,603.158 Q418.78,603.158,418.78,599.489 L418.78,599.489 Q418.78,598.822,419.447,596.487 L419.447,596.487 L456.14,489.244 Q457.474,485.741,465.647,485.741 L465.647,485.741 L474.319,485.741 Q482.659,485.741,483.826,489.244 L483.826,489.244 L520.519,596.487 Q521.019,598.155,521.019,599.489 L521.019,599.489 Q521.019,603.158,512.68,603.158 L512.68,603.158 L505.342,603.158 Q497.169,603.158,496.002,599.656 L496.002,599.656 L489.33,579.308 L449.969,579.308 L443.297,599.656 Q442.13,603.158,435.625,603.158 L435.625,603.158 L428.954,603.158 Z M457.14,557.292 L482.158,557.292 L472.652,527.604 Q471.484,524.269,470.15,516.93 L470.15,516.93 L469.483,516.93 Q469.316,517.931,468.732,521.35 Q468.148,524.769,466.981,527.604 L466.981,527.604 L457.14,557.292 Z M542.359,603.325 Q532.352,603.325,532.352,597.821 L532.352,597.821 L532.352,491.078 Q532.352,485.574,542.359,485.574 L542.359,485.574 L548.197,485.574 Q558.204,485.574,558.204,491.078 L558.204,491.078 L558.204,597.821 Q558.204,603.325,548.197,603.325 L548.197,603.325 L542.359,603.325 Z M591.052,603.158 Q581.045,603.158,581.045,597.821 L581.045,597.821 L581.045,491.078 Q581.045,485.741,591.052,485.741 L591.052,485.741 L596.889,485.741 Q606.896,485.741,606.896,491.078 L606.896,491.078 L606.896,535.777 L607.564,535.944 L636.584,488.91 Q638.419,485.741,646.591,485.741 L646.591,485.741 L654.43,485.741 Q663.77,485.741,663.77,488.243 L663.77,488.243 Q663.77,489.744,662.436,491.745 L662.436,491.745 L630.246,541.114 L666.773,597.154 Q668.107,599.156,668.107,600.657 L668.107,600.657 Q668.107,603.158,658.767,603.158 L658.767,603.158 L649.093,603.158 Q640.754,603.158,638.919,599.99 L638.919,599.99 L607.564,549.287 L606.896,549.453 L606.896,597.821 Q606.896,603.158,596.889,603.158 L596.889,603.158 L591.052,603.158 Z" id="def-b07978ab-29bf-430d-87d7-b5b4cd2954ab"></path>
        <path d="M356.674,691.006 L358.617,685.106 L351.234,679.226 L345.93,682.449 L344.489,681.302 L363.594,669.941 L364.9,670.982 L358.104,692.144 L356.674,691.006 Z M362.907,672.132 L352.592,678.392 L359.115,683.586 L362.907,672.132 Z M463.452,714.964 L459.246,735.322 L457.512,734.964 L459.529,725.204 L447.895,722.801 L445.879,732.561 L444.159,732.205 L448.365,711.847 L450.085,712.202 L448.196,721.347 L459.829,723.75 L461.718,714.606 L463.452,714.964 Z M569.438,728.482 L565.825,723.429 L556.72,725.912 L556.187,732.096 L554.41,732.58 L556.53,710.454 L558.141,710.015 L571.201,728.001 L569.438,728.482 Z M557.892,712.303 L556.849,724.323 L564.894,722.129 L557.892,712.303 Z M641.959,665.331 L651.617,676.816 L650.411,677.844 L640.612,666.479 L641.959,665.331 Z M653.296,681.669 L653.296,681.669 Q652.981,681.3,653.003,680.841 Q653.024,680.382,653.437,680.03 Q653.85,679.678,654.312,679.725 Q654.774,679.772,655.089,680.141 L655.089,680.141 Q655.395,680.5,655.359,680.953 Q655.323,681.405,654.91,681.757 Q654.497,682.109,654.049,682.069 Q653.602,682.028,653.296,681.669 Z" fill="#fff" id="def-97fe7f9f-28af-43d2-915e-9e8058d78256"></path>
        <g id="def-da0a4ea7-7a6b-4e99-b418-c14db6421465">
            <use xlink:href="#def-c6641e4b-46c1-4351-9dc6-aa04a08e563f" stroke-width="0"></use>
        </g>
        <radialGradient id="gradient-6a85756c-9cea-41c8-8324-e0ea0bc14077" gradientUnits="objectBoundingBox" gradientTransform="translate(0.5, 0.5) scale(1, 1) translate(-0.5, -0.5)" cx="0.875" cy="0.125" r="1.03">
            <stop offset="0" stop-color="#f68098" stop-opacity="1"></stop>
            <stop offset="0.125" stop-color="#f6818e" stop-opacity="1"></stop>
            <stop offset="0.25" stop-color="#f68285" stop-opacity="1"></stop>
            <stop offset="0.375" stop-color="#f4847c" stop-opacity="1"></stop>
            <stop offset="0.5" stop-color="#f18773" stop-opacity="1"></stop>
            <stop offset="0.625" stop-color="#ed8a6b" stop-opacity="1"></stop>
            <stop offset="0.75" stop-color="#e98d64" stop-opacity="1"></stop>
            <stop offset="0.875" stop-color="#e3915d" stop-opacity="1"></stop>
            <stop offset="1" stop-color="#dd9457" stop-opacity="1"></stop>
        </radialGradient>
        <mask id="mask-98fe5ea1-fbe1-439f-800f-f6426b4ad4e8" x="81.989" y="81.989" width="836.021" height="836.021" maskUnits="userSpaceOnUse" stroke-width="0">
            <rect x="119.99" y="119.99" width="760.019" height="760.019" fill="#000"></rect>
            <use xlink:href="#def-da0a4ea7-7a6b-4e99-b418-c14db6421465" fill="#fff" stroke="#fff"></use>
        </mask>
        <mask id="mask-00dce99f-50f2-4b8a-b311-07813df7089c" x="293.262" y="358.043" width="413.476" height="395.245" maskUnits="userSpaceOnUse" stroke-width="0">
            <rect x="311.228" y="376.009" width="377.544" height="359.314" fill="#000"></rect>
            <use xlink:href="#def-b07978ab-29bf-430d-87d7-b5b4cd2954ab" fill="#fff" stroke="#fff"></use>
            <use xlink:href="#def-97fe7f9f-28af-43d2-915e-9e8058d78256" fill="#fff" stroke="#fff"></use>
        </mask>
    </defs>
    <rect id="background-db489397-21ea-422b-b66c-519b041058d5" x="-167.849" y="0" width="1335.697" height="1000" fill="#1c171f"></rect>
    <g mask="url(#mask-98fe5ea1-fbe1-439f-800f-f6426b4ad4e8)">
        <rect x="119.99" y="119.99" width="760.019" height="760.019" fill="url(#gradient-6a85756c-9cea-41c8-8324-e0ea0bc14077)"></rect>
    </g>
    <g mask="url(#mask-00dce99f-50f2-4b8a-b311-07813df7089c)">
        <rect x="311.228" y="376.009" width="377.544" height="359.314" fill="#f8efca"></rect>
    </g>
</svg>